  0
SECTION
  2
HEADER
  9
$ACADVER
  1
AC1014
  9
$ACADMAINTVER
 70
     9
  9
$DWGCODEPAGE
  3
ANSI_1252
  9
$INSBASE
 10
0.0
 20
0.0
 30
0.0
  9
$EXTMIN
 10
1.000000000000000E+20
 20
1.000000000000000E+20
 30
1.000000000000000E+20
  9
$EXTMAX
 10
-1.000000000000000E+20
 20
-1.000000000000000E+20
 30
-1.000000000000000E+20
  9
$LIMMIN
 10
0.0
 20
0.0
  9
$LIMMAX
 10
12.0
 20
9.0
  9
$ORTHOMODE
 70
     0
  9
$REGENMODE
 70
     1
  9
$FILLMODE
 70
     1
  9
$QTEXTMODE
 70
     0
  9
$MIRRTEXT
 70
     1
  9
$DRAGMODE
 70
     2
  9
$LTSCALE
 40
1.0
  9
$OSMODE
 70
    37
  9
$ATTMODE
 70
     1
  9
$TEXTSIZE
 40
0.2
  9
$TRACEWID
 40
0.05
  9
$TEXTSTYLE
  7
STANDARD
  9
$CLAYER
  8
0
  9
$CELTYPE
  6
BYLAYER
  9
$CECOLOR
 62
   256
  9
$CELTSCALE
 40
1.0
  9
$DELOBJ
 70
     1
  9
$DISPSILH
 70
     0
  9
$DIMSCALE
 40
1.0
  9
$DIMASZ
 40
0.18
  9
$DIMEXO
 40
0.0625
  9
$DIMDLI
 40
0.38
  9
$DIMRND
 40
0.0
  9
$DIMDLE
 40
0.0
  9
$DIMEXE
 40
0.18
  9
$DIMTP
 40
0.0
  9
$DIMTM
 40
0.0
  9
$DIMTXT
 40
0.18
  9
$DIMCEN
 40
0.09
  9
$DIMTSZ
 40
0.0
  9
$DIMTOL
 70
     0
  9
$DIMLIM
 70
     0
  9
$DIMTIH
 70
     1
  9
$DIMTOH
 70
     1
  9
$DIMSE1
 70
     0
  9
$DIMSE2
 70
     0
  9
$DIMTAD
 70
     0
  9
$DIMZIN
 70
     0
  9
$DIMBLK
  1

  9
$DIMASO
 70
     1
  9
$DIMSHO
 70
     1
  9
$DIMPOST
  1

  9
$DIMAPOST
  1

  9
$DIMALT
 70
     0
  9
$DIMALTD
 70
     2
  9
$DIMALTF
 40
25.4
  9
$DIMLFAC
 40
1.0
  9
$DIMTOFL
 70
     0
  9
$DIMTVP
 40
0.0
  9
$DIMTIX
 70
     0
  9
$DIMSOXD
 70
     0
  9
$DIMSAH
 70
     0
  9
$DIMBLK1
  1

  9
$DIMBLK2
  1

  9
$DIMSTYLE
  2
STANDARD
  9
$DIMCLRD
 70
     0
  9
$DIMCLRE
 70
     0
  9
$DIMCLRT
 70
     0
  9
$DIMTFAC
 40
1.0
  9
$DIMGAP
 40
0.09
  9
$DIMJUST
 70
     0
  9
$DIMSD1
 70
     0
  9
$DIMSD2
 70
     0
  9
$DIMTOLJ
 70
     1
  9
$DIMTZIN
 70
     0
  9
$DIMALTZ
 70
     0
  9
$DIMALTTZ
 70
     0
  9
$DIMFIT
 70
     3
  9
$DIMUPT
 70
     0
  9
$DIMUNIT
 70
     2
  9
$DIMDEC
 70
     4
  9
$DIMTDEC
 70
     4
  9
$DIMALTU
 70
     2
  9
$DIMALTTD
 70
     2
  9
$DIMTXSTY
  7
STANDARD
  9
$DIMAUNIT
 70
     0
  9
$LUNITS
 70
     2
  9
$LUPREC
 70
     4
  9
$SKETCHINC
 40
0.1
  9
$FILLETRAD
 40
0.5
  9
$AUNITS
 70
     0
  9
$AUPREC
 70
     0
  9
$MENU
  1
.
  9
$ELEVATION
 40
0.0
  9
$PELEVATION
 40
0.0
  9
$THICKNESS
 40
0.0
  9
$LIMCHECK
 70
     0
  9
$CHAMFERA
 40
0.0
  9
$CHAMFERB
 40
0.0
  9
$CHAMFERC
 40
0.0
  9
$CHAMFERD
 40
0.0
  9
$SKPOLY
 70
     0
  9
$TDCREATE
 40
2457784.29088625
  9
$TDUPDATE
 40
2457784.290886481
  9
$TDINDWG
 40
0.0000000116
  9
$TDUSRTIMER
 40
0.0000000116
  9
$USRTIMER
 70
     1
  9
$ANGBASE
 50
0.0
  9
$ANGDIR
 70
     0
  9
$PDMODE
 70
     0
  9
$PDSIZE
 40
0.0
  9
$PLINEWID
 40
0.0
  9
$COORDS
 70
     1
  9
$SPLFRAME
 70
     0
  9
$SPLINETYPE
 70
     6
  9
$SPLINESEGS
 70
     8
  9
$ATTDIA
 70
     0
  9
$ATTREQ
 70
     1
  9
$HANDLING
 70
     1
  9
$HANDSEED
  5
3B7
  9
$SURFTAB1
 70
     6
  9
$SURFTAB2
 70
     6
  9
$SURFTYPE
 70
     6
  9
$SURFU
 70
     6
  9
$SURFV
 70
     6
  9
$UCSNAME
  2

  9
$UCSORG
 10
0.0
 20
0.0
 30
0.0
  9
$UCSXDIR
 10
1.0
 20
0.0
 30
0.0
  9
$UCSYDIR
 10
0.0
 20
1.0
 30
0.0
  9
$PUCSNAME
  2

  9
$PUCSORG
 10
0.0
 20
0.0
 30
0.0
  9
$PUCSXDIR
 10
1.0
 20
0.0
 30
0.0
  9
$PUCSYDIR
 10
0.0
 20
1.0
 30
0.0
  9
$USERI1
 70
     0
  9
$USERI2
 70
     0
  9
$USERI3
 70
     0
  9
$USERI4
 70
     0
  9
$USERI5
 70
     0
  9
$USERR1
 40
0.0
  9
$USERR2
 40
0.0
  9
$USERR3
 40
0.0
  9
$USERR4
 40
0.0
  9
$USERR5
 40
0.0
  9
$WORLDVIEW
 70
     1
  9
$SHADEDGE
 70
     3
  9
$SHADEDIF
 70
    70
  9
$TILEMODE
 70
     1
  9
$MAXACTVP
 70
    64
  9
$PINSBASE
 10
0.0
 20
0.0
 30
0.0
  9
$PLIMCHECK
 70
     0
  9
$PEXTMIN
 10
1.000000000000000E+20
 20
1.000000000000000E+20
 30
1.000000000000000E+20
  9
$PEXTMAX
 10
-1.000000000000000E+20
 20
-1.000000000000000E+20
 30
-1.000000000000000E+20
  9
$PLIMMIN
 10
0.0
 20
0.0
  9
$PLIMMAX
 10
12.0
 20
9.0
  9
$UNITMODE
 70
     0
  9
$VISRETAIN
 70
     1
  9
$PLINEGEN
 70
     0
  9
$PSLTSCALE
 70
     1
  9
$TREEDEPTH
 70
  3020
  9
$PICKSTYLE
 70
     1
  9
$CMLSTYLE
  2
STANDARD
  9
$CMLJUST
 70
     0
  9
$CMLSCALE
 40
1.0
  9
$PROXYGRAPHICS
 70
     1
  9
$MEASUREMENT
 70
     0
  0
ENDSEC
  0
SECTION
  2
CLASSES
  0
CLASS
  1
ACDBDICTIONARYWDFLT
  2
AcDbDictionaryWithDefault
  3
ObjectDBX Classes
 90
        0
280
     0
281
     0
  0
CLASS
  1
VISUALSTYLE
  2
AcDbVisualStyle
  3
ObjectDBX Classes
 90
     4095
280
     0
281
     0
  0
CLASS
  1
MATERIAL
  2
AcDbMaterial
  3
ObjectDBX Classes
 90
     1153
280
     0
281
     0
  0
CLASS
  1
SCALE
  2
AcDbScale
  3
ObjectDBX Classes
 90
     1153
280
     0
281
     0
  0
CLASS
  1
TABLESTYLE
  2
AcDbTableStyle
  3
ObjectDBX Classes
 90
     4095
280
     0
281
     0
  0
CLASS
  1
MLEADERSTYLE
  2
AcDbMLeaderStyle
  3
ACDB_MLEADERSTYLE_CLASS
 90
     4095
280
     0
281
     0
  0
CLASS
  1
SUN
  2
AcDbSun
  3
SCENEOE
 90
     1153
280
     0
281
     0
  0
CLASS
  1
DICTIONARYVAR
  2
AcDbDictionaryVar
  3
ObjectDBX Classes
 90
        0
280
     0
281
     0
  0
CLASS
  1
XRECORD
  2
AcDbXrecord
  3
ObjectDBX Classes
 90
        0
280
     0
281
     0
  0
CLASS
  1
LWPOLYLINE
  2
AcDbPolyline
  3
ObjectDBX Classes
 90
        0
280
     0
281
     1
  0
CLASS
  1
HATCH
  2
AcDbHatch
  3
ObjectDBX Classes
 90
        0
280
     0
281
     1
  0
CLASS
  1
ACDBPLACEHOLDER
  2
AcDbPlaceHolder
  3
ObjectDBX Classes
 90
        0
280
     0
281
     0
  0
CLASS
  1
LAYOUT
  2
AcDbLayout
  3
ObjectDBX Classes
 90
        0
280
     0
281
     0
  0
ENDSEC
  0
SECTION
  2
TABLES
  0
TABLE
  2
VPORT
  5
8
102
{ACAD_XDICTIONARY
360
3AC
102
}
330
0
100
AcDbSymbolTable
 70
     1
  0
VPORT
  5
29
330
8
100
AcDbSymbolTableRecord
100
AcDbViewportTableRecord
  2
*ACTIVE
 70
     0
 10
0.0
 20
0.0
 11
1.0
 21
1.0
 12
0.0
 22
0.0
 13
0.0
 23
0.0
 14
0.5
 24
0.5
 15
0.5
 25
0.5
 16
0.0
 26
0.0
 36
1.0
 17
0.0
 27
0.0
 37
-1000.0
 40
13.25840700400843
 41
2.500797448165869
 42
50.0
 43
21.02514737076457
 44
27.11606901739101
 50
0.0
 51
0.0
 71
     0
 72
   100
 73
     1
 74
     3
 75
     0
 76
     0
 77
     0
 78
     0
  0
ENDTAB
  0
TABLE
  2
LTYPE
  5
5
330
0
100
AcDbSymbolTable
 70
     1
  0
LTYPE
  5
14
330
5
100
AcDbSymbolTableRecord
100
AcDbLinetypeTableRecord
  2
BYBLOCK
 70
     0
  3

 72
    65
 73
     0
 40
0.0
  0
LTYPE
  5
15
330
5
100
AcDbSymbolTableRecord
100
AcDbLinetypeTableRecord
  2
BYLAYER
 70
     0
  3

 72
    65
 73
     0
 40
0.0
  0
LTYPE
  5
16
330
5
100
AcDbSymbolTableRecord
100
AcDbLinetypeTableRecord
  2
CONTINUOUS
 70
     0
  3
Solid line
 72
    65
 73
     0
 40
0.0
  0
ENDTAB
  0
TABLE
  2
LAYER
  5
2
330
0
100
AcDbSymbolTable
 70
     3
  0
LAYER
  5
10
330
2
100
AcDbSymbolTableRecord
100
AcDbLayerTableRecord
  2
0
 70
     0
 62
     7
  6
CONTINUOUS
  0
LAYER
  5
6E
330
2
100
AcDbSymbolTableRecord
100
AcDbLayerTableRecord
  2
PROFILEEDGES
 70
     0
 62
     7
  6
CONTINUOUS
  0
LAYER
  5
6F
330
2
100
AcDbSymbolTableRecord
100
AcDbLayerTableRecord
  2
SECTIONCUTEDGES
 70
     0
 62
     7
  6
CONTINUOUS
  0
ENDTAB
  0
TABLE
  2
STYLE
  5
3
330
0
100
AcDbSymbolTable
 70
     2
  0
STYLE
  5
11
330
3
100
AcDbSymbolTableRecord
100
AcDbTextStyleTableRecord
  2
STANDARD
 70
     0
 40
0.0
 41
1.0
 50
0.0
 71
     0
 42
0.2
  3
txt
  4

  0
STYLE
  5
374
330
3
100
AcDbSymbolTableRecord
100
AcDbTextStyleTableRecord
  2
TAHOMA
 70
     0
 40
0.0
 41
1.0
 50
0.0
 71
     0
 42
0.2
  3
Tahoma
  4

1001
ACAD
1000
Tahoma
1071
       34
  0
ENDTAB
  0
TABLE
  2
VIEW
  5
6
330
0
100
AcDbSymbolTable
 70
     0
  0
ENDTAB
  0
TABLE
  2
UCS
  5
7
330
0
100
AcDbSymbolTable
 70
     0
  0
ENDTAB
  0
TABLE
  2
APPID
  5
9
330
0
100
AcDbSymbolTable
 70
     2
  0
APPID
  5
12
330
9
100
AcDbSymbolTableRecord
100
AcDbRegAppTableRecord
  2
ACAD
 70
     0
  0
APPID
  5
3B6
330
9
100
AcDbSymbolTableRecord
100
AcDbRegAppTableRecord
  2
ACAD_MLEADERVER
 70
     0
  0
ENDTAB
  0
TABLE
  2
DIMSTYLE
  5
A
330
0
100
AcDbSymbolTable
 70
     1
  0
DIMSTYLE
105
27
330
A
100
AcDbSymbolTableRecord
100
AcDbDimStyleTableRecord
  2
STANDARD
 70
     0
  3

  4

  5

  6

  7

 40
1.0
 41
0.18
 42
0.0625
 43
0.38
 44
0.18
 45
0.0
 46
0.0
 47
0.0
 48
0.0
140
0.18
141
0.09
142
0.0
143
25.4
144
1.0
145
0.0
146
1.0
147
0.09
 71
     0
 72
     0
 73
     1
 74
     1
 75
     0
 76
     0
 77
     0
 78
     0
170
     0
171
     2
172
     0
173
     0
174
     0
175
     0
176
     0
177
     0
178
     0
270
     2
271
     4
272
     4
273
     2
274
     2
340
11
275
     0
280
     0
281
     0
282
     0
283
     1
284
     0
285
     0
286
     0
287
     3
288
     0
  0
ENDTAB
  0
TABLE
  2
BLOCK_RECORD
  5
1
330
0
100
AcDbSymbolTable
 70
     1
  0
BLOCK_RECORD
  5
1F
330
1
100
AcDbSymbolTableRecord
100
AcDbBlockTableRecord
  2
*MODEL_SPACE
  0
BLOCK_RECORD
  5
1B
330
1
100
AcDbSymbolTableRecord
100
AcDbBlockTableRecord
  2
*PAPER_SPACE
  0
ENDTAB
  0
ENDSEC
  0
SECTION
  2
BLOCKS
  0
BLOCK
  5
20
330
1F
100
AcDbEntity
  8
0
100
AcDbBlockBegin
  2
*MODEL_SPACE
 70
     0
 10
0.0
 20
0.0
 30
0.0
  3
*MODEL_SPACE
  1

  0
ENDBLK
  5
21
330
1F
100
AcDbEntity
  8
0
100
AcDbBlockEnd
  0
BLOCK
  5
1C
330
1B
100
AcDbEntity
 67
     1
  8
0
100
AcDbBlockBegin
  2
*PAPER_SPACE
 70
     0
 10
0.0
 20
0.0
 30
0.0
  3
*PAPER_SPACE
  1

  0
ENDBLK
  5
1D
330
1B
100
AcDbEntity
 67
     1
  8
0
100
AcDbBlockEnd
  0
ENDSEC
  0
SECTION
  2
ENTITIES
  0
LINE
  5
70
330
1F
100
AcDbEntity
  8
0
100
AcDbLine
 10
-8.970952508554833
 20
3.276072097569119
 30
0.0
 11
-2.299559533895363
 21
3.276072097569119
 31
0.0
  0
LINE
  5
71
330
1F
100
AcDbEntity
  8
0
100
AcDbLine
 10
-2.299559533895363
 20
3.276072097569119
 30
0.0
 11
-2.299559533895363
 21
2.711298089132338
 31
0.0
  0
LINE
  5
72
330
1F
100
AcDbEntity
  8
0
100
AcDbLine
 10
1.477366647525607
 20
3.276072097569119
 30
0.0
 11
1.477366647525607
 21
2.711298089132338
 31
0.0
  0
LINE
  5
73
330
1F
100
AcDbEntity
  8
0
100
AcDbLine
 10
1.477366647525607
 20
2.711298089132338
 30
0.0
 11
-2.299559533895363
 21
2.711298089132338
 31
0.0
  0
LINE
  5
74
330
1F
100
AcDbEntity
  8
0
100
AcDbLine
 10
8.148759622185079
 20
3.276072097569119
 30
0.0
 11
1.477366647525607
 21
3.276072097569119
 31
0.0
  0
LINE
  5
75
330
1F
100
AcDbEntity
  8
0
100
AcDbLine
 10
-8.970952508554833
 20
-4.065990012109029
 30
0.0
 11
8.148759622185079
 21
-4.065990012109029
 31
0.0
  0
LINE
  5
76
330
1F
100
AcDbEntity
  8
0
100
AcDbLine
 10
6.789772164384074
 20
2.901977223593838
 30
0.0
 11
6.811703763193792
 21
2.918805931250062
 31
0.0
  0
LINE
  5
77
330
1F
100
AcDbEntity
  8
0
100
AcDbLine
 10
6.811703763193792
 20
2.918805931250062
 30
0.0
 11
6.828532470850018
 21
2.94073753005978
 31
0.0
  0
LINE
  5
78
330
1F
100
AcDbEntity
  8
0
100
AcDbLine
 10
6.634537763449523
 20
2.966277417807791
 30
0.0
 11
6.645116731336235
 21
2.94073753005978
 31
0.0
  0
LINE
  5
79
330
1F
100
AcDbEntity
  8
0
100
AcDbLine
 10
6.828532470850018
 20
2.94073753005978
 30
0.0
 11
6.83911143873673
 21
2.966277417807791
 31
0.0
  0
LINE
  5
7A
330
1F
100
AcDbEntity
  8
0
100
AcDbLine
 10
6.683877037802178
 20
2.901977223593838
 30
0.0
 11
6.709416925550189
 21
2.891398255707125
 31
0.0
  0
LINE
  5
7B
330
1F
100
AcDbEntity
  8
0
100
AcDbLine
 10
6.63092947451123
 20
2.993685093350729
 30
0.0
 11
6.634537763449523
 21
2.966277417807791
 31
0.0
  0
LINE
  5
7C
330
1F
100
AcDbEntity
  8
0
100
AcDbLine
 10
6.66194543899246
 20
2.918805931250062
 30
0.0
 11
6.683877037802178
 21
2.901977223593838
 31
0.0
  0
LINE
  5
7D
330
1F
100
AcDbEntity
  8
0
100
AcDbLine
 10
6.645116731336235
 20
2.94073753005978
 30
0.0
 11
6.66194543899246
 21
2.918805931250062
 31
0.0
  0
LINE
  5
7E
330
1F
100
AcDbEntity
  8
0
100
AcDbLine
 10
6.709416925550189
 20
2.891398255707125
 30
0.0
 11
6.736824601093126
 21
2.887789966768832
 31
0.0
  0
LINE
  5
7F
330
1F
100
AcDbEntity
  8
0
100
AcDbLine
 10
6.736824601093126
 20
2.887789966768832
 30
0.0
 11
6.764232276636063
 21
2.891398255707125
 31
0.0
  0
LINE
  5
80
330
1F
100
AcDbEntity
  8
0
100
AcDbLine
 10
6.764232276636063
 20
2.891398255707125
 30
0.0
 11
6.789772164384074
 21
2.901977223593838
 31
0.0
  0
LINE
  5
81
330
1F
100
AcDbEntity
  8
0
100
AcDbLine
 10
6.811703763193792
 20
3.068564255451395
 30
0.0
 11
6.789772164384074
 21
3.08539296310762
 31
0.0
  0
LINE
  5
82
330
1F
100
AcDbEntity
  8
0
100
AcDbLine
 10
6.83911143873673
 20
2.966277417807791
 30
0.0
 11
6.842719727675022
 21
2.993685093350729
 31
0.0
  0
LINE
  5
83
330
1F
100
AcDbEntity
  8
0
100
AcDbLine
 10
6.634537763449523
 20
3.021092768893666
 30
0.0
 11
6.63092947451123
 21
2.993685093350729
 31
0.0
  0
LINE
  5
84
330
1F
100
AcDbEntity
  8
0
100
AcDbLine
 10
6.645116731336235
 20
3.046632656641677
 30
0.0
 11
6.634537763449523
 21
3.021092768893666
 31
0.0
  0
LINE
  5
85
330
1F
100
AcDbEntity
  8
0
100
AcDbLine
 10
6.709416925550189
 20
3.095971930994332
 30
0.0
 11
6.683877037802178
 21
3.08539296310762
 31
0.0
  0
LINE
  5
86
330
1F
100
AcDbEntity
  8
0
100
AcDbLine
 10
6.789772164384074
 20
3.08539296310762
 30
0.0
 11
6.764232276636063
 21
3.095971930994332
 31
0.0
  0
LINE
  5
87
330
1F
100
AcDbEntity
  8
0
100
AcDbLine
 10
6.736824601093126
 20
3.099580219932625
 30
0.0
 11
6.709416925550189
 21
3.095971930994332
 31
0.0
  0
LINE
  5
88
330
1F
100
AcDbEntity
  8
0
100
AcDbLine
 10
6.842719727675022
 20
2.993685093350729
 30
0.0
 11
6.83911143873673
 21
3.021092768893666
 31
0.0
  0
LINE
  5
89
330
1F
100
AcDbEntity
  8
0
100
AcDbLine
 10
6.764232276636063
 20
3.095971930994332
 30
0.0
 11
6.736824601093126
 21
3.099580219932625
 31
0.0
  0
LINE
  5
8A
330
1F
100
AcDbEntity
  8
0
100
AcDbLine
 10
6.828532470850018
 20
3.046632656641677
 30
0.0
 11
6.811703763193792
 21
3.068564255451395
 31
0.0
  0
LINE
  5
8B
330
1F
100
AcDbEntity
  8
0
100
AcDbLine
 10
6.66194543899246
 20
3.068564255451395
 30
0.0
 11
6.645116731336235
 21
3.046632656641677
 31
0.0
  0
LINE
  5
8C
330
1F
100
AcDbEntity
  8
0
100
AcDbLine
 10
6.83911143873673
 20
3.021092768893666
 30
0.0
 11
6.828532470850018
 21
3.046632656641677
 31
0.0
  0
LINE
  5
8D
330
1F
100
AcDbEntity
  8
0
100
AcDbLine
 10
6.683877037802178
 20
3.08539296310762
 30
0.0
 11
6.66194543899246
 21
3.068564255451395
 31
0.0
  0
LINE
  5
8E
330
1F
100
AcDbEntity
  8
0
100
AcDbLine
 10
3.807059432327327
 20
3.099580219932625
 30
0.0
 11
3.77965175678439
 21
3.095971930994332
 31
0.0
  0
LINE
  5
8F
330
1F
100
AcDbEntity
  8
0
100
AcDbLine
 10
3.77965175678439
 20
3.095971930994332
 30
0.0
 11
3.754111869036379
 21
3.08539296310762
 31
0.0
  0
LINE
  5
90
330
1F
100
AcDbEntity
  8
0
100
AcDbLine
 10
3.754111869036379
 20
3.08539296310762
 30
0.0
 11
3.73218027022666
 21
3.068564255451395
 31
0.0
  0
LINE
  5
91
330
1F
100
AcDbEntity
  8
0
100
AcDbLine
 10
3.73218027022666
 20
3.068564255451395
 30
0.0
 11
3.715351562570436
 21
3.046632656641677
 31
0.0
  0
LINE
  5
92
330
1F
100
AcDbEntity
  8
0
100
AcDbLine
 10
3.715351562570436
 20
3.046632656641677
 30
0.0
 11
3.704772594683723
 21
3.021092768893666
 31
0.0
  0
LINE
  5
93
330
1F
100
AcDbEntity
  8
0
100
AcDbLine
 10
3.704772594683723
 20
3.021092768893666
 30
0.0
 11
3.701164305745431
 21
2.993685093350729
 31
0.0
  0
LINE
  5
94
330
1F
100
AcDbEntity
  8
0
100
AcDbLine
 10
3.701164305745431
 20
2.993685093350729
 30
0.0
 11
3.704772594683723
 21
2.966277417807791
 31
0.0
  0
LINE
  5
95
330
1F
100
AcDbEntity
  8
0
100
AcDbLine
 10
3.704772594683723
 20
2.966277417807791
 30
0.0
 11
3.715351562570436
 21
2.94073753005978
 31
0.0
  0
LINE
  5
96
330
1F
100
AcDbEntity
  8
0
100
AcDbLine
 10
3.715351562570436
 20
2.94073753005978
 30
0.0
 11
3.73218027022666
 21
2.918805931250062
 31
0.0
  0
LINE
  5
97
330
1F
100
AcDbEntity
  8
0
100
AcDbLine
 10
3.73218027022666
 20
2.918805931250062
 30
0.0
 11
3.754111869036379
 21
2.901977223593838
 31
0.0
  0
LINE
  5
98
330
1F
100
AcDbEntity
  8
0
100
AcDbLine
 10
3.754111869036379
 20
2.901977223593838
 30
0.0
 11
3.77965175678439
 21
2.891398255707125
 31
0.0
  0
LINE
  5
99
330
1F
100
AcDbEntity
  8
0
100
AcDbLine
 10
3.77965175678439
 20
2.891398255707125
 30
0.0
 11
3.807059432327327
 21
2.887789966768832
 31
0.0
  0
LINE
  5
9A
330
1F
100
AcDbEntity
  8
0
100
AcDbLine
 10
3.807059432327327
 20
2.887789966768832
 30
0.0
 11
3.834467107870264
 21
2.891398255707125
 31
0.0
  0
LINE
  5
9B
330
1F
100
AcDbEntity
  8
0
100
AcDbLine
 10
3.834467107870264
 20
2.891398255707125
 30
0.0
 11
3.860006995618275
 21
2.901977223593838
 31
0.0
  0
LINE
  5
9C
330
1F
100
AcDbEntity
  8
0
100
AcDbLine
 10
3.860006995618275
 20
2.901977223593838
 30
0.0
 11
3.881938594427994
 21
2.918805931250062
 31
0.0
  0
LINE
  5
9D
330
1F
100
AcDbEntity
  8
0
100
AcDbLine
 10
3.881938594427994
 20
2.918805931250062
 30
0.0
 11
3.898767302084218
 21
2.94073753005978
 31
0.0
  0
LINE
  5
9E
330
1F
100
AcDbEntity
  8
0
100
AcDbLine
 10
3.898767302084218
 20
2.94073753005978
 30
0.0
 11
3.90934626997093
 21
2.966277417807791
 31
0.0
  0
LINE
  5
9F
330
1F
100
AcDbEntity
  8
0
100
AcDbLine
 10
3.90934626997093
 20
2.966277417807791
 30
0.0
 11
3.912954558909223
 21
2.993685093350729
 31
0.0
  0
LINE
  5
A0
330
1F
100
AcDbEntity
  8
0
100
AcDbLine
 10
3.912954558909223
 20
2.993685093350729
 30
0.0
 11
3.90934626997093
 21
3.021092768893666
 31
0.0
  0
LINE
  5
A1
330
1F
100
AcDbEntity
  8
0
100
AcDbLine
 10
3.90934626997093
 20
3.021092768893666
 30
0.0
 11
3.898767302084218
 21
3.046632656641677
 31
0.0
  0
LINE
  5
A2
330
1F
100
AcDbEntity
  8
0
100
AcDbLine
 10
3.898767302084218
 20
3.046632656641677
 30
0.0
 11
3.881938594427994
 21
3.068564255451395
 31
0.0
  0
LINE
  5
A3
330
1F
100
AcDbEntity
  8
0
100
AcDbLine
 10
3.881938594427994
 20
3.068564255451395
 30
0.0
 11
3.860006995618275
 21
3.08539296310762
 31
0.0
  0
LINE
  5
A4
330
1F
100
AcDbEntity
  8
0
100
AcDbLine
 10
3.860006995618275
 20
3.08539296310762
 30
0.0
 11
3.834467107870264
 21
3.095971930994332
 31
0.0
  0
LINE
  5
A5
330
1F
100
AcDbEntity
  8
0
100
AcDbLine
 10
3.834467107870264
 20
3.095971930994332
 30
0.0
 11
3.807059432327327
 21
3.099580219932625
 31
0.0
  0
LINE
  5
A6
330
1F
100
AcDbEntity
  8
0
100
AcDbLine
 10
1.830350402798594
 20
3.099580219932625
 30
0.0
 11
1.802942727255657
 21
3.095971930994332
 31
0.0
  0
LINE
  5
A7
330
1F
100
AcDbEntity
  8
0
100
AcDbLine
 10
1.802942727255657
 20
3.095971930994332
 30
0.0
 11
1.777402839507648
 21
3.08539296310762
 31
0.0
  0
LINE
  5
A8
330
1F
100
AcDbEntity
  8
0
100
AcDbLine
 10
1.777402839507648
 20
3.08539296310762
 30
0.0
 11
1.755471240697928
 21
3.068564255451395
 31
0.0
  0
LINE
  5
A9
330
1F
100
AcDbEntity
  8
0
100
AcDbLine
 10
1.755471240697928
 20
3.068564255451395
 30
0.0
 11
1.738642533041705
 21
3.046632656641677
 31
0.0
  0
LINE
  5
AA
330
1F
100
AcDbEntity
  8
0
100
AcDbLine
 10
1.738642533041705
 20
3.046632656641677
 30
0.0
 11
1.728063565154992
 21
3.021092768893666
 31
0.0
  0
LINE
  5
AB
330
1F
100
AcDbEntity
  8
0
100
AcDbLine
 10
1.728063565154992
 20
3.021092768893666
 30
0.0
 11
1.724455276216699
 21
2.993685093350729
 31
0.0
  0
LINE
  5
AC
330
1F
100
AcDbEntity
  8
0
100
AcDbLine
 10
1.724455276216699
 20
2.993685093350729
 30
0.0
 11
1.728063565154992
 21
2.966277417807791
 31
0.0
  0
LINE
  5
AD
330
1F
100
AcDbEntity
  8
0
100
AcDbLine
 10
1.728063565154992
 20
2.966277417807791
 30
0.0
 11
1.738642533041705
 21
2.94073753005978
 31
0.0
  0
LINE
  5
AE
330
1F
100
AcDbEntity
  8
0
100
AcDbLine
 10
1.738642533041705
 20
2.94073753005978
 30
0.0
 11
1.755471240697928
 21
2.918805931250062
 31
0.0
  0
LINE
  5
AF
330
1F
100
AcDbEntity
  8
0
100
AcDbLine
 10
1.755471240697928
 20
2.918805931250062
 30
0.0
 11
1.777402839507648
 21
2.901977223593838
 31
0.0
  0
LINE
  5
B0
330
1F
100
AcDbEntity
  8
0
100
AcDbLine
 10
1.777402839507648
 20
2.901977223593838
 30
0.0
 11
1.802942727255657
 21
2.891398255707125
 31
0.0
  0
LINE
  5
B1
330
1F
100
AcDbEntity
  8
0
100
AcDbLine
 10
1.802942727255657
 20
2.891398255707125
 30
0.0
 11
1.830350402798594
 21
2.887789966768832
 31
0.0
  0
LINE
  5
B2
330
1F
100
AcDbEntity
  8
0
100
AcDbLine
 10
1.830350402798594
 20
2.887789966768832
 30
0.0
 11
1.857758078341532
 21
2.891398255707125
 31
0.0
  0
LINE
  5
B3
330
1F
100
AcDbEntity
  8
0
100
AcDbLine
 10
1.857758078341532
 20
2.891398255707125
 30
0.0
 11
1.883297966089543
 21
2.901977223593838
 31
0.0
  0
LINE
  5
B4
330
1F
100
AcDbEntity
  8
0
100
AcDbLine
 10
1.883297966089543
 20
2.901977223593838
 30
0.0
 11
1.905229564899261
 21
2.918805931250062
 31
0.0
  0
LINE
  5
B5
330
1F
100
AcDbEntity
  8
0
100
AcDbLine
 10
1.905229564899261
 20
2.918805931250062
 30
0.0
 11
1.922058272555486
 21
2.94073753005978
 31
0.0
  0
LINE
  5
B6
330
1F
100
AcDbEntity
  8
0
100
AcDbLine
 10
1.922058272555486
 20
2.94073753005978
 30
0.0
 11
1.932637240442198
 21
2.966277417807791
 31
0.0
  0
LINE
  5
B7
330
1F
100
AcDbEntity
  8
0
100
AcDbLine
 10
1.932637240442198
 20
2.966277417807791
 30
0.0
 11
1.936245529380491
 21
2.993685093350729
 31
0.0
  0
LINE
  5
B8
330
1F
100
AcDbEntity
  8
0
100
AcDbLine
 10
1.936245529380491
 20
2.993685093350729
 30
0.0
 11
1.932637240442198
 21
3.021092768893666
 31
0.0
  0
LINE
  5
B9
330
1F
100
AcDbEntity
  8
0
100
AcDbLine
 10
1.932637240442198
 20
3.021092768893666
 30
0.0
 11
1.922058272555486
 21
3.046632656641677
 31
0.0
  0
LINE
  5
BA
330
1F
100
AcDbEntity
  8
0
100
AcDbLine
 10
1.922058272555486
 20
3.046632656641677
 30
0.0
 11
1.905229564899261
 21
3.068564255451395
 31
0.0
  0
LINE
  5
BB
330
1F
100
AcDbEntity
  8
0
100
AcDbLine
 10
1.905229564899261
 20
3.068564255451395
 30
0.0
 11
1.883297966089543
 21
3.08539296310762
 31
0.0
  0
LINE
  5
BC
330
1F
100
AcDbEntity
  8
0
100
AcDbLine
 10
1.883297966089543
 20
3.08539296310762
 30
0.0
 11
1.857758078341532
 21
3.095971930994332
 31
0.0
  0
LINE
  5
BD
330
1F
100
AcDbEntity
  8
0
100
AcDbLine
 10
1.857758078341532
 20
3.095971930994332
 30
0.0
 11
1.830350402798594
 21
3.099580219932625
 31
0.0
  0
LINE
  5
BE
330
1F
100
AcDbEntity
  8
0
100
AcDbLine
 10
-7.453122360880984
 20
3.099580219932625
 30
0.0
 11
-7.480530036423922
 21
3.095971930994332
 31
0.0
  0
LINE
  5
BF
330
1F
100
AcDbEntity
  8
0
100
AcDbLine
 10
-7.480530036423922
 20
3.095971930994332
 30
0.0
 11
-7.506069924171933
 21
3.08539296310762
 31
0.0
  0
LINE
  5
C0
330
1F
100
AcDbEntity
  8
0
100
AcDbLine
 10
-7.506069924171933
 20
3.08539296310762
 30
0.0
 11
-7.528001522981651
 21
3.068564255451395
 31
0.0
  0
LINE
  5
C1
330
1F
100
AcDbEntity
  8
0
100
AcDbLine
 10
-7.528001522981651
 20
3.068564255451395
 30
0.0
 11
-7.544830230637875
 21
3.046632656641677
 31
0.0
  0
LINE
  5
C2
330
1F
100
AcDbEntity
  8
0
100
AcDbLine
 10
-7.544830230637875
 20
3.046632656641677
 30
0.0
 11
-7.555409198524588
 21
3.021092768893666
 31
0.0
  0
LINE
  5
C3
330
1F
100
AcDbEntity
  8
0
100
AcDbLine
 10
-7.555409198524588
 20
3.021092768893666
 30
0.0
 11
-7.559017487462881
 21
2.993685093350729
 31
0.0
  0
LINE
  5
C4
330
1F
100
AcDbEntity
  8
0
100
AcDbLine
 10
-7.559017487462881
 20
2.993685093350729
 30
0.0
 11
-7.555409198524588
 21
2.966277417807791
 31
0.0
  0
LINE
  5
C5
330
1F
100
AcDbEntity
  8
0
100
AcDbLine
 10
-7.555409198524588
 20
2.966277417807791
 30
0.0
 11
-7.544830230637875
 21
2.94073753005978
 31
0.0
  0
LINE
  5
C6
330
1F
100
AcDbEntity
  8
0
100
AcDbLine
 10
-7.544830230637875
 20
2.94073753005978
 30
0.0
 11
-7.528001522981651
 21
2.918805931250062
 31
0.0
  0
LINE
  5
C7
330
1F
100
AcDbEntity
  8
0
100
AcDbLine
 10
-7.528001522981651
 20
2.918805931250062
 30
0.0
 11
-7.506069924171933
 21
2.901977223593838
 31
0.0
  0
LINE
  5
C8
330
1F
100
AcDbEntity
  8
0
100
AcDbLine
 10
-7.506069924171933
 20
2.901977223593838
 30
0.0
 11
-7.480530036423922
 21
2.891398255707125
 31
0.0
  0
LINE
  5
C9
330
1F
100
AcDbEntity
  8
0
100
AcDbLine
 10
-7.480530036423922
 20
2.891398255707125
 30
0.0
 11
-7.453122360880984
 21
2.887789966768832
 31
0.0
  0
LINE
  5
CA
330
1F
100
AcDbEntity
  8
0
100
AcDbLine
 10
-7.453122360880984
 20
2.887789966768832
 30
0.0
 11
-7.425714685338047
 21
2.891398255707125
 31
0.0
  0
LINE
  5
CB
330
1F
100
AcDbEntity
  8
0
100
AcDbLine
 10
-7.425714685338047
 20
2.891398255707125
 30
0.0
 11
-7.400174797590036
 21
2.901977223593838
 31
0.0
  0
LINE
  5
CC
330
1F
100
AcDbEntity
  8
0
100
AcDbLine
 10
-7.400174797590036
 20
2.901977223593838
 30
0.0
 11
-7.378243198780318
 21
2.918805931250062
 31
0.0
  0
LINE
  5
CD
330
1F
100
AcDbEntity
  8
0
100
AcDbLine
 10
-7.378243198780318
 20
2.918805931250062
 30
0.0
 11
-7.361414491124093
 21
2.94073753005978
 31
0.0
  0
LINE
  5
CE
330
1F
100
AcDbEntity
  8
0
100
AcDbLine
 10
-7.361414491124093
 20
2.94073753005978
 30
0.0
 11
-7.350835523237381
 21
2.966277417807791
 31
0.0
  0
LINE
  5
CF
330
1F
100
AcDbEntity
  8
0
100
AcDbLine
 10
-7.350835523237381
 20
2.966277417807791
 30
0.0
 11
-7.347227234299088
 21
2.993685093350729
 31
0.0
  0
LINE
  5
D0
330
1F
100
AcDbEntity
  8
0
100
AcDbLine
 10
-7.347227234299088
 20
2.993685093350729
 30
0.0
 11
-7.350835523237381
 21
3.021092768893666
 31
0.0
  0
LINE
  5
D1
330
1F
100
AcDbEntity
  8
0
100
AcDbLine
 10
-7.350835523237381
 20
3.021092768893666
 30
0.0
 11
-7.361414491124093
 21
3.046632656641677
 31
0.0
  0
LINE
  5
D2
330
1F
100
AcDbEntity
  8
0
100
AcDbLine
 10
-7.361414491124093
 20
3.046632656641677
 30
0.0
 11
-7.378243198780318
 21
3.068564255451395
 31
0.0
  0
LINE
  5
D3
330
1F
100
AcDbEntity
  8
0
100
AcDbLine
 10
-7.378243198780318
 20
3.068564255451395
 30
0.0
 11
-7.400174797590036
 21
3.08539296310762
 31
0.0
  0
LINE
  5
D4
330
1F
100
AcDbEntity
  8
0
100
AcDbLine
 10
-7.400174797590036
 20
3.08539296310762
 30
0.0
 11
-7.425714685338047
 21
3.095971930994332
 31
0.0
  0
LINE
  5
D5
330
1F
100
AcDbEntity
  8
0
100
AcDbLine
 10
-7.425714685338047
 20
3.095971930994332
 30
0.0
 11
-7.453122360880984
 21
3.099580219932625
 31
0.0
  0
LINE
  5
D6
330
1F
100
AcDbEntity
  8
0
100
AcDbLine
 10
-4.629252318697083
 20
3.099580219932625
 30
0.0
 11
-4.65665999424002
 21
3.095971930994332
 31
0.0
  0
LINE
  5
D7
330
1F
100
AcDbEntity
  8
0
100
AcDbLine
 10
-4.65665999424002
 20
3.095971930994332
 30
0.0
 11
-4.682199881988032
 21
3.08539296310762
 31
0.0
  0
LINE
  5
D8
330
1F
100
AcDbEntity
  8
0
100
AcDbLine
 10
-4.682199881988032
 20
3.08539296310762
 30
0.0
 11
-4.70413148079775
 21
3.068564255451395
 31
0.0
  0
LINE
  5
D9
330
1F
100
AcDbEntity
  8
0
100
AcDbLine
 10
-4.70413148079775
 20
3.068564255451395
 30
0.0
 11
-4.720960188453974
 21
3.046632656641677
 31
0.0
  0
LINE
  5
DA
330
1F
100
AcDbEntity
  8
0
100
AcDbLine
 10
-4.720960188453974
 20
3.046632656641677
 30
0.0
 11
-4.731539156340687
 21
3.021092768893666
 31
0.0
  0
LINE
  5
DB
330
1F
100
AcDbEntity
  8
0
100
AcDbLine
 10
-4.731539156340687
 20
3.021092768893666
 30
0.0
 11
-4.735147445278979
 21
2.993685093350729
 31
0.0
  0
LINE
  5
DC
330
1F
100
AcDbEntity
  8
0
100
AcDbLine
 10
-4.735147445278979
 20
2.993685093350729
 30
0.0
 11
-4.731539156340687
 21
2.966277417807791
 31
0.0
  0
LINE
  5
DD
330
1F
100
AcDbEntity
  8
0
100
AcDbLine
 10
-4.731539156340687
 20
2.966277417807791
 30
0.0
 11
-4.720960188453974
 21
2.94073753005978
 31
0.0
  0
LINE
  5
DE
330
1F
100
AcDbEntity
  8
0
100
AcDbLine
 10
-4.720960188453974
 20
2.94073753005978
 30
0.0
 11
-4.70413148079775
 21
2.918805931250062
 31
0.0
  0
LINE
  5
DF
330
1F
100
AcDbEntity
  8
0
100
AcDbLine
 10
-4.70413148079775
 20
2.918805931250062
 30
0.0
 11
-4.682199881988032
 21
2.901977223593838
 31
0.0
  0
LINE
  5
E0
330
1F
100
AcDbEntity
  8
0
100
AcDbLine
 10
-4.682199881988032
 20
2.901977223593838
 30
0.0
 11
-4.65665999424002
 21
2.891398255707125
 31
0.0
  0
LINE
  5
E1
330
1F
100
AcDbEntity
  8
0
100
AcDbLine
 10
-4.65665999424002
 20
2.891398255707125
 30
0.0
 11
-4.629252318697083
 21
2.887789966768832
 31
0.0
  0
LINE
  5
E2
330
1F
100
AcDbEntity
  8
0
100
AcDbLine
 10
-4.629252318697083
 20
2.887789966768832
 30
0.0
 11
-4.601844643154147
 21
2.891398255707125
 31
0.0
  0
LINE
  5
E3
330
1F
100
AcDbEntity
  8
0
100
AcDbLine
 10
-4.601844643154147
 20
2.891398255707125
 30
0.0
 11
-4.576304755406135
 21
2.901977223593838
 31
0.0
  0
LINE
  5
E4
330
1F
100
AcDbEntity
  8
0
100
AcDbLine
 10
-4.576304755406135
 20
2.901977223593838
 30
0.0
 11
-4.554373156596417
 21
2.918805931250062
 31
0.0
  0
LINE
  5
E5
330
1F
100
AcDbEntity
  8
0
100
AcDbLine
 10
-4.554373156596417
 20
2.918805931250062
 30
0.0
 11
-4.537544448940192
 21
2.94073753005978
 31
0.0
  0
LINE
  5
E6
330
1F
100
AcDbEntity
  8
0
100
AcDbLine
 10
-4.537544448940192
 20
2.94073753005978
 30
0.0
 11
-4.52696548105348
 21
2.966277417807791
 31
0.0
  0
LINE
  5
E7
330
1F
100
AcDbEntity
  8
0
100
AcDbLine
 10
-4.52696548105348
 20
2.966277417807791
 30
0.0
 11
-4.523357192115187
 21
2.993685093350729
 31
0.0
  0
LINE
  5
E8
330
1F
100
AcDbEntity
  8
0
100
AcDbLine
 10
-4.523357192115187
 20
2.993685093350729
 30
0.0
 11
-4.52696548105348
 21
3.021092768893666
 31
0.0
  0
LINE
  5
E9
330
1F
100
AcDbEntity
  8
0
100
AcDbLine
 10
-4.52696548105348
 20
3.021092768893666
 30
0.0
 11
-4.537544448940192
 21
3.046632656641677
 31
0.0
  0
LINE
  5
EA
330
1F
100
AcDbEntity
  8
0
100
AcDbLine
 10
-4.537544448940192
 20
3.046632656641677
 30
0.0
 11
-4.554373156596417
 21
3.068564255451395
 31
0.0
  0
LINE
  5
EB
330
1F
100
AcDbEntity
  8
0
100
AcDbLine
 10
-4.554373156596417
 20
3.068564255451395
 30
0.0
 11
-4.576304755406135
 21
3.08539296310762
 31
0.0
  0
LINE
  5
EC
330
1F
100
AcDbEntity
  8
0
100
AcDbLine
 10
-4.576304755406135
 20
3.08539296310762
 30
0.0
 11
-4.601844643154147
 21
3.095971930994332
 31
0.0
  0
LINE
  5
ED
330
1F
100
AcDbEntity
  8
0
100
AcDbLine
 10
-4.601844643154147
 20
3.095971930994332
 30
0.0
 11
-4.629252318697083
 21
3.099580219932625
 31
0.0
  0
LINE
  5
EE
330
1F
100
AcDbEntity
  8
0
100
AcDbLine
 10
-2.652543289168349
 20
3.099580219932625
 30
0.0
 11
-2.679950964711286
 21
3.095971930994332
 31
0.0
  0
LINE
  5
EF
330
1F
100
AcDbEntity
  8
0
100
AcDbLine
 10
-2.679950964711286
 20
3.095971930994332
 30
0.0
 11
-2.705490852459298
 21
3.08539296310762
 31
0.0
  0
LINE
  5
F0
330
1F
100
AcDbEntity
  8
0
100
AcDbLine
 10
-2.705490852459298
 20
3.08539296310762
 30
0.0
 11
-2.727422451269016
 21
3.068564255451395
 31
0.0
  0
LINE
  5
F1
330
1F
100
AcDbEntity
  8
0
100
AcDbLine
 10
-2.727422451269016
 20
3.068564255451395
 30
0.0
 11
-2.74425115892524
 21
3.046632656641677
 31
0.0
  0
LINE
  5
F2
330
1F
100
AcDbEntity
  8
0
100
AcDbLine
 10
-2.74425115892524
 20
3.046632656641677
 30
0.0
 11
-2.754830126811953
 21
3.021092768893666
 31
0.0
  0
LINE
  5
F3
330
1F
100
AcDbEntity
  8
0
100
AcDbLine
 10
-2.754830126811953
 20
3.021092768893666
 30
0.0
 11
-2.758438415750246
 21
2.993685093350729
 31
0.0
  0
LINE
  5
F4
330
1F
100
AcDbEntity
  8
0
100
AcDbLine
 10
-2.758438415750246
 20
2.993685093350729
 30
0.0
 11
-2.754830126811953
 21
2.966277417807791
 31
0.0
  0
LINE
  5
F5
330
1F
100
AcDbEntity
  8
0
100
AcDbLine
 10
-2.754830126811953
 20
2.966277417807791
 30
0.0
 11
-2.74425115892524
 21
2.94073753005978
 31
0.0
  0
LINE
  5
F6
330
1F
100
AcDbEntity
  8
0
100
AcDbLine
 10
-2.74425115892524
 20
2.94073753005978
 30
0.0
 11
-2.727422451269016
 21
2.918805931250062
 31
0.0
  0
LINE
  5
F7
330
1F
100
AcDbEntity
  8
0
100
AcDbLine
 10
-2.727422451269016
 20
2.918805931250062
 30
0.0
 11
-2.705490852459298
 21
2.901977223593838
 31
0.0
  0
LINE
  5
F8
330
1F
100
AcDbEntity
  8
0
100
AcDbLine
 10
-2.705490852459298
 20
2.901977223593838
 30
0.0
 11
-2.679950964711286
 21
2.891398255707125
 31
0.0
  0
LINE
  5
F9
330
1F
100
AcDbEntity
  8
0
100
AcDbLine
 10
-2.679950964711286
 20
2.891398255707125
 30
0.0
 11
-2.652543289168349
 21
2.887789966768832
 31
0.0
  0
LINE
  5
FA
330
1F
100
AcDbEntity
  8
0
100
AcDbLine
 10
-2.652543289168349
 20
2.887789966768832
 30
0.0
 11
-2.625135613625412
 21
2.891398255707125
 31
0.0
  0
LINE
  5
FB
330
1F
100
AcDbEntity
  8
0
100
AcDbLine
 10
-2.625135613625412
 20
2.891398255707125
 30
0.0
 11
-2.599595725877402
 21
2.901977223593838
 31
0.0
  0
LINE
  5
FC
330
1F
100
AcDbEntity
  8
0
100
AcDbLine
 10
-2.599595725877402
 20
2.901977223593838
 30
0.0
 11
-2.577664127067683
 21
2.918805931250062
 31
0.0
  0
LINE
  5
FD
330
1F
100
AcDbEntity
  8
0
100
AcDbLine
 10
-2.577664127067683
 20
2.918805931250062
 30
0.0
 11
-2.560835419411459
 21
2.94073753005978
 31
0.0
  0
LINE
  5
FE
330
1F
100
AcDbEntity
  8
0
100
AcDbLine
 10
-2.560835419411459
 20
2.94073753005978
 30
0.0
 11
-2.550256451524747
 21
2.966277417807791
 31
0.0
  0
LINE
  5
FF
330
1F
100
AcDbEntity
  8
0
100
AcDbLine
 10
-2.550256451524747
 20
2.966277417807791
 30
0.0
 11
-2.546648162586454
 21
2.993685093350729
 31
0.0
  0
LINE
  5
100
330
1F
100
AcDbEntity
  8
0
100
AcDbLine
 10
-2.546648162586454
 20
2.993685093350729
 30
0.0
 11
-2.550256451524747
 21
3.021092768893666
 31
0.0
  0
LINE
  5
101
330
1F
100
AcDbEntity
  8
0
100
AcDbLine
 10
-2.550256451524747
 20
3.021092768893666
 30
0.0
 11
-2.560835419411459
 21
3.046632656641677
 31
0.0
  0
LINE
  5
102
330
1F
100
AcDbEntity
  8
0
100
AcDbLine
 10
-2.560835419411459
 20
3.046632656641677
 30
0.0
 11
-2.577664127067683
 21
3.068564255451395
 31
0.0
  0
LINE
  5
103
330
1F
100
AcDbEntity
  8
0
100
AcDbLine
 10
-2.577664127067683
 20
3.068564255451395
 30
0.0
 11
-2.599595725877402
 21
3.08539296310762
 31
0.0
  0
LINE
  5
104
330
1F
100
AcDbEntity
  8
0
100
AcDbLine
 10
-2.599595725877402
 20
3.08539296310762
 30
0.0
 11
-2.625135613625412
 21
3.095971930994332
 31
0.0
  0
LINE
  5
105
330
1F
100
AcDbEntity
  8
0
100
AcDbLine
 10
-2.625135613625412
 20
3.095971930994332
 30
0.0
 11
-2.652543289168349
 21
3.099580219932625
 31
0.0
  0
LINE
  5
106
330
1F
100
AcDbEntity
  8
0
100
AcDbLine
 10
6.736824601093126
 20
-3.677707881308742
 30
0.0
 11
6.709416925550189
 21
-3.681316170247035
 31
0.0
  0
LINE
  5
107
330
1F
100
AcDbEntity
  8
0
100
AcDbLine
 10
6.709416925550189
 20
-3.681316170247035
 30
0.0
 11
6.683877037802178
 21
-3.691895138133748
 31
0.0
  0
LINE
  5
108
330
1F
100
AcDbEntity
  8
0
100
AcDbLine
 10
6.683877037802178
 20
-3.691895138133748
 30
0.0
 11
6.66194543899246
 21
-3.708723845789972
 31
0.0
  0
LINE
  5
109
330
1F
100
AcDbEntity
  8
0
100
AcDbLine
 10
6.66194543899246
 20
-3.708723845789972
 30
0.0
 11
6.645116731336235
 21
-3.73065544459969
 31
0.0
  0
LINE
  5
10A
330
1F
100
AcDbEntity
  8
0
100
AcDbLine
 10
6.645116731336235
 20
-3.73065544459969
 30
0.0
 11
6.634537763449523
 21
-3.756195332347702
 31
0.0
  0
LINE
  5
10B
330
1F
100
AcDbEntity
  8
0
100
AcDbLine
 10
6.634537763449523
 20
-3.756195332347702
 30
0.0
 11
6.63092947451123
 21
-3.783603007890639
 31
0.0
  0
LINE
  5
10C
330
1F
100
AcDbEntity
  8
0
100
AcDbLine
 10
6.63092947451123
 20
-3.783603007890639
 30
0.0
 11
6.634537763449523
 21
-3.811010683433576
 31
0.0
  0
LINE
  5
10D
330
1F
100
AcDbEntity
  8
0
100
AcDbLine
 10
6.634537763449523
 20
-3.811010683433576
 30
0.0
 11
6.645116731336235
 21
-3.836550571181587
 31
0.0
  0
LINE
  5
10E
330
1F
100
AcDbEntity
  8
0
100
AcDbLine
 10
6.645116731336235
 20
-3.836550571181587
 30
0.0
 11
6.66194543899246
 21
-3.858482169991305
 31
0.0
  0
LINE
  5
10F
330
1F
100
AcDbEntity
  8
0
100
AcDbLine
 10
6.66194543899246
 20
-3.858482169991305
 30
0.0
 11
6.683877037802178
 21
-3.87531087764753
 31
0.0
  0
LINE
  5
110
330
1F
100
AcDbEntity
  8
0
100
AcDbLine
 10
6.683877037802178
 20
-3.87531087764753
 30
0.0
 11
6.709416925550189
 21
-3.885889845534242
 31
0.0
  0
LINE
  5
111
330
1F
100
AcDbEntity
  8
0
100
AcDbLine
 10
6.709416925550189
 20
-3.885889845534242
 30
0.0
 11
6.736824601093126
 21
-3.889498134472535
 31
0.0
  0
LINE
  5
112
330
1F
100
AcDbEntity
  8
0
100
AcDbLine
 10
6.736824601093126
 20
-3.889498134472535
 30
0.0
 11
6.764232276636063
 21
-3.885889845534242
 31
0.0
  0
LINE
  5
113
330
1F
100
AcDbEntity
  8
0
100
AcDbLine
 10
6.764232276636063
 20
-3.885889845534242
 30
0.0
 11
6.789772164384074
 21
-3.87531087764753
 31
0.0
  0
LINE
  5
114
330
1F
100
AcDbEntity
  8
0
100
AcDbLine
 10
6.789772164384074
 20
-3.87531087764753
 30
0.0
 11
6.811703763193792
 21
-3.858482169991305
 31
0.0
  0
LINE
  5
115
330
1F
100
AcDbEntity
  8
0
100
AcDbLine
 10
6.811703763193792
 20
-3.858482169991305
 30
0.0
 11
6.828532470850018
 21
-3.836550571181587
 31
0.0
  0
LINE
  5
116
330
1F
100
AcDbEntity
  8
0
100
AcDbLine
 10
6.828532470850018
 20
-3.836550571181587
 30
0.0
 11
6.83911143873673
 21
-3.811010683433576
 31
0.0
  0
LINE
  5
117
330
1F
100
AcDbEntity
  8
0
100
AcDbLine
 10
6.83911143873673
 20
-3.811010683433576
 30
0.0
 11
6.842719727675022
 21
-3.783603007890639
 31
0.0
  0
LINE
  5
118
330
1F
100
AcDbEntity
  8
0
100
AcDbLine
 10
6.842719727675022
 20
-3.783603007890639
 30
0.0
 11
6.83911143873673
 21
-3.756195332347702
 31
0.0
  0
LINE
  5
119
330
1F
100
AcDbEntity
  8
0
100
AcDbLine
 10
6.83911143873673
 20
-3.756195332347702
 30
0.0
 11
6.828532470850018
 21
-3.73065544459969
 31
0.0
  0
LINE
  5
11A
330
1F
100
AcDbEntity
  8
0
100
AcDbLine
 10
6.828532470850018
 20
-3.73065544459969
 30
0.0
 11
6.811703763193792
 21
-3.708723845789972
 31
0.0
  0
LINE
  5
11B
330
1F
100
AcDbEntity
  8
0
100
AcDbLine
 10
6.811703763193792
 20
-3.708723845789972
 30
0.0
 11
6.789772164384074
 21
-3.691895138133748
 31
0.0
  0
LINE
  5
11C
330
1F
100
AcDbEntity
  8
0
100
AcDbLine
 10
6.789772164384074
 20
-3.691895138133748
 30
0.0
 11
6.764232276636063
 21
-3.681316170247035
 31
0.0
  0
LINE
  5
11D
330
1F
100
AcDbEntity
  8
0
100
AcDbLine
 10
6.764232276636063
 20
-3.681316170247035
 30
0.0
 11
6.736824601093126
 21
-3.677707881308742
 31
0.0
  0
LINE
  5
11E
330
1F
100
AcDbEntity
  8
0
100
AcDbLine
 10
3.807059432327327
 20
-3.677707881308742
 30
0.0
 11
3.77965175678439
 21
-3.681316170247035
 31
0.0
  0
LINE
  5
11F
330
1F
100
AcDbEntity
  8
0
100
AcDbLine
 10
3.77965175678439
 20
-3.681316170247035
 30
0.0
 11
3.754111869036379
 21
-3.691895138133748
 31
0.0
  0
LINE
  5
120
330
1F
100
AcDbEntity
  8
0
100
AcDbLine
 10
3.754111869036379
 20
-3.691895138133748
 30
0.0
 11
3.73218027022666
 21
-3.708723845789972
 31
0.0
  0
LINE
  5
121
330
1F
100
AcDbEntity
  8
0
100
AcDbLine
 10
3.73218027022666
 20
-3.708723845789972
 30
0.0
 11
3.715351562570436
 21
-3.73065544459969
 31
0.0
  0
LINE
  5
122
330
1F
100
AcDbEntity
  8
0
100
AcDbLine
 10
3.715351562570436
 20
-3.73065544459969
 30
0.0
 11
3.704772594683723
 21
-3.756195332347702
 31
0.0
  0
LINE
  5
123
330
1F
100
AcDbEntity
  8
0
100
AcDbLine
 10
3.704772594683723
 20
-3.756195332347702
 30
0.0
 11
3.701164305745431
 21
-3.783603007890639
 31
0.0
  0
LINE
  5
124
330
1F
100
AcDbEntity
  8
0
100
AcDbLine
 10
3.701164305745431
 20
-3.783603007890639
 30
0.0
 11
3.704772594683723
 21
-3.811010683433576
 31
0.0
  0
LINE
  5
125
330
1F
100
AcDbEntity
  8
0
100
AcDbLine
 10
3.704772594683723
 20
-3.811010683433576
 30
0.0
 11
3.715351562570436
 21
-3.836550571181587
 31
0.0
  0
LINE
  5
126
330
1F
100
AcDbEntity
  8
0
100
AcDbLine
 10
3.715351562570436
 20
-3.836550571181587
 30
0.0
 11
3.73218027022666
 21
-3.858482169991305
 31
0.0
  0
LINE
  5
127
330
1F
100
AcDbEntity
  8
0
100
AcDbLine
 10
3.73218027022666
 20
-3.858482169991305
 30
0.0
 11
3.754111869036379
 21
-3.87531087764753
 31
0.0
  0
LINE
  5
128
330
1F
100
AcDbEntity
  8
0
100
AcDbLine
 10
3.754111869036379
 20
-3.87531087764753
 30
0.0
 11
3.77965175678439
 21
-3.885889845534242
 31
0.0
  0
LINE
  5
129
330
1F
100
AcDbEntity
  8
0
100
AcDbLine
 10
3.77965175678439
 20
-3.885889845534242
 30
0.0
 11
3.807059432327327
 21
-3.889498134472535
 31
0.0
  0
LINE
  5
12A
330
1F
100
AcDbEntity
  8
0
100
AcDbLine
 10
3.807059432327327
 20
-3.889498134472535
 30
0.0
 11
3.834467107870264
 21
-3.885889845534242
 31
0.0
  0
LINE
  5
12B
330
1F
100
AcDbEntity
  8
0
100
AcDbLine
 10
3.834467107870264
 20
-3.885889845534242
 30
0.0
 11
3.860006995618275
 21
-3.87531087764753
 31
0.0
  0
LINE
  5
12C
330
1F
100
AcDbEntity
  8
0
100
AcDbLine
 10
3.860006995618275
 20
-3.87531087764753
 30
0.0
 11
3.881938594427994
 21
-3.858482169991305
 31
0.0
  0
LINE
  5
12D
330
1F
100
AcDbEntity
  8
0
100
AcDbLine
 10
3.881938594427994
 20
-3.858482169991305
 30
0.0
 11
3.898767302084218
 21
-3.836550571181587
 31
0.0
  0
LINE
  5
12E
330
1F
100
AcDbEntity
  8
0
100
AcDbLine
 10
3.898767302084218
 20
-3.836550571181587
 30
0.0
 11
3.90934626997093
 21
-3.811010683433576
 31
0.0
  0
LINE
  5
12F
330
1F
100
AcDbEntity
  8
0
100
AcDbLine
 10
3.90934626997093
 20
-3.811010683433576
 30
0.0
 11
3.912954558909223
 21
-3.783603007890639
 31
0.0
  0
LINE
  5
130
330
1F
100
AcDbEntity
  8
0
100
AcDbLine
 10
3.912954558909223
 20
-3.783603007890639
 30
0.0
 11
3.90934626997093
 21
-3.756195332347702
 31
0.0
  0
LINE
  5
131
330
1F
100
AcDbEntity
  8
0
100
AcDbLine
 10
3.90934626997093
 20
-3.756195332347702
 30
0.0
 11
3.898767302084218
 21
-3.73065544459969
 31
0.0
  0
LINE
  5
132
330
1F
100
AcDbEntity
  8
0
100
AcDbLine
 10
3.898767302084218
 20
-3.73065544459969
 30
0.0
 11
3.881938594427994
 21
-3.708723845789972
 31
0.0
  0
LINE
  5
133
330
1F
100
AcDbEntity
  8
0
100
AcDbLine
 10
3.881938594427994
 20
-3.708723845789972
 30
0.0
 11
3.860006995618275
 21
-3.691895138133748
 31
0.0
  0
LINE
  5
134
330
1F
100
AcDbEntity
  8
0
100
AcDbLine
 10
3.860006995618275
 20
-3.691895138133748
 30
0.0
 11
3.834467107870264
 21
-3.681316170247035
 31
0.0
  0
LINE
  5
135
330
1F
100
AcDbEntity
  8
0
100
AcDbLine
 10
3.834467107870264
 20
-3.681316170247035
 30
0.0
 11
3.807059432327327
 21
-3.677707881308742
 31
0.0
  0
LINE
  5
136
330
1F
100
AcDbEntity
  8
0
100
AcDbLine
 10
-7.453122360880985
 20
-3.677707881308742
 30
0.0
 11
-7.480530036423922
 21
-3.681316170247035
 31
0.0
  0
LINE
  5
137
330
1F
100
AcDbEntity
  8
0
100
AcDbLine
 10
-7.480530036423922
 20
-3.681316170247035
 30
0.0
 11
-7.506069924171934
 21
-3.691895138133748
 31
0.0
  0
LINE
  5
138
330
1F
100
AcDbEntity
  8
0
100
AcDbLine
 10
-7.506069924171934
 20
-3.691895138133748
 30
0.0
 11
-7.528001522981651
 21
-3.708723845789972
 31
0.0
  0
LINE
  5
139
330
1F
100
AcDbEntity
  8
0
100
AcDbLine
 10
-7.528001522981651
 20
-3.708723845789972
 30
0.0
 11
-7.544830230637876
 21
-3.73065544459969
 31
0.0
  0
LINE
  5
13A
330
1F
100
AcDbEntity
  8
0
100
AcDbLine
 10
-7.544830230637876
 20
-3.73065544459969
 30
0.0
 11
-7.555409198524589
 21
-3.756195332347702
 31
0.0
  0
LINE
  5
13B
330
1F
100
AcDbEntity
  8
0
100
AcDbLine
 10
-7.555409198524589
 20
-3.756195332347702
 30
0.0
 11
-7.559017487462881
 21
-3.783603007890639
 31
0.0
  0
LINE
  5
13C
330
1F
100
AcDbEntity
  8
0
100
AcDbLine
 10
-7.559017487462881
 20
-3.783603007890639
 30
0.0
 11
-7.555409198524589
 21
-3.811010683433576
 31
0.0
  0
LINE
  5
13D
330
1F
100
AcDbEntity
  8
0
100
AcDbLine
 10
-7.555409198524589
 20
-3.811010683433576
 30
0.0
 11
-7.544830230637876
 21
-3.836550571181587
 31
0.0
  0
LINE
  5
13E
330
1F
100
AcDbEntity
  8
0
100
AcDbLine
 10
-7.544830230637876
 20
-3.836550571181587
 30
0.0
 11
-7.528001522981651
 21
-3.858482169991305
 31
0.0
  0
LINE
  5
13F
330
1F
100
AcDbEntity
  8
0
100
AcDbLine
 10
-7.528001522981651
 20
-3.858482169991305
 30
0.0
 11
-7.506069924171934
 21
-3.87531087764753
 31
0.0
  0
LINE
  5
140
330
1F
100
AcDbEntity
  8
0
100
AcDbLine
 10
-7.506069924171934
 20
-3.87531087764753
 30
0.0
 11
-7.480530036423922
 21
-3.885889845534242
 31
0.0
  0
LINE
  5
141
330
1F
100
AcDbEntity
  8
0
100
AcDbLine
 10
-7.480530036423922
 20
-3.885889845534242
 30
0.0
 11
-7.453122360880985
 21
-3.889498134472535
 31
0.0
  0
LINE
  5
142
330
1F
100
AcDbEntity
  8
0
100
AcDbLine
 10
-7.453122360880985
 20
-3.889498134472535
 30
0.0
 11
-7.425714685338049
 21
-3.885889845534242
 31
0.0
  0
LINE
  5
143
330
1F
100
AcDbEntity
  8
0
100
AcDbLine
 10
-7.425714685338049
 20
-3.885889845534242
 30
0.0
 11
-7.400174797590037
 21
-3.87531087764753
 31
0.0
  0
LINE
  5
144
330
1F
100
AcDbEntity
  8
0
100
AcDbLine
 10
-7.400174797590037
 20
-3.87531087764753
 30
0.0
 11
-7.378243198780319
 21
-3.858482169991305
 31
0.0
  0
LINE
  5
145
330
1F
100
AcDbEntity
  8
0
100
AcDbLine
 10
-7.378243198780319
 20
-3.858482169991305
 30
0.0
 11
-7.361414491124094
 21
-3.836550571181587
 31
0.0
  0
LINE
  5
146
330
1F
100
AcDbEntity
  8
0
100
AcDbLine
 10
-7.361414491124094
 20
-3.836550571181587
 30
0.0
 11
-7.350835523237382
 21
-3.811010683433576
 31
0.0
  0
LINE
  5
147
330
1F
100
AcDbEntity
  8
0
100
AcDbLine
 10
-7.350835523237382
 20
-3.811010683433576
 30
0.0
 11
-7.347227234299089
 21
-3.783603007890639
 31
0.0
  0
LINE
  5
148
330
1F
100
AcDbEntity
  8
0
100
AcDbLine
 10
-7.347227234299089
 20
-3.783603007890639
 30
0.0
 11
-7.350835523237382
 21
-3.756195332347702
 31
0.0
  0
LINE
  5
149
330
1F
100
AcDbEntity
  8
0
100
AcDbLine
 10
-7.350835523237382
 20
-3.756195332347702
 30
0.0
 11
-7.361414491124094
 21
-3.73065544459969
 31
0.0
  0
LINE
  5
14A
330
1F
100
AcDbEntity
  8
0
100
AcDbLine
 10
-7.361414491124094
 20
-3.73065544459969
 30
0.0
 11
-7.378243198780319
 21
-3.708723845789972
 31
0.0
  0
LINE
  5
14B
330
1F
100
AcDbEntity
  8
0
100
AcDbLine
 10
-7.378243198780319
 20
-3.708723845789972
 30
0.0
 11
-7.400174797590037
 21
-3.691895138133748
 31
0.0
  0
LINE
  5
14C
330
1F
100
AcDbEntity
  8
0
100
AcDbLine
 10
-7.400174797590037
 20
-3.691895138133748
 30
0.0
 11
-7.425714685338049
 21
-3.681316170247035
 31
0.0
  0
LINE
  5
14D
330
1F
100
AcDbEntity
  8
0
100
AcDbLine
 10
-7.425714685338049
 20
-3.681316170247035
 30
0.0
 11
-7.453122360880985
 21
-3.677707881308742
 31
0.0
  0
LINE
  5
14E
330
1F
100
AcDbEntity
  8
0
100
AcDbLine
 10
-4.537544448940191
 20
-3.73065544459969
 30
0.0
 11
-4.554373156596416
 21
-3.708723845789972
 31
0.0
  0
LINE
  5
14F
330
1F
100
AcDbEntity
  8
0
100
AcDbLine
 10
-4.554373156596416
 20
-3.708723845789972
 30
0.0
 11
-4.576304755406134
 21
-3.691895138133748
 31
0.0
  0
LINE
  5
150
330
1F
100
AcDbEntity
  8
0
100
AcDbLine
 10
-4.576304755406134
 20
-3.691895138133748
 30
0.0
 11
-4.601844643154145
 21
-3.681316170247035
 31
0.0
  0
LINE
  5
151
330
1F
100
AcDbEntity
  8
0
100
AcDbLine
 10
-4.601844643154145
 20
-3.681316170247035
 30
0.0
 11
-4.629252318697082
 21
-3.677707881308742
 31
0.0
  0
LINE
  5
152
330
1F
100
AcDbEntity
  8
0
100
AcDbLine
 10
-1.858329839804127
 20
-3.691895138133748
 30
0.0
 11
-1.880261438613846
 21
-3.708723845789972
 31
0.0
  0
LINE
  5
153
330
1F
100
AcDbEntity
  8
0
100
AcDbLine
 10
-1.880261438613846
 20
-3.708723845789972
 30
0.0
 11
-1.89709014627007
 21
-3.73065544459969
 31
0.0
  0
LINE
  5
154
330
1F
100
AcDbEntity
  8
0
100
AcDbLine
 10
-1.89709014627007
 20
-3.73065544459969
 30
0.0
 11
-1.907669114156783
 21
-3.756195332347702
 31
0.0
  0
LINE
  5
155
330
1F
100
AcDbEntity
  8
0
100
AcDbLine
 10
-1.907669114156783
 20
-3.756195332347702
 30
0.0
 11
-1.911277403095076
 21
-3.783603007890639
 31
0.0
  0
LINE
  5
156
330
1F
100
AcDbEntity
  8
0
100
AcDbLine
 10
-1.911277403095076
 20
-3.783603007890639
 30
0.0
 11
-1.907669114156783
 21
-3.811010683433576
 31
0.0
  0
LINE
  5
157
330
1F
100
AcDbEntity
  8
0
100
AcDbLine
 10
-1.907669114156783
 20
-3.811010683433576
 30
0.0
 11
-1.89709014627007
 21
-3.836550571181587
 31
0.0
  0
LINE
  5
158
330
1F
100
AcDbEntity
  8
0
100
AcDbLine
 10
-1.89709014627007
 20
-3.836550571181587
 30
0.0
 11
-1.880261438613846
 21
-3.858482169991305
 31
0.0
  0
LINE
  5
159
330
1F
100
AcDbEntity
  8
0
100
AcDbLine
 10
-1.880261438613846
 20
-3.858482169991305
 30
0.0
 11
-1.858329839804127
 21
-3.87531087764753
 31
0.0
  0
LINE
  5
15A
330
1F
100
AcDbEntity
  8
0
100
AcDbLine
 10
-1.858329839804127
 20
-3.87531087764753
 30
0.0
 11
-1.832789952056116
 21
-3.885889845534242
 31
0.0
  0
LINE
  5
15B
330
1F
100
AcDbEntity
  8
0
100
AcDbLine
 10
-1.832789952056116
 20
-3.885889845534242
 30
0.0
 11
-1.805382276513179
 21
-3.889498134472535
 31
0.0
  0
LINE
  5
15C
330
1F
100
AcDbEntity
  8
0
100
AcDbLine
 10
-1.805382276513179
 20
-3.889498134472535
 30
0.0
 11
-1.777974600970243
 21
-3.885889845534242
 31
0.0
  0
LINE
  5
15D
330
1F
100
AcDbEntity
  8
0
100
AcDbLine
 10
-1.777974600970243
 20
-3.885889845534242
 30
0.0
 11
-1.752434713222231
 21
-3.87531087764753
 31
0.0
  0
LINE
  5
15E
330
1F
100
AcDbEntity
  8
0
100
AcDbLine
 10
-1.752434713222231
 20
-3.87531087764753
 30
0.0
 11
-1.730503114412513
 21
-3.858482169991305
 31
0.0
  0
LINE
  5
15F
330
1F
100
AcDbEntity
  8
0
100
AcDbLine
 10
-1.730503114412513
 20
-3.858482169991305
 30
0.0
 11
-1.713674406756288
 21
-3.836550571181587
 31
0.0
  0
LINE
  5
160
330
1F
100
AcDbEntity
  8
0
100
AcDbLine
 10
-1.713674406756288
 20
-3.836550571181587
 30
0.0
 11
-1.703095438869576
 21
-3.811010683433576
 31
0.0
  0
LINE
  5
161
330
1F
100
AcDbEntity
  8
0
100
AcDbLine
 10
-1.703095438869576
 20
-3.811010683433576
 30
0.0
 11
-1.699487149931283
 21
-3.783603007890639
 31
0.0
  0
LINE
  5
162
330
1F
100
AcDbEntity
  8
0
100
AcDbLine
 10
-1.699487149931283
 20
-3.783603007890639
 30
0.0
 11
-1.703095438869576
 21
-3.756195332347702
 31
0.0
  0
LINE
  5
163
330
1F
100
AcDbEntity
  8
0
100
AcDbLine
 10
0.9831893901434238
 20
-3.677707881308742
 30
0.0
 11
0.9557817146004869
 21
-3.681316170247035
 31
0.0
  0
LINE
  5
164
330
1F
100
AcDbEntity
  8
0
100
AcDbLine
 10
0.9557817146004869
 20
-3.681316170247035
 30
0.0
 11
0.9302418268524756
 21
-3.691895138133748
 31
0.0
  0
LINE
  5
165
330
1F
100
AcDbEntity
  8
0
100
AcDbLine
 10
0.9302418268524756
 20
-3.691895138133748
 30
0.0
 11
0.908310228042757
 21
-3.708723845789972
 31
0.0
  0
LINE
  5
166
330
1F
100
AcDbEntity
  8
0
100
AcDbLine
 10
0.908310228042757
 20
-3.708723845789972
 30
0.0
 11
0.8914815203865327
 21
-3.73065544459969
 31
0.0
  0
LINE
  5
167
330
1F
100
AcDbEntity
  8
0
100
AcDbLine
 10
0.8914815203865327
 20
-3.73065544459969
 30
0.0
 11
0.8809025524998201
 21
-3.756195332347702
 31
0.0
  0
LINE
  5
168
330
1F
100
AcDbEntity
  8
0
100
AcDbLine
 10
0.8809025524998201
 20
-3.756195332347702
 30
0.0
 11
0.8772942635615274
 21
-3.783603007890639
 31
0.0
  0
LINE
  5
169
330
1F
100
AcDbEntity
  8
0
100
AcDbLine
 10
0.8772942635615274
 20
-3.783603007890639
 30
0.0
 11
0.8809025524998201
 21
-3.811010683433576
 31
0.0
  0
LINE
  5
16A
330
1F
100
AcDbEntity
  8
0
100
AcDbLine
 10
0.8809025524998201
 20
-3.811010683433576
 30
0.0
 11
0.8914815203865327
 21
-3.836550571181587
 31
0.0
  0
LINE
  5
16B
330
1F
100
AcDbEntity
  8
0
100
AcDbLine
 10
0.8914815203865327
 20
-3.836550571181587
 30
0.0
 11
0.908310228042757
 21
-3.858482169991305
 31
0.0
  0
LINE
  5
16C
330
1F
100
AcDbEntity
  8
0
100
AcDbLine
 10
0.908310228042757
 20
-3.858482169991305
 30
0.0
 11
0.9302418268524756
 21
-3.87531087764753
 31
0.0
  0
LINE
  5
16D
330
1F
100
AcDbEntity
  8
0
100
AcDbLine
 10
0.9302418268524756
 20
-3.87531087764753
 30
0.0
 11
0.9557817146004867
 21
-3.885889845534242
 31
0.0
  0
LINE
  5
16E
330
1F
100
AcDbEntity
  8
0
100
AcDbLine
 10
0.9557817146004867
 20
-3.885889845534242
 30
0.0
 11
0.9831893901434238
 21
-3.889498134472535
 31
0.0
  0
LINE
  5
16F
330
1F
100
AcDbEntity
  8
0
100
AcDbLine
 10
0.9831893901434238
 20
-3.889498134472535
 30
0.0
 11
1.010597065686361
 21
-3.885889845534242
 31
0.0
  0
LINE
  5
170
330
1F
100
AcDbEntity
  8
0
100
AcDbLine
 10
1.010597065686361
 20
-3.885889845534242
 30
0.0
 11
1.036136953434372
 21
-3.87531087764753
 31
0.0
  0
LINE
  5
171
330
1F
100
AcDbEntity
  8
0
100
AcDbLine
 10
1.036136953434372
 20
-3.87531087764753
 30
0.0
 11
1.05806855224409
 21
-3.858482169991305
 31
0.0
  0
LINE
  5
172
330
1F
100
AcDbEntity
  8
0
100
AcDbLine
 10
1.05806855224409
 20
-3.858482169991305
 30
0.0
 11
1.074897259900315
 21
-3.836550571181587
 31
0.0
  0
LINE
  5
173
330
1F
100
AcDbEntity
  8
0
100
AcDbLine
 10
1.074897259900315
 20
-3.836550571181587
 30
0.0
 11
1.085476227787028
 21
-3.811010683433576
 31
0.0
  0
LINE
  5
174
330
1F
100
AcDbEntity
  8
0
100
AcDbLine
 10
1.085476227787028
 20
-3.811010683433576
 30
0.0
 11
1.08908451672532
 21
-3.783603007890639
 31
0.0
  0
LINE
  5
175
330
1F
100
AcDbEntity
  8
0
100
AcDbLine
 10
1.08908451672532
 20
-3.783603007890639
 30
0.0
 11
1.085476227787028
 21
-3.756195332347702
 31
0.0
  0
LINE
  5
176
330
1F
100
AcDbEntity
  8
0
100
AcDbLine
 10
1.085476227787028
 20
-3.756195332347702
 30
0.0
 11
1.074897259900315
 21
-3.73065544459969
 31
0.0
  0
LINE
  5
177
330
1F
100
AcDbEntity
  8
0
100
AcDbLine
 10
1.074897259900315
 20
-3.73065544459969
 30
0.0
 11
1.058068552244091
 21
-3.708723845789972
 31
0.0
  0
LINE
  5
178
330
1F
100
AcDbEntity
  8
0
100
AcDbLine
 10
1.058068552244091
 20
-3.708723845789972
 30
0.0
 11
1.036136953434372
 21
-3.691895138133748
 31
0.0
  0
LINE
  5
179
330
1F
100
AcDbEntity
  8
0
100
AcDbLine
 10
1.036136953434372
 20
-3.691895138133748
 30
0.0
 11
1.010597065686361
 21
-3.681316170247035
 31
0.0
  0
LINE
  5
17A
330
1F
100
AcDbEntity
  8
0
100
AcDbLine
 10
1.010597065686361
 20
-3.681316170247035
 30
0.0
 11
0.9831893901434238
 21
-3.677707881308742
 31
0.0
  0
LINE
  5
17B
330
1F
100
AcDbEntity
  8
0
100
AcDbLine
 10
8.148759622185079
 20
-4.065990012109029
 30
0.0
 11
8.148759622185079
 21
3.276072097569119
 31
0.0
  0
LINE
  5
17C
330
1F
100
AcDbEntity
  8
0
100
AcDbLine
 10
-8.970952508554833
 20
3.276072097569119
 30
0.0
 11
-8.970952508554833
 21
-4.065990012109029
 31
0.0
  0
LINE
  5
17D
330
1F
100
AcDbEntity
  8
0
100
AcDbLine
 10
2.880124090980461
 20
0.7989732965653945
 30
0.0
 11
3.569148381273332
 21
0.7989732965653945
 31
0.0
  0
LINE
  5
17E
330
1F
100
AcDbEntity
  8
0
100
AcDbLine
 10
3.569148381273332
 20
0.1099490062725219
 30
0.0
 11
2.880124090980461
 21
0.1099490062725219
 31
0.0
  0
LINE
  5
17F
330
1F
100
AcDbEntity
  8
0
100
AcDbLine
 10
2.880124090980461
 20
0.1099490062725219
 30
0.0
 11
2.880124090980461
 21
0.7989732965653945
 31
0.0
  0
LINE
  5
180
330
1F
100
AcDbEntity
  8
0
100
AcDbLine
 10
3.569148381273332
 20
0.7989732965653945
 30
0.0
 11
3.569148381273332
 21
0.1099490062725219
 31
0.0
  0
LINE
  5
181
330
1F
100
AcDbEntity
  8
0
100
AcDbLine
 10
2.938295813849448
 20
-0.045928620056027
 30
0.0
 11
2.938295813849448
 21
-0.7349529103488937
 31
0.0
  0
LINE
  5
182
330
1F
100
AcDbEntity
  8
0
100
AcDbLine
 10
2.938295813849448
 20
-0.7349529103488937
 30
0.0
 11
2.249271523556577
 21
-0.7349529103488937
 31
0.0
  0
LINE
  5
183
330
1F
100
AcDbEntity
  8
0
100
AcDbLine
 10
2.249271523556577
 20
-0.045928620056027
 30
0.0
 11
2.938295813849448
 21
-0.045928620056027
 31
0.0
  0
LINE
  5
184
330
1F
100
AcDbEntity
  8
0
100
AcDbLine
 10
2.249271523556577
 20
-0.7349529103488937
 30
0.0
 11
2.249271523556577
 21
-0.045928620056027
 31
0.0
  0
LINE
  5
185
330
1F
100
AcDbEntity
  8
0
100
AcDbLine
 10
1.669813390900438
 20
-1.57985482697032
 30
0.0
 11
0.9807891006075653
 21
-1.57985482697032
 31
0.0
  0
LINE
  5
186
330
1F
100
AcDbEntity
  8
0
100
AcDbLine
 10
0.9807891006075653
 20
-1.57985482697032
 30
0.0
 11
0.9807891006075653
 21
-0.890830536677455
 31
0.0
  0
LINE
  5
187
330
1F
100
AcDbEntity
  8
0
100
AcDbLine
 10
0.9807891006075653
 20
-0.890830536677455
 30
0.0
 11
1.669813390900438
 21
-0.890830536677455
 31
0.0
  0
LINE
  5
188
330
1F
100
AcDbEntity
  8
0
100
AcDbLine
 10
1.669813390900438
 20
-0.890830536677455
 30
0.0
 11
1.669813390900438
 21
-1.57985482697032
 31
0.0
  0
LINE
  5
189
330
1F
100
AcDbEntity
  8
0
100
AcDbLine
 10
2.45880268068662
 20
0.9548509228939509
 30
0.0
 11
2.45880268068662
 21
1.643875213186824
 31
0.0
  0
LINE
  5
18A
330
1F
100
AcDbEntity
  8
0
100
AcDbLine
 10
3.147826970979493
 20
1.643875213186824
 30
0.0
 11
3.147826970979493
 21
0.9548509228939509
 31
0.0
  0
LINE
  5
18B
330
1F
100
AcDbEntity
  8
0
100
AcDbLine
 10
3.147826970979493
 20
0.9548509228939509
 30
0.0
 11
2.45880268068662
 21
0.9548509228939509
 31
0.0
  0
LINE
  5
18C
330
1F
100
AcDbEntity
  8
0
100
AcDbLine
 10
2.45880268068662
 20
1.643875213186824
 30
0.0
 11
3.147826970979493
 21
1.643875213186824
 31
0.0
  0
LINE
  5
18D
330
1F
100
AcDbEntity
  8
0
100
AcDbLine
 10
2.302925054358069
 20
0.9548509228939509
 30
0.0
 11
1.613900764065196
 21
0.9548509228939509
 31
0.0
  0
LINE
  5
18E
330
1F
100
AcDbEntity
  8
0
100
AcDbLine
 10
2.302925054358069
 20
1.643875213186824
 30
0.0
 11
2.302925054358069
 21
0.9548509228939509
 31
0.0
  0
LINE
  5
18F
330
1F
100
AcDbEntity
  8
0
100
AcDbLine
 10
1.613900764065196
 20
1.643875213186824
 30
0.0
 11
2.302925054358069
 21
1.643875213186824
 31
0.0
  0
LINE
  5
190
330
1F
100
AcDbEntity
  8
0
100
AcDbLine
 10
1.613900764065196
 20
0.9548509228939509
 30
0.0
 11
1.613900764065196
 21
1.643875213186824
 31
0.0
  0
LINE
  5
191
330
1F
100
AcDbEntity
  8
0
100
AcDbLine
 10
0.7689988474437726
 20
0.9548509228939474
 30
0.0
 11
0.7689988474437726
 21
1.643875213186823
 31
0.0
  0
LINE
  5
192
330
1F
100
AcDbEntity
  8
0
100
AcDbLine
 10
0.7689988474437726
 20
1.643875213186823
 30
0.0
 11
1.458023137736646
 21
1.643875213186823
 31
0.0
  0
LINE
  5
193
330
1F
100
AcDbEntity
  8
0
100
AcDbLine
 10
1.458023137736646
 20
1.643875213186823
 30
0.0
 11
1.458023137736646
 21
0.9548509228939474
 31
0.0
  0
LINE
  5
194
330
1F
100
AcDbEntity
  8
0
100
AcDbLine
 10
1.458023137736646
 20
0.9548509228939474
 30
0.0
 11
0.7689988474437726
 21
0.9548509228939474
 31
0.0
  0
LINE
  5
195
330
1F
100
AcDbEntity
  8
0
100
AcDbLine
 10
-0.0759030691776512
 20
1.643875213186824
 30
0.0
 11
0.6131212211152217
 21
1.643875213186824
 31
0.0
  0
LINE
  5
196
330
1F
100
AcDbEntity
  8
0
100
AcDbLine
 10
-0.0759030691776512
 20
0.9548509228939509
 30
0.0
 11
-0.0759030691776512
 21
1.643875213186824
 31
0.0
  0
LINE
  5
197
330
1F
100
AcDbEntity
  8
0
100
AcDbLine
 10
0.6131212211152217
 20
0.9548509228939509
 30
0.0
 11
-0.0759030691776512
 21
0.9548509228939509
 31
0.0
  0
LINE
  5
198
330
1F
100
AcDbEntity
  8
0
100
AcDbLine
 10
0.6131212211152217
 20
1.643875213186824
 30
0.0
 11
0.6131212211152217
 21
0.9548509228939509
 31
0.0
  0
LINE
  5
199
330
1F
100
AcDbEntity
  8
0
100
AcDbLine
 10
-0.2317806955062026
 20
0.9548509228939509
 30
0.0
 11
-0.9208049857990753
 21
0.9548509228939509
 31
0.0
  0
LINE
  5
19A
330
1F
100
AcDbEntity
  8
0
100
AcDbLine
 10
-0.2317806955062026
 20
1.643875213186824
 30
0.0
 11
-0.2317806955062026
 21
0.9548509228939509
 31
0.0
  0
LINE
  5
19B
330
1F
100
AcDbEntity
  8
0
100
AcDbLine
 10
-0.9208049857990753
 20
1.643875213186824
 30
0.0
 11
-0.2317806955062026
 21
1.643875213186824
 31
0.0
  0
LINE
  5
19C
330
1F
100
AcDbEntity
  8
0
100
AcDbLine
 10
-1.076682612127626
 20
0.9548509228939474
 30
0.0
 11
-1.765706902420499
 21
0.9548509228939474
 31
0.0
  0
LINE
  5
19D
330
1F
100
AcDbEntity
  8
0
100
AcDbLine
 10
-1.076682612127626
 20
1.643875213186823
 30
0.0
 11
-1.076682612127626
 21
0.9548509228939474
 31
0.0
  0
LINE
  5
19E
330
1F
100
AcDbEntity
  8
0
100
AcDbLine
 10
-1.765706902420499
 20
1.643875213186823
 30
0.0
 11
-1.076682612127626
 21
1.643875213186823
 31
0.0
  0
LINE
  5
19F
330
1F
100
AcDbEntity
  8
0
100
AcDbLine
 10
-1.765706902420499
 20
0.9548509228939474
 30
0.0
 11
-1.765706902420499
 21
1.643875213186823
 31
0.0
  0
LINE
  5
1A0
330
1F
100
AcDbEntity
  8
0
100
AcDbLine
 10
-0.9208049857990753
 20
0.9548509228939509
 30
0.0
 11
-0.9208049857990753
 21
1.643875213186824
 31
0.0
  0
LINE
  5
1A1
330
1F
100
AcDbEntity
  8
0
100
AcDbLine
 10
-2.766486445370474
 20
0.9548509228939509
 30
0.0
 11
-3.455510735663347
 21
0.9548509228939509
 31
0.0
  0
LINE
  5
1A2
330
1F
100
AcDbEntity
  8
0
100
AcDbLine
 10
-2.766486445370474
 20
1.643875213186824
 30
0.0
 11
-2.766486445370474
 21
0.9548509228939509
 31
0.0
  0
LINE
  5
1A3
330
1F
100
AcDbEntity
  8
0
100
AcDbLine
 10
-5.145314568906194
 20
1.643875213186824
 30
0.0
 11
-4.456290278613321
 21
1.643875213186824
 31
0.0
  0
LINE
  5
1A4
330
1F
100
AcDbEntity
  8
0
100
AcDbLine
 10
-4.456290278613321
 20
1.643875213186824
 30
0.0
 11
-4.456290278613321
 21
0.9548509228939509
 31
0.0
  0
LINE
  5
1A5
330
1F
100
AcDbEntity
  8
0
100
AcDbLine
 10
-3.455510735663347
 20
0.9548509228939509
 30
0.0
 11
-3.455510735663347
 21
1.643875213186824
 31
0.0
  0
LINE
  5
1A6
330
1F
100
AcDbEntity
  8
0
100
AcDbLine
 10
-3.455510735663347
 20
1.643875213186824
 30
0.0
 11
-2.766486445370474
 21
1.643875213186824
 31
0.0
  0
LINE
  5
1A7
330
1F
100
AcDbEntity
  8
0
100
AcDbLine
 10
-5.990216485527617
 20
0.9548509228939509
 30
0.0
 11
-5.990216485527617
 21
1.643875213186824
 31
0.0
  0
LINE
  5
1A8
330
1F
100
AcDbEntity
  8
0
100
AcDbLine
 10
-5.301192195234745
 20
0.9548509228939509
 30
0.0
 11
-5.990216485527617
 21
0.9548509228939509
 31
0.0
  0
LINE
  5
1A9
330
1F
100
AcDbEntity
  8
0
100
AcDbLine
 10
-4.456290278613321
 20
0.9548509228939509
 30
0.0
 11
-5.145314568906194
 21
0.9548509228939509
 31
0.0
  0
LINE
  5
1AA
330
1F
100
AcDbEntity
  8
0
100
AcDbLine
 10
-5.145314568906194
 20
0.9548509228939509
 30
0.0
 11
-5.145314568906194
 21
1.643875213186824
 31
0.0
  0
LINE
  5
1AB
330
1F
100
AcDbEntity
  8
0
100
AcDbLine
 10
-5.990216485527617
 20
1.643875213186824
 30
0.0
 11
-5.301192195234745
 21
1.643875213186824
 31
0.0
  0
LINE
  5
1AC
330
1F
100
AcDbEntity
  8
0
100
AcDbLine
 10
-3.611388361991897
 20
0.9548509228939474
 30
0.0
 11
-4.30041265228477
 21
0.9548509228939474
 31
0.0
  0
LINE
  5
1AD
330
1F
100
AcDbEntity
  8
0
100
AcDbLine
 10
-3.611388361991897
 20
1.643875213186823
 30
0.0
 11
-3.611388361991897
 21
0.9548509228939474
 31
0.0
  0
LINE
  5
1AE
330
1F
100
AcDbEntity
  8
0
100
AcDbLine
 10
-4.30041265228477
 20
1.643875213186823
 30
0.0
 11
-3.611388361991897
 21
1.643875213186823
 31
0.0
  0
LINE
  5
1AF
330
1F
100
AcDbEntity
  8
0
100
AcDbLine
 10
-4.30041265228477
 20
0.9548509228939474
 30
0.0
 11
-4.30041265228477
 21
1.643875213186823
 31
0.0
  0
LINE
  5
1B0
330
1F
100
AcDbEntity
  8
0
100
AcDbLine
 10
-5.301192195234745
 20
1.643875213186824
 30
0.0
 11
-5.301192195234745
 21
0.9548509228939509
 31
0.0
  0
LINE
  5
1B1
330
1F
100
AcDbEntity
  8
0
100
AcDbLine
 10
-6.835118402149042
 20
1.643875213186823
 30
0.0
 11
-6.146094111856169
 21
1.643875213186823
 31
0.0
  0
LINE
  5
1B2
330
1F
100
AcDbEntity
  8
0
100
AcDbLine
 10
-6.146094111856169
 20
1.643875213186823
 30
0.0
 11
-6.146094111856169
 21
0.9548509228939474
 31
0.0
  0
LINE
  5
1B3
330
1F
100
AcDbEntity
  8
0
100
AcDbLine
 10
-6.146094111856169
 20
0.9548509228939474
 30
0.0
 11
-6.835118402149042
 21
0.9548509228939474
 31
0.0
  0
LINE
  5
1B4
330
1F
100
AcDbEntity
  8
0
100
AcDbLine
 10
-6.835118402149042
 20
0.9548509228939474
 30
0.0
 11
-6.835118402149042
 21
1.643875213186823
 31
0.0
  0
LINE
  5
1B5
330
1F
100
AcDbEntity
  8
0
100
AcDbLine
 10
-1.92158452874905
 20
0.9548509228939509
 30
0.0
 11
-2.610608819041923
 21
0.9548509228939509
 31
0.0
  0
LINE
  5
1B6
330
1F
100
AcDbEntity
  8
0
100
AcDbLine
 10
-1.92158452874905
 20
1.643875213186824
 30
0.0
 11
-1.92158452874905
 21
0.9548509228939509
 31
0.0
  0
LINE
  5
1B7
330
1F
100
AcDbEntity
  8
0
100
AcDbLine
 10
-2.610608819041923
 20
1.643875213186824
 30
0.0
 11
-1.92158452874905
 21
1.643875213186824
 31
0.0
  0
LINE
  5
1B8
330
1F
100
AcDbEntity
  8
0
100
AcDbLine
 10
-2.610608819041923
 20
0.9548509228939509
 30
0.0
 11
-2.610608819041923
 21
1.643875213186824
 31
0.0
  0
LINE
  5
1B9
330
1F
100
AcDbEntity
  8
0
100
AcDbLine
 10
-6.990996028477592
 20
0.9548509228939509
 30
0.0
 11
-7.680020318770465
 21
0.9548509228939509
 31
0.0
  0
LINE
  5
1BA
330
1F
100
AcDbEntity
  8
0
100
AcDbLine
 10
-7.680020318770465
 20
0.9548509228939509
 30
0.0
 11
-7.680020318770465
 21
1.643875213186824
 31
0.0
  0
LINE
  5
1BB
330
1F
100
AcDbEntity
  8
0
100
AcDbLine
 10
-7.680020318770465
 20
1.643875213186824
 30
0.0
 11
-6.990996028477592
 21
1.643875213186824
 31
0.0
  0
LINE
  5
1BC
330
1F
100
AcDbEntity
  8
0
100
AcDbLine
 10
-6.990996028477592
 20
1.643875213186824
 30
0.0
 11
-6.990996028477592
 21
0.9548509228939509
 31
0.0
  0
LINE
  5
1BD
330
1F
100
AcDbEntity
  8
0
100
AcDbLine
 10
-8.52492223539189
 20
1.643875213186823
 30
0.0
 11
-7.835897945099016
 21
1.643875213186823
 31
0.0
  0
LINE
  5
1BE
330
1F
100
AcDbEntity
  8
0
100
AcDbLine
 10
-7.835897945099016
 20
1.643875213186823
 30
0.0
 11
-7.835897945099016
 21
0.9548509228939474
 31
0.0
  0
LINE
  5
1BF
330
1F
100
AcDbEntity
  8
0
100
AcDbLine
 10
-7.835897945099016
 20
0.9548509228939474
 30
0.0
 11
-8.52492223539189
 21
0.9548509228939474
 31
0.0
  0
LINE
  5
1C0
330
1F
100
AcDbEntity
  8
0
100
AcDbLine
 10
-8.52492223539189
 20
0.9548509228939474
 30
0.0
 11
-8.52492223539189
 21
1.643875213186823
 31
0.0
  0
LINE
  5
1C1
330
1F
100
AcDbEntity
  8
0
100
AcDbLine
 10
0.3476774371499365
 20
0.7989732965653956
 30
0.0
 11
1.036701727442809
 21
0.7989732965653956
 31
0.0
  0
LINE
  5
1C2
330
1F
100
AcDbEntity
  8
0
100
AcDbLine
 10
1.036701727442809
 20
0.7989732965653956
 30
0.0
 11
1.036701727442809
 21
0.1099490062725199
 31
0.0
  0
LINE
  5
1C3
330
1F
100
AcDbEntity
  8
0
100
AcDbLine
 10
1.881603644064233
 20
0.1099490062725234
 30
0.0
 11
1.19257935377136
 21
0.1099490062725234
 31
0.0
  0
LINE
  5
1C4
330
1F
100
AcDbEntity
  8
0
100
AcDbLine
 10
-3.876832145957189
 20
0.7989732965653961
 30
0.0
 11
-3.187807855664315
 21
0.7989732965653961
 31
0.0
  0
LINE
  5
1C5
330
1F
100
AcDbEntity
  8
0
100
AcDbLine
 10
-3.187807855664315
 20
0.7989732965653961
 30
0.0
 11
-3.187807855664315
 21
0.1099490062725234
 31
0.0
  0
LINE
  5
1C6
330
1F
100
AcDbEntity
  8
0
100
AcDbLine
 10
0.1917998108213851
 20
0.7989732965653961
 30
0.0
 11
0.1917998108213851
 21
0.1099490062725234
 31
0.0
  0
LINE
  5
1C7
330
1F
100
AcDbEntity
  8
0
100
AcDbLine
 10
-0.4972244794714876
 20
0.1099490062725234
 30
0.0
 11
-0.4972244794714876
 21
0.7989732965653961
 31
0.0
  0
LINE
  5
1C8
330
1F
100
AcDbEntity
  8
0
100
AcDbLine
 10
1.19257935377136
 20
0.1099490062725234
 30
0.0
 11
1.19257935377136
 21
0.7989732965653961
 31
0.0
  0
LINE
  5
1C9
330
1F
100
AcDbEntity
  8
0
100
AcDbLine
 10
1.881603644064233
 20
0.7989732965653961
 30
0.0
 11
1.881603644064233
 21
0.1099490062725234
 31
0.0
  0
LINE
  5
1CA
330
1F
100
AcDbEntity
  8
0
100
AcDbLine
 10
-4.032709772285741
 20
0.1099490062725199
 30
0.0
 11
-4.721734062578618
 21
0.1099490062725199
 31
0.0
  0
LINE
  5
1CB
330
1F
100
AcDbEntity
  8
0
100
AcDbLine
 10
-4.032709772285741
 20
0.7989732965653956
 30
0.0
 11
-4.032709772285741
 21
0.1099490062725199
 31
0.0
  0
LINE
  5
1CC
330
1F
100
AcDbEntity
  8
0
100
AcDbLine
 10
-4.721734062578618
 20
0.7989732965653956
 30
0.0
 11
-4.032709772285741
 21
0.7989732965653956
 31
0.0
  0
LINE
  5
1CD
330
1F
100
AcDbEntity
  8
0
100
AcDbLine
 10
-4.721734062578618
 20
0.1099490062725199
 30
0.0
 11
-4.721734062578618
 21
0.7989732965653956
 31
0.0
  0
LINE
  5
1CE
330
1F
100
AcDbEntity
  8
0
100
AcDbLine
 10
2.037481270392783
 20
0.7989732965653961
 30
0.0
 11
2.726505560685657
 21
0.7989732965653961
 31
0.0
  0
LINE
  5
1CF
330
1F
100
AcDbEntity
  8
0
100
AcDbLine
 10
2.726505560685657
 20
0.7989732965653961
 30
0.0
 11
2.726505560685657
 21
0.1099490062725234
 31
0.0
  0
LINE
  5
1D0
330
1F
100
AcDbEntity
  8
0
100
AcDbLine
 10
-3.031930229335763
 20
0.7989732965653961
 30
0.0
 11
-2.342905939042889
 21
0.7989732965653961
 31
0.0
  0
LINE
  5
1D1
330
1F
100
AcDbEntity
  8
0
100
AcDbLine
 10
-3.031930229335763
 20
0.1099490062725234
 30
0.0
 11
-3.031930229335763
 21
0.7989732965653961
 31
0.0
  0
LINE
  5
1D2
330
1F
100
AcDbEntity
  8
0
100
AcDbLine
 10
-1.342126396092915
 20
0.1099490062725234
 30
0.0
 11
-1.342126396092915
 21
0.7989732965653961
 31
0.0
  0
LINE
  5
1D3
330
1F
100
AcDbEntity
  8
0
100
AcDbLine
 10
-0.6531021058000394
 20
0.1099490062725234
 30
0.0
 11
-1.342126396092915
 21
0.1099490062725234
 31
0.0
  0
LINE
  5
1D4
330
1F
100
AcDbEntity
  8
0
100
AcDbLine
 10
-0.6531021058000394
 20
0.7989732965653961
 30
0.0
 11
-0.6531021058000394
 21
0.1099490062725234
 31
0.0
  0
LINE
  5
1D5
330
1F
100
AcDbEntity
  8
0
100
AcDbLine
 10
-1.342126396092915
 20
0.7989732965653961
 30
0.0
 11
-0.6531021058000394
 21
0.7989732965653961
 31
0.0
  0
LINE
  5
1D6
330
1F
100
AcDbEntity
  8
0
100
AcDbLine
 10
2.726505560685657
 20
0.1099490062725234
 30
0.0
 11
2.037481270392783
 21
0.1099490062725234
 31
0.0
  0
LINE
  5
1D7
330
1F
100
AcDbEntity
  8
0
100
AcDbLine
 10
2.037481270392783
 20
0.1099490062725234
 30
0.0
 11
2.037481270392783
 21
0.7989732965653961
 31
0.0
  0
LINE
  5
1D8
330
1F
100
AcDbEntity
  8
0
100
AcDbLine
 10
-2.342905939042889
 20
0.7989732965653961
 30
0.0
 11
-2.342905939042889
 21
0.1099490062725234
 31
0.0
  0
LINE
  5
1D9
330
1F
100
AcDbEntity
  8
0
100
AcDbLine
 10
-1.498004022421465
 20
0.1099490062725199
 30
0.0
 11
-2.187028312714338
 21
0.1099490062725199
 31
0.0
  0
LINE
  5
1DA
330
1F
100
AcDbEntity
  8
0
100
AcDbLine
 10
-2.187028312714338
 20
0.1099490062725199
 30
0.0
 11
-2.187028312714338
 21
0.7989732965653956
 31
0.0
  0
LINE
  5
1DB
330
1F
100
AcDbEntity
  8
0
100
AcDbLine
 10
0.3476774371499365
 20
0.1099490062725199
 30
0.0
 11
0.3476774371499365
 21
0.7989732965653956
 31
0.0
  0
LINE
  5
1DC
330
1F
100
AcDbEntity
  8
0
100
AcDbLine
 10
-3.187807855664315
 20
0.1099490062725234
 30
0.0
 11
-3.876832145957189
 21
0.1099490062725234
 31
0.0
  0
LINE
  5
1DD
330
1F
100
AcDbEntity
  8
0
100
AcDbLine
 10
-1.498004022421465
 20
0.7989732965653956
 30
0.0
 11
-1.498004022421465
 21
0.1099490062725199
 31
0.0
  0
LINE
  5
1DE
330
1F
100
AcDbEntity
  8
0
100
AcDbLine
 10
-3.876832145957189
 20
0.1099490062725234
 30
0.0
 11
-3.876832145957189
 21
0.7989732965653961
 31
0.0
  0
LINE
  5
1DF
330
1F
100
AcDbEntity
  8
0
100
AcDbLine
 10
1.404369606935152
 20
-0.0459286200560245
 30
0.0
 11
2.093393897228026
 21
-0.0459286200560245
 31
0.0
  0
LINE
  5
1E0
330
1F
100
AcDbEntity
  8
0
100
AcDbLine
 10
-3.665041892793386
 20
-0.7349529103488972
 30
0.0
 11
-3.665041892793386
 21
-0.0459286200560245
 31
0.0
  0
LINE
  5
1E1
330
1F
100
AcDbEntity
  8
0
100
AcDbLine
 10
0.5594676903137292
 20
-0.0459286200560245
 30
0.0
 11
1.248491980606601
 21
-0.0459286200560245
 31
0.0
  0
LINE
  5
1E2
330
1F
100
AcDbEntity
  8
0
100
AcDbLine
 10
0.5594676903137292
 20
-0.7349529103488972
 30
0.0
 11
0.5594676903137292
 21
-0.0459286200560245
 31
0.0
  0
LINE
  5
1E3
330
1F
100
AcDbEntity
  8
0
100
AcDbLine
 10
2.093393897228026
 20
-0.0459286200560245
 30
0.0
 11
2.093393897228026
 21
-0.7349529103488972
 31
0.0
  0
LINE
  5
1E4
330
1F
100
AcDbEntity
  8
0
100
AcDbLine
 10
-4.665821435743345
 20
-0.045928620056025
 30
0.0
 11
-4.665821435743345
 21
-0.7349529103489006
 31
0.0
  0
LINE
  5
1E5
330
1F
100
AcDbEntity
  8
0
100
AcDbLine
 10
-3.665041892793386
 20
-0.0459286200560245
 30
0.0
 11
-2.976017602500518
 21
-0.0459286200560245
 31
0.0
  0
LINE
  5
1E6
330
1F
100
AcDbEntity
  8
0
100
AcDbLine
 10
-1.28621376925767
 20
-0.7349529103488972
 30
0.0
 11
-1.975238059550544
 21
-0.7349529103488972
 31
0.0
  0
LINE
  5
1E7
330
1F
100
AcDbEntity
  8
0
100
AcDbLine
 10
-0.4413118526362462
 20
-0.7349529103488972
 30
0.0
 11
-1.130336142929119
 21
-0.7349529103488972
 31
0.0
  0
LINE
  5
1E8
330
1F
100
AcDbEntity
  8
0
100
AcDbLine
 10
1.248491980606601
 20
-0.7349529103488972
 30
0.0
 11
0.5594676903137292
 21
-0.7349529103488972
 31
0.0
  0
LINE
  5
1E9
330
1F
100
AcDbEntity
  8
0
100
AcDbLine
 10
-4.665821435743345
 20
-0.7349529103489006
 30
0.0
 11
-5.354845726036221
 21
-0.7349529103489006
 31
0.0
  0
LINE
  5
1EA
330
1F
100
AcDbEntity
  8
0
100
AcDbLine
 10
1.248491980606601
 20
-0.0459286200560245
 30
0.0
 11
1.248491980606601
 21
-0.7349529103488972
 31
0.0
  0
LINE
  5
1EB
330
1F
100
AcDbEntity
  8
0
100
AcDbLine
 10
-1.130336142929119
 20
-0.7349529103488972
 30
0.0
 11
-1.130336142929119
 21
-0.0459286200560245
 31
0.0
  0
LINE
  5
1EC
330
1F
100
AcDbEntity
  8
0
100
AcDbLine
 10
-1.975238059550544
 20
-0.7349529103488972
 30
0.0
 11
-1.975238059550544
 21
-0.0459286200560245
 31
0.0
  0
LINE
  5
1ED
330
1F
100
AcDbEntity
  8
0
100
AcDbLine
 10
-1.28621376925767
 20
-0.0459286200560245
 30
0.0
 11
-1.28621376925767
 21
-0.7349529103488972
 31
0.0
  0
LINE
  5
1EE
330
1F
100
AcDbEntity
  8
0
100
AcDbLine
 10
-1.975238059550544
 20
-0.0459286200560245
 30
0.0
 11
-1.28621376925767
 21
-0.0459286200560245
 31
0.0
  0
LINE
  5
1EF
330
1F
100
AcDbEntity
  8
0
100
AcDbLine
 10
-5.354845726036221
 20
-0.045928620056025
 30
0.0
 11
-4.665821435743345
 21
-0.045928620056025
 31
0.0
  0
LINE
  5
1F0
330
1F
100
AcDbEntity
  8
0
100
AcDbLine
 10
-5.354845726036221
 20
-0.7349529103489006
 30
0.0
 11
-5.354845726036221
 21
-0.045928620056025
 31
0.0
  0
LINE
  5
1F1
330
1F
100
AcDbEntity
  8
0
100
AcDbLine
 10
-0.4413118526362462
 20
-0.0459286200560245
 30
0.0
 11
-0.4413118526362462
 21
-0.7349529103488972
 31
0.0
  0
LINE
  5
1F2
330
1F
100
AcDbEntity
  8
0
100
AcDbLine
 10
-3.820919519121936
 20
-0.7349529103488972
 30
0.0
 11
-4.509943809414798
 21
-0.7349529103488972
 31
0.0
  0
LINE
  5
1F3
330
1F
100
AcDbEntity
  8
0
100
AcDbLine
 10
0.4035900639851778
 20
-0.045928620056025
 30
0.0
 11
0.4035900639851778
 21
-0.7349529103489006
 31
0.0
  0
LINE
  5
1F4
330
1F
100
AcDbEntity
  8
0
100
AcDbLine
 10
-2.820139976171967
 20
-0.045928620056025
 30
0.0
 11
-2.131115685879094
 21
-0.045928620056025
 31
0.0
  0
LINE
  5
1F5
330
1F
100
AcDbEntity
  8
0
100
AcDbLine
 10
-2.820139976171967
 20
-0.7349529103489006
 30
0.0
 11
-2.820139976171967
 21
-0.045928620056025
 31
0.0
  0
LINE
  5
1F6
330
1F
100
AcDbEntity
  8
0
100
AcDbLine
 10
1.404369606935152
 20
-0.7349529103488972
 30
0.0
 11
1.404369606935152
 21
-0.0459286200560245
 31
0.0
  0
LINE
  5
1F7
330
1F
100
AcDbEntity
  8
0
100
AcDbLine
 10
0.4035900639851778
 20
-0.7349529103489006
 30
0.0
 11
-0.2854342263076948
 21
-0.7349529103489006
 31
0.0
  0
LINE
  5
1F8
330
1F
100
AcDbEntity
  8
0
100
AcDbLine
 10
2.093393897228026
 20
-0.7349529103488972
 30
0.0
 11
1.404369606935152
 21
-0.7349529103488972
 31
0.0
  0
LINE
  5
1F9
330
1F
100
AcDbEntity
  8
0
100
AcDbLine
 10
-0.2854342263076948
 20
-0.7349529103489006
 30
0.0
 11
-0.2854342263076948
 21
-0.045928620056025
 31
0.0
  0
LINE
  5
1FA
330
1F
100
AcDbEntity
  8
0
100
AcDbLine
 10
-3.820919519121936
 20
-0.0459286200560245
 30
0.0
 11
-3.820919519121936
 21
-0.7349529103488972
 31
0.0
  0
LINE
  5
1FB
330
1F
100
AcDbEntity
  8
0
100
AcDbLine
 10
-2.976017602500518
 20
-0.0459286200560245
 30
0.0
 11
-2.976017602500518
 21
-0.7349529103488972
 31
0.0
  0
LINE
  5
1FC
330
1F
100
AcDbEntity
  8
0
100
AcDbLine
 10
-1.130336142929119
 20
-0.0459286200560245
 30
0.0
 11
-0.4413118526362462
 21
-0.0459286200560245
 31
0.0
  0
LINE
  5
1FD
330
1F
100
AcDbEntity
  8
0
100
AcDbLine
 10
-2.976017602500518
 20
-0.7349529103488972
 30
0.0
 11
-3.665041892793386
 21
-0.7349529103488972
 31
0.0
  0
LINE
  5
1FE
330
1F
100
AcDbEntity
  8
0
100
AcDbLine
 10
-2.131115685879094
 20
-0.7349529103489006
 30
0.0
 11
-2.820139976171967
 21
-0.7349529103489006
 31
0.0
  0
LINE
  5
1FF
330
1F
100
AcDbEntity
  8
0
100
AcDbLine
 10
-0.2854342263076948
 20
-0.045928620056025
 30
0.0
 11
0.4035900639851778
 21
-0.045928620056025
 31
0.0
  0
LINE
  5
200
330
1F
100
AcDbEntity
  8
0
100
AcDbLine
 10
-4.509943809414798
 20
-0.0459286200560245
 30
0.0
 11
-3.820919519121936
 21
-0.0459286200560245
 31
0.0
  0
LINE
  5
201
330
1F
100
AcDbEntity
  8
0
100
AcDbLine
 10
-4.509943809414798
 20
-0.7349529103488972
 30
0.0
 11
-4.509943809414798
 21
-0.0459286200560245
 31
0.0
  0
LINE
  5
202
330
1F
100
AcDbEntity
  8
0
100
AcDbLine
 10
-2.131115685879094
 20
-0.045928620056025
 30
0.0
 11
-2.131115685879094
 21
-0.7349529103489006
 31
0.0
  0
LINE
  5
203
330
1F
100
AcDbEntity
  8
0
100
AcDbLine
 10
-2.554696192206682
 20
-1.579854826970321
 30
0.0
 11
-3.243720482499554
 21
-1.579854826970321
 31
0.0
  0
LINE
  5
204
330
1F
100
AcDbEntity
  8
0
100
AcDbLine
 10
-0.0199904423424104
 20
-1.579854826970321
 30
0.0
 11
-0.709014732635282
 21
-1.579854826970321
 31
0.0
  0
LINE
  5
205
330
1F
100
AcDbEntity
  8
0
100
AcDbLine
 10
-2.39881856587813
 20
-1.579854826970321
 30
0.0
 11
-2.39881856587813
 21
-0.8908305366774485
 31
0.0
  0
LINE
  5
206
330
1F
100
AcDbEntity
  8
0
100
AcDbLine
 10
-3.243720482499554
 20
-1.579854826970321
 30
0.0
 11
-3.243720482499554
 21
-0.8908305366774485
 31
0.0
  0
LINE
  5
207
330
1F
100
AcDbEntity
  8
0
100
AcDbLine
 10
-4.933524315742401
 20
-1.579854826970321
 30
0.0
 11
-4.933524315742401
 21
-0.8908305366774485
 31
0.0
  0
LINE
  5
208
330
1F
100
AcDbEntity
  8
0
100
AcDbLine
 10
-1.709794275585257
 20
-1.579854826970321
 30
0.0
 11
-2.39881856587813
 21
-1.579854826970321
 31
0.0
  0
LINE
  5
209
330
1F
100
AcDbEntity
  8
0
100
AcDbLine
 10
-2.554696192206682
 20
-0.8908305366774485
 30
0.0
 11
-2.554696192206682
 21
-1.579854826970321
 31
0.0
  0
LINE
  5
20A
330
1F
100
AcDbEntity
  8
0
100
AcDbLine
 10
-0.709014732635282
 20
-0.8908305366774485
 30
0.0
 11
-0.0199904423424104
 21
-0.8908305366774485
 31
0.0
  0
LINE
  5
20B
330
1F
100
AcDbEntity
  8
0
100
AcDbLine
 10
-0.709014732635282
 20
-1.579854826970321
 30
0.0
 11
-0.709014732635282
 21
-0.8908305366774485
 31
0.0
  0
LINE
  5
20C
330
1F
100
AcDbEntity
  8
0
100
AcDbLine
 10
-4.933524315742401
 20
-0.8908305366774485
 30
0.0
 11
-4.244500025449528
 21
-0.8908305366774485
 31
0.0
  0
LINE
  5
20D
330
1F
100
AcDbEntity
  8
0
100
AcDbLine
 10
-0.0199904423424104
 20
-0.8908305366774485
 30
0.0
 11
-0.0199904423424104
 21
-1.579854826970321
 31
0.0
  0
LINE
  5
20E
330
1F
100
AcDbEntity
  8
0
100
AcDbLine
 10
0.135887183986141
 20
-0.8908305366774485
 30
0.0
 11
0.8249114742790147
 21
-0.8908305366774485
 31
0.0
  0
LINE
  5
20F
330
1F
100
AcDbEntity
  8
0
100
AcDbLine
 10
0.8249114742790147
 20
-0.8908305366774485
 30
0.0
 11
0.8249114742790147
 21
-1.579854826970321
 31
0.0
  0
LINE
  5
210
330
1F
100
AcDbEntity
  8
0
100
AcDbLine
 10
-3.243720482499554
 20
-0.8908305366774485
 30
0.0
 11
-2.554696192206682
 21
-0.8908305366774485
 31
0.0
  0
LINE
  5
211
330
1F
100
AcDbEntity
  8
0
100
AcDbLine
 10
0.8249114742790147
 20
-1.579854826970321
 30
0.0
 11
0.135887183986141
 21
-1.579854826970321
 31
0.0
  0
LINE
  5
212
330
1F
100
AcDbEntity
  8
0
100
AcDbLine
 10
0.135887183986141
 20
-1.579854826970321
 30
0.0
 11
0.135887183986141
 21
-0.8908305366774485
 31
0.0
  0
LINE
  5
213
330
1F
100
AcDbEntity
  8
0
100
AcDbLine
 10
-1.553916649256706
 20
-1.579854826970324
 30
0.0
 11
-1.553916649256706
 21
-0.890830536677449
 31
0.0
  0
LINE
  5
214
330
1F
100
AcDbEntity
  8
0
100
AcDbLine
 10
-5.089401942070952
 20
-0.8908305366774485
 30
0.0
 11
-5.089401942070952
 21
-1.579854826970321
 31
0.0
  0
LINE
  5
215
330
1F
100
AcDbEntity
  8
0
100
AcDbLine
 10
-4.088622399120977
 20
-0.890830536677449
 30
0.0
 11
-3.399598108828104
 21
-0.890830536677449
 31
0.0
  0
LINE
  5
216
330
1F
100
AcDbEntity
  8
0
100
AcDbLine
 10
-4.244500025449528
 20
-0.8908305366774485
 30
0.0
 11
-4.244500025449528
 21
-1.579854826970321
 31
0.0
  0
LINE
  5
217
330
1F
100
AcDbEntity
  8
0
100
AcDbLine
 10
-2.39881856587813
 20
-0.8908305366774485
 30
0.0
 11
-1.709794275585257
 21
-0.8908305366774485
 31
0.0
  0
LINE
  5
218
330
1F
100
AcDbEntity
  8
0
100
AcDbLine
 10
-1.709794275585257
 20
-0.8908305366774485
 30
0.0
 11
-1.709794275585257
 21
-1.579854826970321
 31
0.0
  0
LINE
  5
219
330
1F
100
AcDbEntity
  8
0
100
AcDbLine
 10
-4.244500025449528
 20
-1.579854826970321
 30
0.0
 11
-4.933524315742401
 21
-1.579854826970321
 31
0.0
  0
LINE
  5
21A
330
1F
100
AcDbEntity
  8
0
100
AcDbLine
 10
-0.8648923589638334
 20
-1.579854826970324
 30
0.0
 11
-1.553916649256706
 21
-1.579854826970324
 31
0.0
  0
LINE
  5
21B
330
1F
100
AcDbEntity
  8
0
100
AcDbLine
 10
-0.8648923589638334
 20
-0.890830536677449
 30
0.0
 11
-0.8648923589638334
 21
-1.579854826970324
 31
0.0
  0
LINE
  5
21C
330
1F
100
AcDbEntity
  8
0
100
AcDbLine
 10
-3.399598108828104
 20
-1.579854826970324
 30
0.0
 11
-4.088622399120977
 21
-1.579854826970324
 31
0.0
  0
LINE
  5
21D
330
1F
100
AcDbEntity
  8
0
100
AcDbLine
 10
-4.088622399120977
 20
-1.579854826970324
 30
0.0
 11
-4.088622399120977
 21
-0.890830536677449
 31
0.0
  0
LINE
  5
21E
330
1F
100
AcDbEntity
  8
0
100
AcDbLine
 10
-5.089401942070952
 20
-1.579854826970321
 30
0.0
 11
-5.778426232363826
 21
-1.579854826970321
 31
0.0
  0
LINE
  5
21F
330
1F
100
AcDbEntity
  8
0
100
AcDbLine
 10
-5.778426232363826
 20
-0.8908305366774485
 30
0.0
 11
-5.089401942070952
 21
-0.8908305366774485
 31
0.0
  0
LINE
  5
220
330
1F
100
AcDbEntity
  8
0
100
AcDbLine
 10
-5.778426232363826
 20
-1.579854826970321
 30
0.0
 11
-5.778426232363826
 21
-0.8908305366774485
 31
0.0
  0
LINE
  5
221
330
1F
100
AcDbEntity
  8
0
100
AcDbLine
 10
-1.553916649256706
 20
-0.890830536677449
 30
0.0
 11
-0.8648923589638334
 21
-0.890830536677449
 31
0.0
  0
LINE
  5
222
330
1F
100
AcDbEntity
  8
0
100
AcDbLine
 10
-3.399598108828104
 20
-0.890830536677449
 30
0.0
 11
-3.399598108828104
 21
-1.579854826970324
 31
0.0
  0
LINE
  5
223
330
1F
100
AcDbEntity
  8
0
100
AcDbLine
 10
1.036701727442809
 20
0.1099490062725199
 30
0.0
 11
0.3476774371499365
 21
0.1099490062725199
 31
0.0
  0
LINE
  5
224
330
1F
100
AcDbEntity
  8
0
100
AcDbLine
 10
-2.187028312714338
 20
0.7989732965653956
 30
0.0
 11
-1.498004022421465
 21
0.7989732965653956
 31
0.0
  0
LINE
  5
225
330
1F
100
AcDbEntity
  8
0
100
AcDbLine
 10
1.19257935377136
 20
0.7989732965653961
 30
0.0
 11
1.881603644064233
 21
0.7989732965653961
 31
0.0
  0
LINE
  5
226
330
1F
100
AcDbEntity
  8
0
100
AcDbLine
 10
-2.342905939042889
 20
0.1099490062725234
 30
0.0
 11
-3.031930229335763
 21
0.1099490062725234
 31
0.0
  0
LINE
  5
227
330
1F
100
AcDbEntity
  8
0
100
AcDbLine
 10
0.1917998108213851
 20
0.1099490062725234
 30
0.0
 11
-0.4972244794714876
 21
0.1099490062725234
 31
0.0
  0
LINE
  5
228
330
1F
100
AcDbEntity
  8
0
100
AcDbLine
 10
-0.4972244794714876
 20
0.7989732965653961
 30
0.0
 11
0.1917998108213851
 21
0.7989732965653961
 31
0.0
  0
LINE
  5
229
330
1F
100
AcDbEntity
  8
0
100
AcDbLine
 10
-6.411537895821461
 20
0.7989732965653961
 30
0.0
 11
-5.722513605528587
 21
0.7989732965653961
 31
0.0
  0
LINE
  5
22A
330
1F
100
AcDbEntity
  8
0
100
AcDbLine
 10
-6.411537895821461
 20
0.1099490062725234
 30
0.0
 11
-6.411537895821461
 21
0.7989732965653961
 31
0.0
  0
LINE
  5
22B
330
1F
100
AcDbEntity
  8
0
100
AcDbLine
 10
-7.835897945099012
 20
0.7989732965653956
 30
0.0
 11
-7.835897945099012
 21
0.1099490062725199
 31
0.0
  0
LINE
  5
22C
330
1F
100
AcDbEntity
  8
0
100
AcDbLine
 10
-5.722513605528587
 20
0.1099490062725234
 30
0.0
 11
-6.411537895821461
 21
0.1099490062725234
 31
0.0
  0
LINE
  5
22D
330
1F
100
AcDbEntity
  8
0
100
AcDbLine
 10
-5.566635979200036
 20
0.7989732965653961
 30
0.0
 11
-4.877611688907161
 21
0.7989732965653961
 31
0.0
  0
LINE
  5
22E
330
1F
100
AcDbEntity
  8
0
100
AcDbLine
 10
-4.877611688907161
 20
0.7989732965653961
 30
0.0
 11
-4.877611688907161
 21
0.1099490062725234
 31
0.0
  0
LINE
  5
22F
330
1F
100
AcDbEntity
  8
0
100
AcDbLine
 10
-4.877611688907161
 20
0.1099490062725234
 30
0.0
 11
-5.566635979200036
 21
0.1099490062725234
 31
0.0
  0
LINE
  5
230
330
1F
100
AcDbEntity
  8
0
100
AcDbLine
 10
-5.566635979200036
 20
0.1099490062725234
 30
0.0
 11
-5.566635979200036
 21
0.7989732965653961
 31
0.0
  0
LINE
  5
231
330
1F
100
AcDbEntity
  8
0
100
AcDbLine
 10
-8.524922235391887
 20
0.7989732965653956
 30
0.0
 11
-7.835897945099012
 21
0.7989732965653956
 31
0.0
  0
LINE
  5
232
330
1F
100
AcDbEntity
  8
0
100
AcDbLine
 10
-5.722513605528587
 20
0.7989732965653961
 30
0.0
 11
-5.722513605528587
 21
0.1099490062725234
 31
0.0
  0
LINE
  5
233
330
1F
100
AcDbEntity
  8
0
100
AcDbLine
 10
-6.199747642657678
 20
-0.7349529103488931
 30
0.0
 11
-6.199747642657678
 21
-0.0459286200560204
 31
0.0
  0
LINE
  5
234
330
1F
100
AcDbEntity
  8
0
100
AcDbLine
 10
-6.199747642657678
 20
-0.0459286200560204
 30
0.0
 11
-5.510723352364816
 21
-0.0459286200560204
 31
0.0
  0
LINE
  5
235
330
1F
100
AcDbEntity
  8
0
100
AcDbLine
 10
-5.510723352364816
 20
-0.0459286200560204
 30
0.0
 11
-5.510723352364816
 21
-0.7349529103488931
 31
0.0
  0
LINE
  5
236
330
1F
100
AcDbEntity
  8
0
100
AcDbLine
 10
-5.510723352364816
 20
-0.7349529103488931
 30
0.0
 11
-6.199747642657678
 21
-0.7349529103488931
 31
0.0
  0
LINE
  5
237
330
1F
100
AcDbEntity
  8
0
100
AcDbLine
 10
1.825691017228989
 20
-1.57985482697032
 30
0.0
 11
1.825691017228989
 21
-0.890830536677455
 31
0.0
  0
LINE
  5
238
330
1F
100
AcDbEntity
  8
0
100
AcDbLine
 10
2.514715307521862
 20
-1.57985482697032
 30
0.0
 11
1.825691017228989
 21
-1.57985482697032
 31
0.0
  0
LINE
  5
239
330
1F
100
AcDbEntity
  8
0
100
AcDbLine
 10
1.825691017228989
 20
-0.890830536677455
 30
0.0
 11
2.514715307521862
 21
-0.890830536677455
 31
0.0
  0
LINE
  5
23A
330
1F
100
AcDbEntity
  8
0
100
AcDbLine
 10
2.514715307521862
 20
-0.890830536677455
 30
0.0
 11
2.514715307521862
 21
-1.57985482697032
 31
0.0
  0
LINE
  5
23B
330
1F
100
AcDbEntity
  8
0
100
AcDbLine
 10
-8.524922235391887
 20
0.7989732965653956
 30
0.0
 11
-8.524922235391887
 21
0.1099490062725199
 31
0.0
  0
LINE
  5
23C
330
1F
100
AcDbEntity
  8
0
100
AcDbLine
 10
-7.835897945099012
 20
0.1099490062725199
 30
0.0
 11
-8.524922235391887
 21
0.1099490062725199
 31
0.0
  0
LINE
  5
23D
330
1F
100
AcDbEntity
  8
0
100
AcDbLine
 10
-8.736712488555682
 20
-0.0459286200560285
 30
0.0
 11
-8.047688198262808
 21
-0.0459286200560285
 31
0.0
  0
LINE
  5
23E
330
1F
100
AcDbEntity
  8
0
100
AcDbLine
 10
-8.047688198262808
 20
-0.0459286200560285
 30
0.0
 11
-8.047688198262808
 21
-0.7349529103489042
 31
0.0
  0
LINE
  5
23F
330
1F
100
AcDbEntity
  8
0
100
AcDbLine
 10
-8.047688198262808
 20
-0.7349529103489042
 30
0.0
 11
-8.736712488555682
 21
-0.7349529103489042
 31
0.0
  0
LINE
  5
240
330
1F
100
AcDbEntity
  8
0
100
AcDbLine
 10
-8.736712488555682
 20
-0.7349529103489042
 30
0.0
 11
-8.736712488555682
 21
-0.0459286200560285
 31
0.0
  0
LINE
  5
241
330
1F
100
AcDbEntity
  8
0
100
AcDbLine
 10
2.670592933850413
 20
-0.890830536677455
 30
0.0
 11
3.359617224143286
 21
-0.890830536677455
 31
0.0
  0
LINE
  5
242
330
1F
100
AcDbEntity
  8
0
100
AcDbLine
 10
3.359617224143286
 20
-1.57985482697032
 30
0.0
 11
2.670592933850413
 21
-1.57985482697032
 31
0.0
  0
LINE
  5
243
330
1F
100
AcDbEntity
  8
0
100
AcDbLine
 10
3.359617224143286
 20
-0.890830536677455
 30
0.0
 11
3.359617224143286
 21
-1.57985482697032
 31
0.0
  0
LINE
  5
244
330
1F
100
AcDbEntity
  8
0
100
AcDbLine
 10
2.670592933850413
 20
-1.57985482697032
 30
0.0
 11
2.670592933850413
 21
-0.890830536677455
 31
0.0
  0
LINE
  5
245
330
1F
100
AcDbEntity
  8
0
100
AcDbLine
 10
-6.339444569080523
 20
-1.735732453298874
 30
0.0
 11
-5.65042027878765
 21
-1.735732453298874
 31
0.0
  0
LINE
  5
246
330
1F
100
AcDbEntity
  8
0
100
AcDbLine
 10
-5.65042027878765
 20
-2.424756743591748
 30
0.0
 11
-6.339444569080523
 21
-2.424756743591748
 31
0.0
  0
LINE
  5
247
330
1F
100
AcDbEntity
  8
0
100
AcDbLine
 10
-5.65042027878765
 20
-1.735732453298874
 30
0.0
 11
-5.65042027878765
 21
-2.424756743591748
 31
0.0
  0
LINE
  5
248
330
1F
100
AcDbEntity
  8
0
100
AcDbLine
 10
-6.339444569080523
 20
-2.424756743591748
 30
0.0
 11
-6.339444569080523
 21
-1.735732453298874
 31
0.0
  0
LINE
  5
249
330
1F
100
AcDbEntity
  8
0
100
AcDbLine
 10
4.628099647092297
 20
0.7989732965653945
 30
0.0
 11
4.628099647092297
 21
0.1099490062725219
 31
0.0
  0
LINE
  5
24A
330
1F
100
AcDbEntity
  8
0
100
AcDbLine
 10
4.628099647092297
 20
0.1099490062725219
 30
0.0
 11
3.939075356799425
 21
0.1099490062725219
 31
0.0
  0
LINE
  5
24B
330
1F
100
AcDbEntity
  8
0
100
AcDbLine
 10
3.939075356799425
 20
0.1099490062725219
 30
0.0
 11
3.939075356799425
 21
0.7989732965653945
 31
0.0
  0
LINE
  5
24C
330
1F
100
AcDbEntity
  8
0
100
AcDbLine
 10
4.416309393928505
 20
-1.57985482697032
 30
0.0
 11
3.727285103635632
 21
-1.57985482697032
 31
0.0
  0
LINE
  5
24D
330
1F
100
AcDbEntity
  8
0
100
AcDbLine
 10
3.727285103635632
 20
-0.890830536677455
 30
0.0
 11
4.416309393928505
 21
-0.890830536677455
 31
0.0
  0
LINE
  5
24E
330
1F
100
AcDbEntity
  8
0
100
AcDbLine
 10
3.727285103635632
 20
-1.57985482697032
 30
0.0
 11
3.727285103635632
 21
-0.890830536677455
 31
0.0
  0
LINE
  5
24F
330
1F
100
AcDbEntity
  8
0
100
AcDbLine
 10
4.416309393928505
 20
-0.890830536677455
 30
0.0
 11
4.416309393928505
 21
-1.57985482697032
 31
0.0
  0
LINE
  5
250
330
1F
100
AcDbEntity
  8
0
100
AcDbLine
 10
-5.248232790910084
 20
-2.424756743591747
 30
0.0
 11
-5.248232790910084
 21
-1.735732453298872
 31
0.0
  0
LINE
  5
251
330
1F
100
AcDbEntity
  8
0
100
AcDbLine
 10
-5.248232790910084
 20
-1.735732453298872
 30
0.0
 11
-4.559208500617213
 21
-1.735732453298872
 31
0.0
  0
LINE
  5
252
330
1F
100
AcDbEntity
  8
0
100
AcDbLine
 10
-4.559208500617213
 20
-1.735732453298872
 30
0.0
 11
-4.559208500617213
 21
-2.424756743591747
 31
0.0
  0
LINE
  5
253
330
1F
100
AcDbEntity
  8
0
100
AcDbLine
 10
-4.559208500617213
 20
-2.424756743591747
 30
0.0
 11
-5.248232790910084
 21
-2.424756743591747
 31
0.0
  0
LINE
  5
254
330
1F
100
AcDbEntity
  8
0
100
AcDbLine
 10
-8.526210545607213
 20
-0.8908305366774505
 30
0.0
 11
-7.83718625531434
 21
-0.8908305366774505
 31
0.0
  0
LINE
  5
255
330
1F
100
AcDbEntity
  8
0
100
AcDbLine
 10
-7.83718625531434
 20
-0.8908305366774505
 30
0.0
 11
-7.83718625531434
 21
-1.579854826970326
 31
0.0
  0
LINE
  5
256
330
1F
100
AcDbEntity
  8
0
100
AcDbLine
 10
-7.83718625531434
 20
-1.579854826970326
 30
0.0
 11
-8.526210545607213
 21
-1.579854826970326
 31
0.0
  0
LINE
  5
257
330
1F
100
AcDbEntity
  8
0
100
AcDbLine
 10
-8.526210545607213
 20
-1.579854826970326
 30
0.0
 11
-8.526210545607213
 21
-0.8908305366774505
 31
0.0
  0
LINE
  5
258
330
1F
100
AcDbEntity
  8
0
100
AcDbLine
 10
-7.468230065606674
 20
0.7989823718994608
 30
0.0
 11
-6.779205775313797
 21
0.7989823718994608
 31
0.0
  0
LINE
  5
259
330
1F
100
AcDbEntity
  8
0
100
AcDbLine
 10
-7.468230065606674
 20
0.7989823718994608
 30
0.0
 11
-7.468230065606674
 21
0.109958081606585
 31
0.0
  0
LINE
  5
25A
330
1F
100
AcDbEntity
  8
0
100
AcDbLine
 10
-6.779205775313797
 20
0.109958081606585
 30
0.0
 11
-7.468230065606674
 21
0.109958081606585
 31
0.0
  0
LINE
  5
25B
330
1F
100
AcDbEntity
  8
0
100
AcDbLine
 10
-6.779205775313797
 20
0.7989823718994608
 30
0.0
 11
-6.779205775313797
 21
0.109958081606585
 31
0.0
  0
LINE
  5
25C
330
1F
100
AcDbEntity
  8
0
100
AcDbLine
 10
-4.629252318697082
 20
-3.677707881308742
 30
0.0
 11
-4.65665999424002
 21
-3.681316170247035
 31
0.0
  0
LINE
  5
25D
330
1F
100
AcDbEntity
  8
0
100
AcDbLine
 10
-4.65665999424002
 20
-3.681316170247035
 30
0.0
 11
-4.682199881988031
 21
-3.691895138133748
 31
0.0
  0
LINE
  5
25E
330
1F
100
AcDbEntity
  8
0
100
AcDbLine
 10
-4.682199881988031
 20
-3.691895138133748
 30
0.0
 11
-4.704131480797749
 21
-3.708723845789972
 31
0.0
  0
LINE
  5
25F
330
1F
100
AcDbEntity
  8
0
100
AcDbLine
 10
-4.704131480797749
 20
-3.708723845789972
 30
0.0
 11
-4.720960188453973
 21
-3.73065544459969
 31
0.0
  0
LINE
  5
260
330
1F
100
AcDbEntity
  8
0
100
AcDbLine
 10
-4.720960188453973
 20
-3.73065544459969
 30
0.0
 11
-4.731539156340686
 21
-3.756195332347702
 31
0.0
  0
LINE
  5
261
330
1F
100
AcDbEntity
  8
0
100
AcDbLine
 10
-4.731539156340686
 20
-3.756195332347702
 30
0.0
 11
-4.735147445278979
 21
-3.783603007890639
 31
0.0
  0
LINE
  5
262
330
1F
100
AcDbEntity
  8
0
100
AcDbLine
 10
-4.735147445278979
 20
-3.783603007890639
 30
0.0
 11
-4.731539156340686
 21
-3.811010683433576
 31
0.0
  0
LINE
  5
263
330
1F
100
AcDbEntity
  8
0
100
AcDbLine
 10
-4.731539156340686
 20
-3.811010683433576
 30
0.0
 11
-4.720960188453973
 21
-3.836550571181587
 31
0.0
  0
LINE
  5
264
330
1F
100
AcDbEntity
  8
0
100
AcDbLine
 10
-4.720960188453973
 20
-3.836550571181587
 30
0.0
 11
-4.704131480797749
 21
-3.858482169991305
 31
0.0
  0
LINE
  5
265
330
1F
100
AcDbEntity
  8
0
100
AcDbLine
 10
-4.704131480797749
 20
-3.858482169991305
 30
0.0
 11
-4.682199881988031
 21
-3.87531087764753
 31
0.0
  0
LINE
  5
266
330
1F
100
AcDbEntity
  8
0
100
AcDbLine
 10
-4.682199881988031
 20
-3.87531087764753
 30
0.0
 11
-4.65665999424002
 21
-3.885889845534242
 31
0.0
  0
LINE
  5
267
330
1F
100
AcDbEntity
  8
0
100
AcDbLine
 10
-4.65665999424002
 20
-3.885889845534242
 30
0.0
 11
-4.629252318697082
 21
-3.889498134472535
 31
0.0
  0
LINE
  5
268
330
1F
100
AcDbEntity
  8
0
100
AcDbLine
 10
-4.629252318697082
 20
-3.889498134472535
 30
0.0
 11
-4.601844643154145
 21
-3.885889845534242
 31
0.0
  0
LINE
  5
269
330
1F
100
AcDbEntity
  8
0
100
AcDbLine
 10
-4.601844643154145
 20
-3.885889845534242
 30
0.0
 11
-4.576304755406134
 21
-3.87531087764753
 31
0.0
  0
LINE
  5
26A
330
1F
100
AcDbEntity
  8
0
100
AcDbLine
 10
-4.576304755406134
 20
-3.87531087764753
 30
0.0
 11
-4.554373156596416
 21
-3.858482169991305
 31
0.0
  0
LINE
  5
26B
330
1F
100
AcDbEntity
  8
0
100
AcDbLine
 10
-4.554373156596416
 20
-3.858482169991305
 30
0.0
 11
-4.537544448940191
 21
-3.836550571181587
 31
0.0
  0
LINE
  5
26C
330
1F
100
AcDbEntity
  8
0
100
AcDbLine
 10
-4.537544448940191
 20
-3.836550571181587
 30
0.0
 11
-4.526965481053479
 21
-3.811010683433576
 31
0.0
  0
LINE
  5
26D
330
1F
100
AcDbEntity
  8
0
100
AcDbLine
 10
-4.526965481053479
 20
-3.811010683433576
 30
0.0
 11
-4.523357192115186
 21
-3.783603007890639
 31
0.0
  0
LINE
  5
26E
330
1F
100
AcDbEntity
  8
0
100
AcDbLine
 10
-4.523357192115186
 20
-3.783603007890639
 30
0.0
 11
-4.526965481053479
 21
-3.756195332347702
 31
0.0
  0
LINE
  5
26F
330
1F
100
AcDbEntity
  8
0
100
AcDbLine
 10
-4.526965481053479
 20
-3.756195332347702
 30
0.0
 11
-4.537544448940191
 21
-3.73065544459969
 31
0.0
  0
LINE
  5
270
330
1F
100
AcDbEntity
  8
0
100
AcDbLine
 10
-1.703095438869576
 20
-3.756195332347702
 30
0.0
 11
-1.713674406756288
 21
-3.73065544459969
 31
0.0
  0
LINE
  5
271
330
1F
100
AcDbEntity
  8
0
100
AcDbLine
 10
-1.713674406756288
 20
-3.73065544459969
 30
0.0
 11
-1.730503114412512
 21
-3.708723845789972
 31
0.0
  0
LINE
  5
272
330
1F
100
AcDbEntity
  8
0
100
AcDbLine
 10
-1.730503114412512
 20
-3.708723845789972
 30
0.0
 11
-1.752434713222231
 21
-3.691895138133748
 31
0.0
  0
LINE
  5
273
330
1F
100
AcDbEntity
  8
0
100
AcDbLine
 10
-1.752434713222231
 20
-3.691895138133748
 30
0.0
 11
-1.777974600970242
 21
-3.681316170247035
 31
0.0
  0
LINE
  5
274
330
1F
100
AcDbEntity
  8
0
100
AcDbLine
 10
-1.777974600970242
 20
-3.681316170247035
 30
0.0
 11
-1.805382276513179
 21
-3.677707881308742
 31
0.0
  0
LINE
  5
275
330
1F
100
AcDbEntity
  8
0
100
AcDbLine
 10
-1.805382276513179
 20
-3.677707881308742
 30
0.0
 11
-1.832789952056116
 21
-3.681316170247035
 31
0.0
  0
LINE
  5
276
330
1F
100
AcDbEntity
  8
0
100
AcDbLine
 10
-1.832789952056116
 20
-3.681316170247035
 30
0.0
 11
-1.858329839804127
 21
-3.691895138133748
 31
0.0
  0
LINE
  5
277
330
1F
100
AcDbEntity
  8
0
100
AcDbLine
 10
6.198171390546547
 20
1.643875213186822
 30
0.0
 11
6.887195680839419
 21
1.643875213186822
 31
0.0
  0
LINE
  5
278
330
1F
100
AcDbEntity
  8
0
100
AcDbLine
 10
6.198171390546547
 20
0.9548509228939489
 30
0.0
 11
6.198171390546547
 21
1.643875213186822
 31
0.0
  0
LINE
  5
279
330
1F
100
AcDbEntity
  8
0
100
AcDbLine
 10
6.887195680839419
 20
0.9548509228939489
 30
0.0
 11
6.198171390546547
 21
0.9548509228939489
 31
0.0
  0
LINE
  5
27A
330
1F
100
AcDbEntity
  8
0
100
AcDbLine
 10
6.887195680839419
 20
1.643875213186822
 30
0.0
 11
6.887195680839419
 21
0.9548509228939489
 31
0.0
  0
LINE
  5
27B
330
1F
100
AcDbEntity
  8
0
100
AcDbLine
 10
6.198171390546547
 20
0.7989732965653945
 30
0.0
 11
6.887195680839419
 21
0.7989732965653945
 31
0.0
  0
LINE
  5
27C
330
1F
100
AcDbEntity
  8
0
100
AcDbLine
 10
6.198171390546547
 20
0.1099490062725219
 30
0.0
 11
6.198171390546547
 21
0.7989732965653945
 31
0.0
  0
LINE
  5
27D
330
1F
100
AcDbEntity
  8
0
100
AcDbLine
 10
6.887195680839419
 20
0.1099490062725219
 30
0.0
 11
6.198171390546547
 21
0.1099490062725219
 31
0.0
  0
LINE
  5
27E
330
1F
100
AcDbEntity
  8
0
100
AcDbLine
 10
6.887195680839419
 20
0.7989732965653945
 30
0.0
 11
6.887195680839419
 21
0.1099490062725219
 31
0.0
  0
LINE
  5
27F
330
1F
100
AcDbEntity
  8
0
100
AcDbLine
 10
6.887195680839419
 20
-0.04592862005603
 30
0.0
 11
6.887195680839419
 21
-0.7349529103489026
 31
0.0
  0
LINE
  5
280
330
1F
100
AcDbEntity
  8
0
100
AcDbLine
 10
6.198171390546547
 20
-0.04592862005603
 30
0.0
 11
6.887195680839419
 21
-0.04592862005603
 31
0.0
  0
LINE
  5
281
330
1F
100
AcDbEntity
  8
0
100
AcDbLine
 10
6.887195680839419
 20
-0.7349529103489026
 30
0.0
 11
6.198171390546547
 21
-0.7349529103489026
 31
0.0
  0
LINE
  5
282
330
1F
100
AcDbEntity
  8
0
100
AcDbLine
 10
6.198171390546547
 20
-0.7349529103489026
 30
0.0
 11
6.198171390546547
 21
-0.04592862005603
 31
0.0
  0
LINE
  5
283
330
1F
100
AcDbEntity
  8
0
100
AcDbLine
 10
6.198171390546547
 20
-0.8908305366774515
 30
0.0
 11
6.887195680839419
 21
-0.8908305366774515
 31
0.0
  0
LINE
  5
284
330
1F
100
AcDbEntity
  8
0
100
AcDbLine
 10
6.887195680839419
 20
-0.8908305366774515
 30
0.0
 11
6.887195680839419
 21
-1.579854826970324
 31
0.0
  0
LINE
  5
285
330
1F
100
AcDbEntity
  8
0
100
AcDbLine
 10
6.887195680839419
 20
-1.579854826970324
 30
0.0
 11
6.198171390546547
 21
-1.579854826970324
 31
0.0
  0
LINE
  5
286
330
1F
100
AcDbEntity
  8
0
100
AcDbLine
 10
6.198171390546547
 20
-1.579854826970324
 30
0.0
 11
6.198171390546547
 21
-0.8908305366774515
 31
0.0
  0
LINE
  5
287
330
1F
100
AcDbEntity
  8
0
100
AcDbLine
 10
3.727285103635632
 20
0.9548509228939509
 30
0.0
 11
3.727285103635632
 21
1.643875213186824
 31
0.0
  0
LINE
  5
288
330
1F
100
AcDbEntity
  8
0
100
AcDbLine
 10
3.727285103635632
 20
1.643875213186824
 30
0.0
 11
4.416309393928505
 21
1.643875213186824
 31
0.0
  0
LINE
  5
289
330
1F
100
AcDbEntity
  8
0
100
AcDbLine
 10
4.416309393928505
 20
0.9548509228939509
 30
0.0
 11
3.727285103635632
 21
0.9548509228939509
 31
0.0
  0
LINE
  5
28A
330
1F
100
AcDbEntity
  8
0
100
AcDbLine
 10
4.204519140764711
 20
-0.7349529103488937
 30
0.0
 11
3.515494850471839
 21
-0.7349529103488937
 31
0.0
  0
LINE
  5
28B
330
1F
100
AcDbEntity
  8
0
100
AcDbLine
 10
4.204519140764711
 20
-0.045928620056027
 30
0.0
 11
4.204519140764711
 21
-0.7349529103488937
 31
0.0
  0
LINE
  5
28C
330
1F
100
AcDbEntity
  8
0
100
AcDbLine
 10
3.515494850471839
 20
-0.7349529103488937
 30
0.0
 11
3.515494850471839
 21
-0.045928620056027
 31
0.0
  0
LINE
  5
28D
330
1F
100
AcDbEntity
  8
0
100
AcDbLine
 10
3.515494850471839
 20
-0.045928620056027
 30
0.0
 11
4.204519140764711
 21
-0.045928620056027
 31
0.0
  0
LINE
  5
28E
330
1F
100
AcDbEntity
  8
0
100
AcDbLine
 10
-6.779205775313809
 20
-0.7349529103489042
 30
0.0
 11
-7.468230065606682
 21
-0.7349529103489042
 31
0.0
  0
LINE
  5
28F
330
1F
100
AcDbEntity
  8
0
100
AcDbLine
 10
-7.468230065606682
 20
-0.0459286200560285
 30
0.0
 11
-6.779205775313809
 21
-0.0459286200560285
 31
0.0
  0
LINE
  5
290
330
1F
100
AcDbEntity
  8
0
100
AcDbLine
 10
-6.779205775313809
 20
-0.0459286200560285
 30
0.0
 11
-6.779205775313809
 21
-0.7349529103489042
 31
0.0
  0
LINE
  5
291
330
1F
100
AcDbEntity
  8
0
100
AcDbLine
 10
-7.468230065606682
 20
-0.7349529103489042
 30
0.0
 11
-7.468230065606682
 21
-0.0459286200560285
 31
0.0
  0
LINE
  5
292
330
1F
100
AcDbEntity
  8
0
100
AcDbLine
 10
-7.046908655312833
 20
-1.579854826970326
 30
0.0
 11
-7.046908655312833
 21
-0.8908305366774505
 31
0.0
  0
LINE
  5
293
330
1F
100
AcDbEntity
  8
0
100
AcDbLine
 10
-6.357884365019959
 20
-0.8908305366774505
 30
0.0
 11
-6.357884365019959
 21
-1.579854826970326
 31
0.0
  0
LINE
  5
294
330
1F
100
AcDbEntity
  8
0
100
AcDbLine
 10
-7.046908655312833
 20
-0.8908305366774505
 30
0.0
 11
-6.357884365019959
 21
-0.8908305366774505
 31
0.0
  0
LINE
  5
295
330
1F
100
AcDbEntity
  8
0
100
AcDbLine
 10
-6.357884365019959
 20
-1.579854826970326
 30
0.0
 11
-7.046908655312833
 21
-1.579854826970326
 31
0.0
  0
LINE
  5
296
330
1F
100
AcDbEntity
  8
0
100
AcDbLine
 10
3.939075356799425
 20
0.7989732965653945
 30
0.0
 11
4.628099647092297
 21
0.7989732965653945
 31
0.0
  0
LINE
  5
297
330
1F
100
AcDbEntity
  8
0
100
AcDbLine
 10
4.416309393928505
 20
1.643875213186824
 30
0.0
 11
4.416309393928505
 21
0.9548509228939509
 31
0.0
  0
LINE
  5
298
330
1F
100
AcDbEntity
  8
0
100
AcDbLine
 10
-4.168101778587647
 20
-1.735732453298878
 30
0.0
 11
-3.479077488294775
 21
-1.735732453298878
 31
0.0
  0
LINE
  5
299
330
1F
100
AcDbEntity
  8
0
100
AcDbLine
 10
-3.479077488294775
 20
-2.424756743591752
 30
0.0
 11
-4.168101778587647
 21
-2.424756743591752
 31
0.0
  0
LINE
  5
29A
330
1F
100
AcDbEntity
  8
0
100
AcDbLine
 10
-3.479077488294775
 20
-1.735732453298878
 30
0.0
 11
-3.479077488294775
 21
-2.424756743591752
 31
0.0
  0
LINE
  5
29B
330
1F
100
AcDbEntity
  8
0
100
AcDbLine
 10
-4.168101778587647
 20
-2.424756743591752
 30
0.0
 11
-4.168101778587647
 21
-1.735732453298878
 31
0.0
  0
LINE
  5
29C
330
1F
100
AcDbEntity
  8
0
100
AcDbLine
 10
-1.255557770039733
 20
-1.735732453298878
 30
0.0
 11
-1.255557770039733
 21
-2.424756743591752
 31
0.0
  0
LINE
  5
29D
330
1F
100
AcDbEntity
  8
0
100
AcDbLine
 10
-1.944582060332605
 20
-2.424756743591752
 30
0.0
 11
-1.944582060332605
 21
-1.735732453298878
 31
0.0
  0
LINE
  5
29E
330
1F
100
AcDbEntity
  8
0
100
AcDbLine
 10
-1.255557770039733
 20
-2.424756743591752
 30
0.0
 11
-1.944582060332605
 21
-2.424756743591752
 31
0.0
  0
LINE
  5
29F
330
1F
100
AcDbEntity
  8
0
100
AcDbLine
 10
-1.944582060332605
 20
-1.735732453298878
 30
0.0
 11
-1.255557770039733
 21
-1.735732453298878
 31
0.0
  0
LINE
  5
2A0
330
1F
100
AcDbEntity
  8
0
100
AcDbLine
 10
0.9679619482153086
 20
-2.424756743591752
 30
0.0
 11
0.2789376579224369
 21
-2.424756743591752
 31
0.0
  0
LINE
  5
2A1
330
1F
100
AcDbEntity
  8
0
100
AcDbLine
 10
0.9679619482153086
 20
-1.735732453298878
 30
0.0
 11
0.9679619482153086
 21
-2.424756743591752
 31
0.0
  0
LINE
  5
2A2
330
1F
100
AcDbEntity
  8
0
100
AcDbLine
 10
0.2789376579224369
 20
-1.735732453298878
 30
0.0
 11
0.9679619482153086
 21
-1.735732453298878
 31
0.0
  0
LINE
  5
2A3
330
1F
100
AcDbEntity
  8
0
100
AcDbLine
 10
0.2789376579224369
 20
-2.424756743591752
 30
0.0
 11
0.2789376579224369
 21
-1.735732453298878
 31
0.0
  0
LINE
  5
2A4
330
1F
100
AcDbEntity
  8
0
100
AcDbLine
 10
4.901309073673589
 20
0.0459992108556851
 30
0.0
 11
4.901309073673589
 21
0.0485298328550217
 31
0.0
  0
LINE
  5
2A5
330
1F
100
AcDbEntity
  8
0
 62
   250
100
AcDbLine
 10
-8.970952508554833
 20
3.32893655930759
 30
0.0
 11
-8.970952508554833
 21
4.004819306593854
 31
0.0
  0
LINE
  5
2A6
330
1F
100
AcDbEntity
  8
0
 62
   250
100
AcDbLine
 10
-2.299559533895363
 20
3.32893655930759
 30
0.0
 11
-2.299559533895363
 21
4.004819306593854
 31
0.0
  0
LINE
  5
2A7
330
1F
100
AcDbEntity
  8
0
 62
   250
100
AcDbLine
 10
-8.970952508554833
 20
3.951954844855383
 30
0.0
 11
-6.148041300088264
 21
3.951954844855383
 31
0.0
  0
LINE
  5
2A8
330
1F
100
AcDbEntity
  8
0
 62
   250
100
AcDbLine
 10
-5.122470742361934
 20
3.951954844855383
 30
0.0
 11
-2.299559533895363
 21
3.951954844855383
 31
0.0
  0
LINE
  5
2A9
330
1F
100
AcDbEntity
  8
0
 62
   250
100
AcDbLine
 10
-2.299559533895363
 20
2.764162550870809
 30
0.0
 11
-2.299559533895363
 21
4.004819306593854
 31
0.0
  0
LINE
  5
2AA
330
1F
100
AcDbEntity
  8
0
 62
   250
100
AcDbLine
 10
1.477366647525607
 20
2.764162550870809
 30
0.0
 11
1.477366647525607
 21
4.004819306593854
 31
0.0
  0
LINE
  5
2AB
330
1F
100
AcDbEntity
  8
0
 62
   250
100
AcDbLine
 10
-2.299559533895363
 20
3.951954844855383
 30
0.0
 11
-0.923881722048042
 21
3.951954844855383
 31
0.0
  0
LINE
  5
2AC
330
1F
100
AcDbEntity
  8
0
 62
   250
100
AcDbLine
 10
0.1016888356782868
 20
3.951954844855383
 30
0.0
 11
1.477366647525607
 21
3.951954844855383
 31
0.0
  0
LINE
  5
2AD
330
1F
100
AcDbEntity
  8
0
 62
   250
100
AcDbLine
 10
1.477366647525607
 20
3.32893655930759
 30
0.0
 11
1.477366647525607
 21
4.004819306593854
 31
0.0
  0
LINE
  5
2AE
330
1F
100
AcDbEntity
  8
0
 62
   250
100
AcDbLine
 10
8.148759622185079
 20
3.32893655930759
 30
0.0
 11
8.148759622185079
 21
4.004819306593854
 31
0.0
  0
LINE
  5
2AF
330
1F
100
AcDbEntity
  8
0
 62
   250
100
AcDbLine
 10
1.477366647525607
 20
3.951954844855383
 30
0.0
 11
4.300277855992176
 21
3.951954844855383
 31
0.0
  0
LINE
  5
2B0
330
1F
100
AcDbEntity
  8
0
 62
   250
100
AcDbLine
 10
5.325848413718505
 20
3.951954844855383
 30
0.0
 11
8.148759622185079
 21
3.951954844855383
 31
0.0
  0
LINE
  5
2B1
330
1F
100
AcDbEntity
  8
0
 62
   250
100
AcDbLine
 10
-8.970952508554833
 20
3.32893655930759
 30
0.0
 11
-8.970952508554833
 21
4.938392222386859
 31
0.0
  0
LINE
  5
2B2
330
1F
100
AcDbEntity
  8
0
 62
   250
100
AcDbLine
 10
8.148759622185079
 20
3.32893655930759
 30
0.0
 11
8.148759622185079
 21
4.938392222386859
 31
0.0
  0
LINE
  5
2B3
330
1F
100
AcDbEntity
  8
0
 62
   250
100
AcDbLine
 10
-8.970952508554833
 20
4.885527760648388
 30
0.0
 11
-0.9820326299603588
 21
4.885527760648388
 31
0.0
  0
LINE
  5
2B4
330
1F
100
AcDbEntity
  8
0
 62
   250
100
AcDbLine
 10
0.1598397435906063
 20
4.885527760648388
 30
0.0
 11
8.148759622185079
 21
4.885527760648388
 31
0.0
  0
LINE
  5
2B5
330
1F
100
AcDbEntity
  8
0
 62
   250
100
AcDbLine
 10
-9.023816970293304
 20
3.276072097569119
 30
0.0
 11
-10.84638614055254
 21
3.276072097569118
 31
0.0
  0
LINE
  5
2B6
330
1F
100
AcDbEntity
  8
0
 62
   250
100
AcDbLine
 10
-9.023816970293304
 20
2.552455399259494
 30
0.0
 11
-10.84638614055254
 21
2.552455399259493
 31
0.0
  0
LINE
  5
2B7
330
1F
100
AcDbEntity
  8
0
 62
   250
100
AcDbLine
 10
-10.79352167881406
 20
3.276072097569118
 30
0.0
 11
-10.79352167881407
 21
3.072857133629717
 31
0.0
  0
LINE
  5
2B8
330
1F
100
AcDbEntity
  8
0
 62
   250
100
AcDbLine
 10
-10.79352167881407
 20
2.755670363198894
 30
0.0
 11
-10.79352167881406
 21
2.552455399259493
 31
0.0
  0
LINE
  5
2B9
330
1F
100
AcDbEntity
  8
0
 62
   250
100
AcDbLine
 10
-2.246695072156893
 20
3.276072097569119
 30
0.0
 11
-0.3509689661034466
 21
3.27607209756912
 31
0.0
  0
LINE
  5
2BA
330
1F
100
AcDbEntity
  8
0
 62
   250
100
AcDbLine
 10
-2.246695072156893
 20
2.711298089132338
 30
0.0
 11
-0.3509689661034463
 21
2.711298089132339
 31
0.0
  0
LINE
  5
2BB
330
1F
100
AcDbEntity
  8
0
 62
   250
100
AcDbLine
 10
-0.4038334278419172
 20
3.27607209756912
 30
0.0
 11
-0.403833427841918
 21
3.152278478566142
 31
0.0
  0
LINE
  5
2BC
330
1F
100
AcDbEntity
  8
0
 62
   250
100
AcDbLine
 10
-0.4038334278419178
 20
2.835091708135317
 30
0.0
 11
-0.403833427841917
 21
2.711298089132339
 31
0.0
  0
LINE
  5
2BD
330
1F
100
AcDbEntity
  8
0
 62
   250
100
AcDbLine
 10
-9.023816970293304
 20
2.552455399259494
 30
0.0
 11
-10.84638614055254
 21
2.552455399259493
 31
0.0
  0
LINE
  5
2BE
330
1F
100
AcDbEntity
  8
0
 62
   250
100
AcDbLine
 10
-9.023816970293304
 20
1.705294386604323
 30
0.0
 11
-10.84638614055254
 21
1.705294386604322
 31
0.0
  0
LINE
  5
2BF
330
1F
100
AcDbEntity
  8
0
 62
   250
100
AcDbLine
 10
-10.79352167881406
 20
2.552455399259493
 30
0.0
 11
-10.79352167881407
 21
2.287468278147321
 31
0.0
  0
LINE
  5
2C0
330
1F
100
AcDbEntity
  8
0
 62
   250
100
AcDbLine
 10
-10.79352167881407
 20
1.970281507716497
 30
0.0
 11
-10.79352167881406
 21
1.705294386604322
 31
0.0
  0
LINE
  5
2C1
330
1F
100
AcDbEntity
  8
0
 62
   250
100
AcDbLine
 10
-9.023816970293304
 20
-4.065990012109029
 30
0.0
 11
-10.84638614055253
 21
-4.06599001210903
 31
0.0
  0
LINE
  5
2C2
330
1F
100
AcDbEntity
  8
0
 62
   250
100
AcDbLine
 10
-9.023816970293304
 20
-3.342373313799404
 30
0.0
 11
-10.84638614055253
 21
-3.342373313799405
 31
0.0
  0
LINE
  5
2C3
330
1F
100
AcDbEntity
  8
0
 62
   250
100
AcDbLine
 10
-10.79352167881406
 20
-4.06599001210903
 30
0.0
 11
-10.79352167881406
 21
-3.862775048169629
 31
0.0
  0
LINE
  5
2C4
330
1F
100
AcDbEntity
  8
0
 62
   250
100
AcDbLine
 10
-10.79352167881406
 20
-3.545588277738805
 30
0.0
 11
-10.79352167881406
 21
-3.342373313799405
 31
0.0
  0
LINE
  5
2C5
330
1F
100
AcDbEntity
  8
0
 62
   250
100
AcDbLine
 10
-9.023816970293304
 20
-3.342373313799404
 30
0.0
 11
-10.84638614055253
 21
-3.342373313799404
 31
0.0
  0
LINE
  5
2C6
330
1F
100
AcDbEntity
  8
0
 62
   250
100
AcDbLine
 10
-9.023816970293304
 20
-2.495212301144233
 30
0.0
 11
-10.84638614055253
 21
-2.495212301144234
 31
0.0
  0
LINE
  5
2C7
330
1F
100
AcDbEntity
  8
0
 62
   250
100
AcDbLine
 10
-10.79352167881406
 20
-3.342373313799404
 30
0.0
 11
-10.79352167881406
 21
-3.077386192687231
 31
0.0
  0
LINE
  5
2C8
330
1F
100
AcDbEntity
  8
0
 62
   250
100
AcDbLine
 10
-10.79352167881406
 20
-2.760199422256406
 30
0.0
 11
-10.79352167881406
 21
-2.495212301144234
 31
0.0
  0
LINE
  5
2C9
330
1F
100
AcDbEntity
  8
0
 62
   250
100
AcDbLine
 10
-8.970952508554833
 20
2.552455399259494
 30
0.0
 11
-10.99784909017208
 21
2.551817813660571
 31
0.0
  0
LINE
  5
2CA
330
1F
100
AcDbEntity
  8
0
 62
   250
100
AcDbLine
 10
-10.99784909017208
 20
2.551817813660571
 30
0.0
 11
-11.20930693712596
 21
2.551817813660571
 31
0.0
  0
LINE
  5
2CB
330
1F
100
AcDbEntity
  8
0
 62
   250
100
AcDbLine
 10
-8.970952508554833
 20
1.705294386604323
 30
0.0
 11
-11.00123603663666
 21
1.705915811493464
 31
0.0
  0
LINE
  5
2CC
330
1F
100
AcDbEntity
  8
0
 62
   250
100
AcDbLine
 10
-11.00123603663666
 20
1.705915811493464
 30
0.0
 11
-11.21269388359054
 21
1.705915811493464
 31
0.0
  0
LINE
  5
2CD
330
1F
100
AcDbEntity
  8
0
 62
   250
100
AcDbLine
 10
-8.970952508554833
 20
-3.342373313799404
 30
0.0
 11
-10.98184052196207
 21
-3.347560964857203
 31
0.0
  0
LINE
  5
2CE
330
1F
100
AcDbEntity
  8
0
 62
   250
100
AcDbLine
 10
-10.98184052196207
 20
-3.347560964857203
 30
0.0
 11
-11.19329836891595
 21
-3.347560964857203
 31
0.0
  0
LINE
  5
2CF
330
1F
100
AcDbEntity
  8
0
 62
   250
100
AcDbLine
 10
-8.970952508554833
 20
-2.495212301144233
 30
0.0
 11
-10.98314641785577
 21
-2.494475510976877
 31
0.0
  0
LINE
  5
2D0
330
1F
100
AcDbEntity
  8
0
 62
   250
100
AcDbLine
 10
-10.98314641785577
 20
-2.494475510976877
 30
0.0
 11
-11.19460426480965
 21
-2.494475510976877
 31
0.0
  0
LINE
  5
2D1
330
1F
100
AcDbEntity
  8
0
 62
   250
100
AcDbLine
 10
8.201624083923548
 20
-4.065990012109029
 30
0.0
 11
10.13091022273551
 21
-4.065990012109028
 31
0.0
  0
LINE
  5
2D2
330
1F
100
AcDbEntity
  8
0
 62
   250
100
AcDbLine
 10
8.201624083923548
 20
3.276072097569119
 30
0.0
 11
10.13091022273551
 21
3.27607209756912
 31
0.0
  0
LINE
  5
2D3
330
1F
100
AcDbEntity
  8
0
 62
   250
100
AcDbLine
 10
10.07804576099704
 20
-4.065990012109029
 30
0.0
 11
10.07804576099704
 21
-0.5535523424853666
 31
0.0
  0
LINE
  5
2D4
330
1F
100
AcDbEntity
  8
0
 62
   250
100
AcDbLine
 10
10.07804576099703
 20
-0.2363655720545411
 30
0.0
 11
10.07804576099704
 21
3.27607209756912
 31
0.0
  0
LINE
  5
2D5
330
1F
100
AcDbEntity
  8
0
 62
   250
100
AcDbLine
 10
-7.453230308117654
 20
-3.889498079452964
 30
0.0
 11
-7.453014413644317
 21
-3.677707936328313
 31
0.0
  0
LINE
  5
2D6
330
1F
100
AcDbEntity
  8
0
 62
   250
100
AcDbLine
 10
-7.453889105124354
 20
-4.535770817160779
 30
0.0
 11
-7.453230308117654
 21
-3.889498079452964
 31
0.0
  0
LINE
  5
2D7
330
1F
100
AcDbEntity
  8
0
 62
   250
100
AcDbLine
 10
-7.453889105124354
 20
-4.535770817160779
 30
0.0
 11
-7.665346952078237
 21
-4.535770817160779
 31
0.0
  0
POLYLINE
  5
2D8
330
1F
100
AcDbEntity
  8
0
 62
   250
100
AcDbPolyFaceMesh
 66
     1
 10
0.0
 20
0.0
 30
0.0
 70
    64
 71
     3
 72
     1
  0
VERTEX
  5
2D9
330
2D8
100
AcDbEntity
  8
0
100
AcDbVertex
100
AcDbPolyFaceMeshVertex
 10
-8.812359123339421
 20
3.899090383116913
 30
0.0
 70
   192
  0
VERTEX
  5
2DA
330
2D8
100
AcDbEntity
  8
0
100
AcDbVertex
100
AcDbPolyFaceMeshVertex
 10
-8.970952508554833
 20
3.951954844855383
 30
0.0
 70
   192
  0
VERTEX
  5
2DB
330
2D8
100
AcDbEntity
  8
0
100
AcDbVertex
100
AcDbPolyFaceMeshVertex
 10
-8.812359123339421
 20
4.004819306593854
 30
0.0
 70
   192
  0
VERTEX
  5
2DC
330
2D8
100
AcDbEntity
  8
0
 62
   250
100
AcDbFaceRecord
 10
0.0
 20
0.0
 30
0.0
 70
   128
 71
     1
 72
     2
 73
     3
  0
SEQEND
  5
2DD
330
2D8
100
AcDbEntity
  8
0
 62
   250
  0
POLYLINE
  5
2DE
330
1F
100
AcDbEntity
  8
0
 62
   250
100
AcDbPolyFaceMesh
 66
     1
 10
0.0
 20
0.0
 30
0.0
 70
    64
 71
     3
 72
     1
  0
VERTEX
  5
2DF
330
2DE
100
AcDbEntity
  8
0
100
AcDbVertex
100
AcDbPolyFaceMeshVertex
 10
-2.299559533895363
 20
3.951954844855383
 30
0.0
 70
   192
  0
VERTEX
  5
2E0
330
2DE
100
AcDbEntity
  8
0
100
AcDbVertex
100
AcDbPolyFaceMeshVertex
 10
-2.458152919110775
 20
3.899090383116913
 30
0.0
 70
   192
  0
VERTEX
  5
2E1
330
2DE
100
AcDbEntity
  8
0
100
AcDbVertex
100
AcDbPolyFaceMeshVertex
 10
-2.458152919110775
 20
4.004819306593854
 30
0.0
 70
   192
  0
VERTEX
  5
2E2
330
2DE
100
AcDbEntity
  8
0
 62
   250
100
AcDbFaceRecord
 10
0.0
 20
0.0
 30
0.0
 70
   128
 71
     1
 72
     2
 73
     3
  0
SEQEND
  5
2E3
330
2DE
100
AcDbEntity
  8
0
 62
   250
  0
POLYLINE
  5
2E4
330
1F
100
AcDbEntity
  8
0
 62
   250
100
AcDbPolyFaceMesh
 66
     1
 10
0.0
 20
0.0
 30
0.0
 70
    64
 71
     3
 72
     1
  0
VERTEX
  5
2E5
330
2E4
100
AcDbEntity
  8
0
100
AcDbVertex
100
AcDbPolyFaceMeshVertex
 10
-2.140966148679952
 20
3.899090383116913
 30
0.0
 70
   192
  0
VERTEX
  5
2E6
330
2E4
100
AcDbEntity
  8
0
100
AcDbVertex
100
AcDbPolyFaceMeshVertex
 10
-2.299559533895363
 20
3.951954844855383
 30
0.0
 70
   192
  0
VERTEX
  5
2E7
330
2E4
100
AcDbEntity
  8
0
100
AcDbVertex
100
AcDbPolyFaceMeshVertex
 10
-2.140966148679952
 20
4.004819306593854
 30
0.0
 70
   192
  0
VERTEX
  5
2E8
330
2E4
100
AcDbEntity
  8
0
 62
   250
100
AcDbFaceRecord
 10
0.0
 20
0.0
 30
0.0
 70
   128
 71
     1
 72
     2
 73
     3
  0
SEQEND
  5
2E9
330
2E4
100
AcDbEntity
  8
0
 62
   250
  0
POLYLINE
  5
2EA
330
1F
100
AcDbEntity
  8
0
 62
   250
100
AcDbPolyFaceMesh
 66
     1
 10
0.0
 20
0.0
 30
0.0
 70
    64
 71
     3
 72
     1
  0
VERTEX
  5
2EB
330
2EA
100
AcDbEntity
  8
0
100
AcDbVertex
100
AcDbPolyFaceMeshVertex
 10
1.477366647525607
 20
3.951954844855383
 30
0.0
 70
   192
  0
VERTEX
  5
2EC
330
2EA
100
AcDbEntity
  8
0
100
AcDbVertex
100
AcDbPolyFaceMeshVertex
 10
1.318773262310196
 20
3.899090383116913
 30
0.0
 70
   192
  0
VERTEX
  5
2ED
330
2EA
100
AcDbEntity
  8
0
100
AcDbVertex
100
AcDbPolyFaceMeshVertex
 10
1.318773262310196
 20
4.004819306593854
 30
0.0
 70
   192
  0
VERTEX
  5
2EE
330
2EA
100
AcDbEntity
  8
0
 62
   250
100
AcDbFaceRecord
 10
0.0
 20
0.0
 30
0.0
 70
   128
 71
     1
 72
     2
 73
     3
  0
SEQEND
  5
2EF
330
2EA
100
AcDbEntity
  8
0
 62
   250
  0
POLYLINE
  5
2F0
330
1F
100
AcDbEntity
  8
0
 62
   250
100
AcDbPolyFaceMesh
 66
     1
 10
0.0
 20
0.0
 30
0.0
 70
    64
 71
     3
 72
     1
  0
VERTEX
  5
2F1
330
2F0
100
AcDbEntity
  8
0
100
AcDbVertex
100
AcDbPolyFaceMeshVertex
 10
1.635960032741019
 20
3.899090383116913
 30
0.0
 70
   192
  0
VERTEX
  5
2F2
330
2F0
100
AcDbEntity
  8
0
100
AcDbVertex
100
AcDbPolyFaceMeshVertex
 10
1.477366647525607
 20
3.951954844855383
 30
0.0
 70
   192
  0
VERTEX
  5
2F3
330
2F0
100
AcDbEntity
  8
0
100
AcDbVertex
100
AcDbPolyFaceMeshVertex
 10
1.635960032741019
 20
4.004819306593854
 30
0.0
 70
   192
  0
VERTEX
  5
2F4
330
2F0
100
AcDbEntity
  8
0
 62
   250
100
AcDbFaceRecord
 10
0.0
 20
0.0
 30
0.0
 70
   128
 71
     1
 72
     2
 73
     3
  0
SEQEND
  5
2F5
330
2F0
100
AcDbEntity
  8
0
 62
   250
  0
POLYLINE
  5
2F6
330
1F
100
AcDbEntity
  8
0
 62
   250
100
AcDbPolyFaceMesh
 66
     1
 10
0.0
 20
0.0
 30
0.0
 70
    64
 71
     3
 72
     1
  0
VERTEX
  5
2F7
330
2F6
100
AcDbEntity
  8
0
100
AcDbVertex
100
AcDbPolyFaceMeshVertex
 10
8.148759622185079
 20
3.951954844855383
 30
0.0
 70
   192
  0
VERTEX
  5
2F8
330
2F6
100
AcDbEntity
  8
0
100
AcDbVertex
100
AcDbPolyFaceMeshVertex
 10
7.990166236969666
 20
3.899090383116913
 30
0.0
 70
   192
  0
VERTEX
  5
2F9
330
2F6
100
AcDbEntity
  8
0
100
AcDbVertex
100
AcDbPolyFaceMeshVertex
 10
7.990166236969666
 20
4.004819306593854
 30
0.0
 70
   192
  0
VERTEX
  5
2FA
330
2F6
100
AcDbEntity
  8
0
 62
   250
100
AcDbFaceRecord
 10
0.0
 20
0.0
 30
0.0
 70
   128
 71
     1
 72
     2
 73
     3
  0
SEQEND
  5
2FB
330
2F6
100
AcDbEntity
  8
0
 62
   250
  0
POLYLINE
  5
2FC
330
1F
100
AcDbEntity
  8
0
 62
   250
100
AcDbPolyFaceMesh
 66
     1
 10
0.0
 20
0.0
 30
0.0
 70
    64
 71
     3
 72
     1
  0
VERTEX
  5
2FD
330
2FC
100
AcDbEntity
  8
0
100
AcDbVertex
100
AcDbPolyFaceMeshVertex
 10
-8.812359123339421
 20
4.832663298909917
 30
0.0
 70
   192
  0
VERTEX
  5
2FE
330
2FC
100
AcDbEntity
  8
0
100
AcDbVertex
100
AcDbPolyFaceMeshVertex
 10
-8.970952508554833
 20
4.885527760648388
 30
0.0
 70
   192
  0
VERTEX
  5
2FF
330
2FC
100
AcDbEntity
  8
0
100
AcDbVertex
100
AcDbPolyFaceMeshVertex
 10
-8.812359123339421
 20
4.938392222386859
 30
0.0
 70
   192
  0
VERTEX
  5
300
330
2FC
100
AcDbEntity
  8
0
 62
   250
100
AcDbFaceRecord
 10
0.0
 20
0.0
 30
0.0
 70
   128
 71
     1
 72
     2
 73
     3
  0
SEQEND
  5
301
330
2FC
100
AcDbEntity
  8
0
 62
   250
  0
POLYLINE
  5
302
330
1F
100
AcDbEntity
  8
0
 62
   250
100
AcDbPolyFaceMesh
 66
     1
 10
0.0
 20
0.0
 30
0.0
 70
    64
 71
     3
 72
     1
  0
VERTEX
  5
303
330
302
100
AcDbEntity
  8
0
100
AcDbVertex
100
AcDbPolyFaceMeshVertex
 10
8.148759622185079
 20
4.885527760648388
 30
0.0
 70
   192
  0
VERTEX
  5
304
330
302
100
AcDbEntity
  8
0
100
AcDbVertex
100
AcDbPolyFaceMeshVertex
 10
7.990166236969666
 20
4.832663298909917
 30
0.0
 70
   192
  0
VERTEX
  5
305
330
302
100
AcDbEntity
  8
0
100
AcDbVertex
100
AcDbPolyFaceMeshVertex
 10
7.990166236969666
 20
4.938392222386859
 30
0.0
 70
   192
  0
VERTEX
  5
306
330
302
100
AcDbEntity
  8
0
 62
   250
100
AcDbFaceRecord
 10
0.0
 20
0.0
 30
0.0
 70
   128
 71
     1
 72
     2
 73
     3
  0
SEQEND
  5
307
330
302
100
AcDbEntity
  8
0
 62
   250
  0
POLYLINE
  5
308
330
1F
100
AcDbEntity
  8
0
 62
   250
100
AcDbPolyFaceMesh
 66
     1
 10
0.0
 20
0.0
 30
0.0
 70
    64
 71
     3
 72
     1
  0
VERTEX
  5
309
330
308
100
AcDbEntity
  8
0
100
AcDbVertex
100
AcDbPolyFaceMeshVertex
 10
-10.7406572170756
 20
3.117478712353706
 30
0.0
 70
   192
  0
VERTEX
  5
30A
330
308
100
AcDbEntity
  8
0
100
AcDbVertex
100
AcDbPolyFaceMeshVertex
 10
-10.84638614055254
 20
3.117478712353706
 30
0.0
 70
   192
  0
VERTEX
  5
30B
330
308
100
AcDbEntity
  8
0
100
AcDbVertex
100
AcDbPolyFaceMeshVertex
 10
-10.79352167881406
 20
3.276072097569118
 30
0.0
 70
   192
  0
VERTEX
  5
30C
330
308
100
AcDbEntity
  8
0
 62
   250
100
AcDbFaceRecord
 10
0.0
 20
0.0
 30
0.0
 70
   128
 71
     1
 72
     2
 73
     3
  0
SEQEND
  5
30D
330
308
100
AcDbEntity
  8
0
 62
   250
  0
POLYLINE
  5
30E
330
1F
100
AcDbEntity
  8
0
 62
   250
100
AcDbPolyFaceMesh
 66
     1
 10
0.0
 20
0.0
 30
0.0
 70
    64
 71
     3
 72
     1
  0
VERTEX
  5
30F
330
30E
100
AcDbEntity
  8
0
100
AcDbVertex
100
AcDbPolyFaceMeshVertex
 10
-10.7406572170756
 20
2.711048784474904
 30
0.0
 70
   192
  0
VERTEX
  5
310
330
30E
100
AcDbEntity
  8
0
100
AcDbVertex
100
AcDbPolyFaceMeshVertex
 10
-10.79352167881406
 20
2.552455399259493
 30
0.0
 70
   192
  0
VERTEX
  5
311
330
30E
100
AcDbEntity
  8
0
100
AcDbVertex
100
AcDbPolyFaceMeshVertex
 10
-10.84638614055254
 20
2.711048784474904
 30
0.0
 70
   192
  0
VERTEX
  5
312
330
30E
100
AcDbEntity
  8
0
 62
   250
100
AcDbFaceRecord
 10
0.0
 20
0.0
 30
0.0
 70
   128
 71
     1
 72
     2
 73
     3
  0
SEQEND
  5
313
330
30E
100
AcDbEntity
  8
0
 62
   250
  0
POLYLINE
  5
314
330
1F
100
AcDbEntity
  8
0
 62
   250
100
AcDbPolyFaceMesh
 66
     1
 10
0.0
 20
0.0
 30
0.0
 70
    64
 71
     3
 72
     1
  0
VERTEX
  5
315
330
314
100
AcDbEntity
  8
0
100
AcDbVertex
100
AcDbPolyFaceMeshVertex
 10
-0.3509689661034467
 20
3.117478712353707
 30
0.0
 70
   192
  0
VERTEX
  5
316
330
314
100
AcDbEntity
  8
0
100
AcDbVertex
100
AcDbPolyFaceMeshVertex
 10
-0.4566978895803879
 20
3.117478712353707
 30
0.0
 70
   192
  0
VERTEX
  5
317
330
314
100
AcDbEntity
  8
0
100
AcDbVertex
100
AcDbPolyFaceMeshVertex
 10
-0.4038334278419174
 20
3.27607209756912
 30
0.0
 70
   192
  0
VERTEX
  5
318
330
314
100
AcDbEntity
  8
0
 62
   250
100
AcDbFaceRecord
 10
0.0
 20
0.0
 30
0.0
 70
   128
 71
     1
 72
     2
 73
     3
  0
SEQEND
  5
319
330
314
100
AcDbEntity
  8
0
 62
   250
  0
POLYLINE
  5
31A
330
1F
100
AcDbEntity
  8
0
 62
   250
100
AcDbPolyFaceMesh
 66
     1
 10
0.0
 20
0.0
 30
0.0
 70
    64
 71
     3
 72
     1
  0
VERTEX
  5
31B
330
31A
100
AcDbEntity
  8
0
100
AcDbVertex
100
AcDbPolyFaceMeshVertex
 10
-0.3509689661034466
 20
2.869891474347751
 30
0.0
 70
   192
  0
VERTEX
  5
31C
330
31A
100
AcDbEntity
  8
0
100
AcDbVertex
100
AcDbPolyFaceMeshVertex
 10
-0.4038334278419171
 20
2.711298089132339
 30
0.0
 70
   192
  0
VERTEX
  5
31D
330
31A
100
AcDbEntity
  8
0
100
AcDbVertex
100
AcDbPolyFaceMeshVertex
 10
-0.4566978895803878
 20
2.869891474347751
 30
0.0
 70
   192
  0
VERTEX
  5
31E
330
31A
100
AcDbEntity
  8
0
 62
   250
100
AcDbFaceRecord
 10
0.0
 20
0.0
 30
0.0
 70
   128
 71
     1
 72
     2
 73
     3
  0
SEQEND
  5
31F
330
31A
100
AcDbEntity
  8
0
 62
   250
  0
POLYLINE
  5
320
330
1F
100
AcDbEntity
  8
0
 62
   250
100
AcDbPolyFaceMesh
 66
     1
 10
0.0
 20
0.0
 30
0.0
 70
    64
 71
     3
 72
     1
  0
VERTEX
  5
321
330
320
100
AcDbEntity
  8
0
100
AcDbVertex
100
AcDbPolyFaceMeshVertex
 10
-10.7406572170756
 20
2.393862014044081
 30
0.0
 70
   192
  0
VERTEX
  5
322
330
320
100
AcDbEntity
  8
0
100
AcDbVertex
100
AcDbPolyFaceMeshVertex
 10
-10.84638614055254
 20
2.393862014044081
 30
0.0
 70
   192
  0
VERTEX
  5
323
330
320
100
AcDbEntity
  8
0
100
AcDbVertex
100
AcDbPolyFaceMeshVertex
 10
-10.79352167881406
 20
2.552455399259493
 30
0.0
 70
   192
  0
VERTEX
  5
324
330
320
100
AcDbEntity
  8
0
 62
   250
100
AcDbFaceRecord
 10
0.0
 20
0.0
 30
0.0
 70
   128
 71
     1
 72
     2
 73
     3
  0
SEQEND
  5
325
330
320
100
AcDbEntity
  8
0
 62
   250
  0
POLYLINE
  5
326
330
1F
100
AcDbEntity
  8
0
 62
   250
100
AcDbPolyFaceMesh
 66
     1
 10
0.0
 20
0.0
 30
0.0
 70
    64
 71
     3
 72
     1
  0
VERTEX
  5
327
330
326
100
AcDbEntity
  8
0
100
AcDbVertex
100
AcDbPolyFaceMeshVertex
 10
-10.7406572170756
 20
1.863887771819734
 30
0.0
 70
   192
  0
VERTEX
  5
328
330
326
100
AcDbEntity
  8
0
100
AcDbVertex
100
AcDbPolyFaceMeshVertex
 10
-10.79352167881406
 20
1.705294386604322
 30
0.0
 70
   192
  0
VERTEX
  5
329
330
326
100
AcDbEntity
  8
0
100
AcDbVertex
100
AcDbPolyFaceMeshVertex
 10
-10.84638614055254
 20
1.863887771819734
 30
0.0
 70
   192
  0
VERTEX
  5
32A
330
326
100
AcDbEntity
  8
0
 62
   250
100
AcDbFaceRecord
 10
0.0
 20
0.0
 30
0.0
 70
   128
 71
     1
 72
     2
 73
     3
  0
SEQEND
  5
32B
330
326
100
AcDbEntity
  8
0
 62
   250
  0
POLYLINE
  5
32C
330
1F
100
AcDbEntity
  8
0
 62
   250
100
AcDbPolyFaceMesh
 66
     1
 10
0.0
 20
0.0
 30
0.0
 70
    64
 71
     3
 72
     1
  0
VERTEX
  5
32D
330
32C
100
AcDbEntity
  8
0
100
AcDbVertex
100
AcDbPolyFaceMeshVertex
 10
-10.74065721707559
 20
-3.907396626893618
 30
0.0
 70
   192
  0
VERTEX
  5
32E
330
32C
100
AcDbEntity
  8
0
100
AcDbVertex
100
AcDbPolyFaceMeshVertex
 10
-10.79352167881406
 20
-4.06599001210903
 30
0.0
 70
   192
  0
VERTEX
  5
32F
330
32C
100
AcDbEntity
  8
0
100
AcDbVertex
100
AcDbPolyFaceMeshVertex
 10
-10.84638614055253
 20
-3.907396626893618
 30
0.0
 70
   192
  0
VERTEX
  5
330
330
32C
100
AcDbEntity
  8
0
 62
   250
100
AcDbFaceRecord
 10
0.0
 20
0.0
 30
0.0
 70
   128
 71
     1
 72
     2
 73
     3
  0
SEQEND
  5
331
330
32C
100
AcDbEntity
  8
0
 62
   250
  0
POLYLINE
  5
332
330
1F
100
AcDbEntity
  8
0
 62
   250
100
AcDbPolyFaceMesh
 66
     1
 10
0.0
 20
0.0
 30
0.0
 70
    64
 71
     3
 72
     1
  0
VERTEX
  5
333
330
332
100
AcDbEntity
  8
0
100
AcDbVertex
100
AcDbPolyFaceMeshVertex
 10
-10.74065721707559
 20
-3.500966699014817
 30
0.0
 70
   192
  0
VERTEX
  5
334
330
332
100
AcDbEntity
  8
0
100
AcDbVertex
100
AcDbPolyFaceMeshVertex
 10
-10.84638614055253
 20
-3.500966699014817
 30
0.0
 70
   192
  0
VERTEX
  5
335
330
332
100
AcDbEntity
  8
0
100
AcDbVertex
100
AcDbPolyFaceMeshVertex
 10
-10.79352167881406
 20
-3.342373313799405
 30
0.0
 70
   192
  0
VERTEX
  5
336
330
332
100
AcDbEntity
  8
0
 62
   250
100
AcDbFaceRecord
 10
0.0
 20
0.0
 30
0.0
 70
   128
 71
     1
 72
     2
 73
     3
  0
SEQEND
  5
337
330
332
100
AcDbEntity
  8
0
 62
   250
  0
POLYLINE
  5
338
330
1F
100
AcDbEntity
  8
0
 62
   250
100
AcDbPolyFaceMesh
 66
     1
 10
0.0
 20
0.0
 30
0.0
 70
    64
 71
     3
 72
     1
  0
VERTEX
  5
339
330
338
100
AcDbEntity
  8
0
100
AcDbVertex
100
AcDbPolyFaceMeshVertex
 10
-10.74065721707559
 20
-3.183779928583993
 30
0.0
 70
   192
  0
VERTEX
  5
33A
330
338
100
AcDbEntity
  8
0
100
AcDbVertex
100
AcDbPolyFaceMeshVertex
 10
-10.79352167881406
 20
-3.342373313799405
 30
0.0
 70
   192
  0
VERTEX
  5
33B
330
338
100
AcDbEntity
  8
0
100
AcDbVertex
100
AcDbPolyFaceMeshVertex
 10
-10.84638614055253
 20
-3.183779928583993
 30
0.0
 70
   192
  0
VERTEX
  5
33C
330
338
100
AcDbEntity
  8
0
 62
   250
100
AcDbFaceRecord
 10
0.0
 20
0.0
 30
0.0
 70
   128
 71
     1
 72
     2
 73
     3
  0
SEQEND
  5
33D
330
338
100
AcDbEntity
  8
0
 62
   250
  0
POLYLINE
  5
33E
330
1F
100
AcDbEntity
  8
0
 62
   250
100
AcDbPolyFaceMesh
 66
     1
 10
0.0
 20
0.0
 30
0.0
 70
    64
 71
     3
 72
     1
  0
VERTEX
  5
33F
330
33E
100
AcDbEntity
  8
0
100
AcDbVertex
100
AcDbPolyFaceMeshVertex
 10
-10.74065721707559
 20
-2.653805686359646
 30
0.0
 70
   192
  0
VERTEX
  5
340
330
33E
100
AcDbEntity
  8
0
100
AcDbVertex
100
AcDbPolyFaceMeshVertex
 10
-10.84638614055253
 20
-2.653805686359646
 30
0.0
 70
   192
  0
VERTEX
  5
341
330
33E
100
AcDbEntity
  8
0
100
AcDbVertex
100
AcDbPolyFaceMeshVertex
 10
-10.79352167881406
 20
-2.495212301144234
 30
0.0
 70
   192
  0
VERTEX
  5
342
330
33E
100
AcDbEntity
  8
0
 62
   250
100
AcDbFaceRecord
 10
0.0
 20
0.0
 30
0.0
 70
   128
 71
     1
 72
     2
 73
     3
  0
SEQEND
  5
343
330
33E
100
AcDbEntity
  8
0
 62
   250
  0
POLYLINE
  5
344
330
1F
100
AcDbEntity
  8
0
 62
   250
100
AcDbPolyFaceMesh
 66
     1
 10
0.0
 20
0.0
 30
0.0
 70
    64
 71
     3
 72
     1
  0
VERTEX
  5
345
330
344
100
AcDbEntity
  8
0
100
AcDbVertex
100
AcDbPolyFaceMeshVertex
 10
-8.970952508554833
 20
2.552455399259494
 30
0.0
 70
   192
  0
VERTEX
  5
346
330
344
100
AcDbEntity
  8
0
100
AcDbVertex
100
AcDbPolyFaceMeshVertex
 10
-9.076670340684236
 20
2.517179168160947
 30
0.0
 70
   192
  0
VERTEX
  5
347
330
344
100
AcDbEntity
  8
0
100
AcDbVertex
100
AcDbPolyFaceMeshVertex
 10
-9.076692512917484
 20
2.587665113658299
 30
0.0
 70
   192
  0
VERTEX
  5
348
330
344
100
AcDbEntity
  8
0
 62
   250
100
AcDbFaceRecord
 10
0.0
 20
0.0
 30
0.0
 70
   128
 71
     1
 72
     2
 73
     3
  0
SEQEND
  5
349
330
344
100
AcDbEntity
  8
0
 62
   250
  0
POLYLINE
  5
34A
330
1F
100
AcDbEntity
  8
0
 62
   250
100
AcDbPolyFaceMesh
 66
     1
 10
0.0
 20
0.0
 30
0.0
 70
    64
 71
     3
 72
     1
  0
VERTEX
  5
34B
330
34A
100
AcDbEntity
  8
0
100
AcDbVertex
100
AcDbPolyFaceMeshVertex
 10
-8.970952508554833
 20
1.705294386604323
 30
0.0
 70
   192
  0
VERTEX
  5
34C
330
34A
100
AcDbEntity
  8
0
100
AcDbVertex
100
AcDbPolyFaceMeshVertex
 10
-9.076692214173843
 20
1.670083775046667
 30
0.0
 70
   192
  0
VERTEX
  5
34D
330
34A
100
AcDbEntity
  8
0
100
AcDbVertex
100
AcDbPolyFaceMeshVertex
 10
-9.076670639984632
 20
1.740569720729604
 30
0.0
 70
   192
  0
VERTEX
  5
34E
330
34A
100
AcDbEntity
  8
0
 62
   250
100
AcDbFaceRecord
 10
0.0
 20
0.0
 30
0.0
 70
   128
 71
     1
 72
     2
 73
     3
  0
SEQEND
  5
34F
330
34A
100
AcDbEntity
  8
0
 62
   250
  0
POLYLINE
  5
350
330
1F
100
AcDbEntity
  8
0
 62
   250
100
AcDbPolyFaceMesh
 66
     1
 10
0.0
 20
0.0
 30
0.0
 70
    64
 71
     3
 72
     1
  0
VERTEX
  5
351
330
350
100
AcDbEntity
  8
0
100
AcDbVertex
100
AcDbPolyFaceMeshVertex
 10
-8.970952508554833
 20
-3.342373313799404
 30
0.0
 70
   192
  0
VERTEX
  5
352
330
350
100
AcDbEntity
  8
0
100
AcDbVertex
100
AcDbPolyFaceMeshVertex
 10
-9.076590161346335
 20
-3.377888927596166
 30
0.0
 70
   192
  0
VERTEX
  5
353
330
350
100
AcDbEntity
  8
0
100
AcDbVertex
100
AcDbPolyFaceMeshVertex
 10
-9.076771999066091
 20
-3.307403213161912
 30
0.0
 70
   192
  0
VERTEX
  5
354
330
350
100
AcDbEntity
  8
0
 62
   250
100
AcDbFaceRecord
 10
0.0
 20
0.0
 30
0.0
 70
   128
 71
     1
 72
     2
 73
     3
  0
SEQEND
  5
355
330
350
100
AcDbEntity
  8
0
 62
   250
  0
POLYLINE
  5
356
330
1F
100
AcDbEntity
  8
0
 62
   250
100
AcDbPolyFaceMesh
 66
     1
 10
0.0
 20
0.0
 30
0.0
 70
    64
 71
     3
 72
     1
  0
VERTEX
  5
357
330
356
100
AcDbEntity
  8
0
100
AcDbVertex
100
AcDbPolyFaceMeshVertex
 10
-8.970952508554833
 20
-2.495212301144233
 30
0.0
 70
   192
  0
VERTEX
  5
358
330
356
100
AcDbEntity
  8
0
100
AcDbVertex
100
AcDbPolyFaceMeshVertex
 10
-9.076694329602518
 20
-2.530416559298299
 30
0.0
 70
   192
  0
VERTEX
  5
359
330
356
100
AcDbEntity
  8
0
100
AcDbVertex
100
AcDbPolyFaceMeshVertex
 10
-9.076668520285422
 20
-2.459930615038874
 30
0.0
 70
   192
  0
VERTEX
  5
35A
330
356
100
AcDbEntity
  8
0
 62
   250
100
AcDbFaceRecord
 10
0.0
 20
0.0
 30
0.0
 70
   128
 71
     1
 72
     2
 73
     3
  0
SEQEND
  5
35B
330
356
100
AcDbEntity
  8
0
 62
   250
  0
POLYLINE
  5
35C
330
1F
100
AcDbEntity
  8
0
 62
   250
100
AcDbPolyFaceMesh
 66
     1
 10
0.0
 20
0.0
 30
0.0
 70
    64
 71
     3
 72
     1
  0
VERTEX
  5
35D
330
35C
100
AcDbEntity
  8
0
100
AcDbVertex
100
AcDbPolyFaceMeshVertex
 10
10.13091022273551
 20
-3.907396626893616
 30
0.0
 70
   192
  0
VERTEX
  5
35E
330
35C
100
AcDbEntity
  8
0
100
AcDbVertex
100
AcDbPolyFaceMeshVertex
 10
10.07804576099704
 20
-4.065990012109028
 30
0.0
 70
   192
  0
VERTEX
  5
35F
330
35C
100
AcDbEntity
  8
0
100
AcDbVertex
100
AcDbPolyFaceMeshVertex
 10
10.02518129925857
 20
-3.907396626893616
 30
0.0
 70
   192
  0
VERTEX
  5
360
330
35C
100
AcDbEntity
  8
0
 62
   250
100
AcDbFaceRecord
 10
0.0
 20
0.0
 30
0.0
 70
   128
 71
     1
 72
     2
 73
     3
  0
SEQEND
  5
361
330
35C
100
AcDbEntity
  8
0
 62
   250
  0
POLYLINE
  5
362
330
1F
100
AcDbEntity
  8
0
 62
   250
100
AcDbPolyFaceMesh
 66
     1
 10
0.0
 20
0.0
 30
0.0
 70
    64
 71
     3
 72
     1
  0
VERTEX
  5
363
330
362
100
AcDbEntity
  8
0
100
AcDbVertex
100
AcDbPolyFaceMeshVertex
 10
10.13091022273551
 20
3.117478712353708
 30
0.0
 70
   192
  0
VERTEX
  5
364
330
362
100
AcDbEntity
  8
0
100
AcDbVertex
100
AcDbPolyFaceMeshVertex
 10
10.02518129925856
 20
3.117478712353708
 30
0.0
 70
   192
  0
VERTEX
  5
365
330
362
100
AcDbEntity
  8
0
100
AcDbVertex
100
AcDbPolyFaceMeshVertex
 10
10.07804576099704
 20
3.27607209756912
 30
0.0
 70
   192
  0
VERTEX
  5
366
330
362
100
AcDbEntity
  8
0
 62
   250
100
AcDbFaceRecord
 10
0.0
 20
0.0
 30
0.0
 70
   128
 71
     1
 72
     2
 73
     3
  0
SEQEND
  5
367
330
362
100
AcDbEntity
  8
0
 62
   250
  0
POLYLINE
  5
368
330
1F
100
AcDbEntity
  8
0
 62
   250
100
AcDbPolyFaceMesh
 66
     1
 10
0.0
 20
0.0
 30
0.0
 70
    64
 71
     3
 72
     1
  0
VERTEX
  5
369
330
368
100
AcDbEntity
  8
0
100
AcDbVertex
100
AcDbPolyFaceMeshVertex
 10
-7.400204207126648
 20
-3.73095866554376
 30
0.0
 70
   192
  0
VERTEX
  5
36A
330
368
100
AcDbEntity
  8
0
100
AcDbVertex
100
AcDbPolyFaceMeshVertex
 10
-7.453230308117654
 20
-3.889498079452964
 30
0.0
 70
   192
  0
VERTEX
  5
36B
330
368
100
AcDbEntity
  8
0
100
AcDbVertex
100
AcDbPolyFaceMeshVertex
 10
-7.505933075670371
 20
-3.730850887730997
 30
0.0
 70
   192
  0
VERTEX
  5
36C
330
368
100
AcDbEntity
  8
0
 62
   250
100
AcDbFaceRecord
 10
0.0
 20
0.0
 30
0.0
 70
   128
 71
     1
 72
     2
 73
     3
  0
SEQEND
  5
36D
330
368
100
AcDbEntity
  8
0
 62
   250
  0
POLYLINE
  5
36E
330
1F
100
AcDbEntity
  8
0
 62
   250
100
AcDbPolyFaceMesh
 66
     1
 10
0.0
 20
0.0
 30
0.0
 70
    64
 71
     3
 72
     1
  0
VERTEX
  5
36F
330
36E
100
AcDbEntity
  8
0
100
AcDbVertex
100
AcDbPolyFaceMeshVertex
 10
-7.4003116460916
 20
-3.83635512805028
 30
0.0
 70
   192
  0
VERTEX
  5
370
330
36E
100
AcDbEntity
  8
0
100
AcDbVertex
100
AcDbPolyFaceMeshVertex
 10
-7.506040514635323
 20
-3.836247350237517
 30
0.0
 70
   192
  0
VERTEX
  5
371
330
36E
100
AcDbEntity
  8
0
100
AcDbVertex
100
AcDbPolyFaceMeshVertex
 10
-7.453014413644317
 20
-3.677707936328313
 30
0.0
 70
   192
  0
VERTEX
  5
372
330
36E
100
AcDbEntity
  8
0
 62
   250
100
AcDbFaceRecord
 10
0.0
 20
0.0
 30
0.0
 70
   128
 71
     1
 72
     2
 73
     3
  0
SEQEND
  5
373
330
36E
100
AcDbEntity
  8
0
 62
   250
  0
MTEXT
  5
375
330
1F
100
AcDbEntity
  8
0
 62
   250
100
AcDbMText
 10
-6.116322623045182
 20
3.868743085416
 30
0.0
 40
0.1664235188787671
 41
0.0
 71
     7
 72
     1
  1
5.906250"
  7
TAHOMA
  0
MTEXT
  5
376
330
1F
100
AcDbEntity
  8
0
 62
   250
100
AcDbMText
 10
-0.8921630450049607
 20
3.868743085416
 30
0.0
 40
0.1664235188787671
 41
0.0
 71
     7
 72
     1
  1
3.343750"
  7
TAHOMA
  0
MTEXT
  5
377
330
1F
100
AcDbEntity
  8
0
 62
   250
100
AcDbMText
 10
4.33199653303526
 20
3.868743085416
 30
0.0
 40
0.1664235188787671
 41
0.0
 71
     7
 72
     1
  1
5.906250"
  7
TAHOMA
  0
MTEXT
  5
378
330
1F
100
AcDbEntity
  8
0
 62
   250
100
AcDbMText
 10
-0.9503139529172776
 20
4.802316001209005
 30
0.0
 40
0.1664235188787665
 41
0.0
 71
     7
 72
     1
  1
15.156250"
  7
TAHOMA
  0
MTEXT
  5
379
330
1F
100
AcDbEntity
  8
0
 62
   250
100
AcDbMText
 10
-11.27458828063415
 20
2.831051988974922
 30
0.0
 40
0.1664235188787671
 41
0.0
 71
     7
 72
     1
  1
0.640625"
  7
TAHOMA
  0
MTEXT
  5
37A
330
1F
100
AcDbEntity
  8
0
 62
   250
100
AcDbMText
 10
-0.884900029662
 20
2.910473333911346
 30
0.0
 40
0.1664235188787667
 41
0.0
 71
     7
 72
     1
  1
0.500000"
  7
TAHOMA
  0
MTEXT
  5
37B
330
1F
100
AcDbEntity
  8
0
 62
   250
100
AcDbMText
 10
-11.27458828063415
 20
2.045663133492524
 30
0.0
 40
0.1664235188787671
 41
0.0
 71
     7
 72
     1
  1
0.750000"
  7
TAHOMA
  0
MTEXT
  5
37C
330
1F
100
AcDbEntity
  8
0
 62
   250
100
AcDbMText
 10
-11.27458828063415
 20
-3.787393422393601
 30
0.0
 40
0.1664235188787667
 41
0.0
 71
     7
 72
     1
  1
0.640625"
  7
TAHOMA
  0
MTEXT
  5
37D
330
1F
100
AcDbEntity
  8
0
 62
   250
100
AcDbMText
 10
-11.27458828063415
 20
-3.002004566911203
 30
0.0
 40
0.1664235188787667
 41
0.0
 71
     7
 72
     1
  1
0.750000"
  7
TAHOMA
  0
MTEXT
  5
37E
330
1F
100
AcDbEntity
  8
0
 62
   250
100
AcDbMText
 10
-13.65164506944331
 20
2.468606054221187
 30
0.0
 40
0.1664235188787667
 41
0.0
 71
     7
 72
     1
  1
BEND 90 DEGREES HERE
  7
TAHOMA
  0
MTEXT
  5
37F
330
1F
100
AcDbEntity
  8
0
 62
   250
100
AcDbMText
 10
-13.65503201590788
 20
1.62270405205408
 30
0.0
 40
0.1664235188787671
 41
0.0
 71
     7
 72
     1
  1
BEND 90 DEGREES HERE
  7
TAHOMA
  0
MTEXT
  5
380
330
1F
100
AcDbEntity
  8
0
 62
   250
100
AcDbMText
 10
-13.6356365012333
 20
-3.430772724296586
 30
0.0
 40
0.1664235188787667
 41
0.0
 71
     7
 72
     1
  1
BEND 90 DEGREES HERE
  7
TAHOMA
  0
MTEXT
  5
381
330
1F
100
AcDbEntity
  8
0
 62
   250
100
AcDbMText
 10
-13.636942397127
 20
-2.577687270416261
 30
0.0
 40
0.1664235188787667
 41
0.0
 71
     7
 72
     1
  1
BEND 90 DEGREES HERE
  7
TAHOMA
  0
MTEXT
  5
382
330
1F
100
AcDbEntity
  8
0
 62
   250
100
AcDbMText
 10
9.596979159176955
 20
-0.4781707167093378
 30
0.0
 40
0.1664235188787669
 41
0.0
 71
     7
 72
     1
  1
6.500000"
  7
TAHOMA
  0
MTEXT
  5
383
330
1F
100
AcDbEntity
  8
0
 62
   250
100
AcDbMText
 10
-9.039822957278473
 20
-4.618982576600163
 30
0.0
 40
0.1664235188787671
 41
0.0
 71
     7
 72
     1
  1
DIA 0.187500"
  7
TAHOMA
  0
ENDSEC
  0
SECTION
  2
OBJECTS
  0
DICTIONARY
  5
C
330
0
100
AcDbDictionary
  3
ACAD_GROUP
350
D
  3
ACAD_LAYOUT
350
1A
  3
ACAD_MATERIAL
350
43
  3
ACAD_MLEADERSTYLE
350
6B
  3
ACAD_MLINESTYLE
350
17
  3
ACAD_PLOTSETTINGS
350
19
  3
ACAD_SCALELIST
350
47
  3
ACAD_VISUALSTYLE
350
2A
  3
ACDBHEADERROUNDTRIPXREC
350
384
  3
ACDBVARIABLEDICTIONARY
350
3A5
  0
DICTIONARY
  5
3AC
330
8
100
AcDbDictionary
280
     1
  3
ACAD_XREC_ROUNDTRIP
360
3AD
  0
DICTIONARY
  5
D
102
{ACAD_REACTORS
330
C
102
}
330
C
100
AcDbDictionary
  0
DICTIONARY
  5
1A
102
{ACAD_REACTORS
330
C
102
}
330
C
100
AcDbDictionary
  0
DICTIONARY
  5
43
102
{ACAD_REACTORS
330
C
102
}
330
C
100
AcDbDictionary
  3
BYBLOCK
350
45
  3
BYLAYER
350
44
  3
GLOBAL
350
46
  0
DICTIONARY
  5
6B
102
{ACAD_REACTORS
330
C
102
}
330
C
100
AcDbDictionary
  3
STANDARD
350
6C
  0
DICTIONARY
  5
17
102
{ACAD_REACTORS
330
C
102
}
330
C
100
AcDbDictionary
  3
STANDARD
350
18
  0
DICTIONARY
  5
19
102
{ACAD_REACTORS
330
C
102
}
330
C
100
AcDbDictionary
  0
DICTIONARY
  5
47
102
{ACAD_REACTORS
330
C
102
}
330
C
100
AcDbDictionary
  3
A0
350
48
  3
A1
350
49
  3
A2
350
4A
  3
A3
350
4B
  3
A4
350
4C
  3
A5
350
4D
  3
A6
350
4E
  3
A7
350
4F
  3
A8
350
50
  3
A9
350
51
  3
B0
350
52
  3
B1
350
53
  3
B2
350
54
  3
B3
350
55
  3
B4
350
56
  3
B5
350
57
  3
B6
350
58
  3
B7
350
59
  3
B8
350
5A
  3
B9
350
5B
  3
C0
350
5C
  3
C1
350
5D
  3
C2
350
5E
  3
C3
350
5F
  3
C4
350
60
  3
C5
350
61
  3
C6
350
62
  3
C7
350
63
  3
C8
350
64
  3
C9
350
65
  3
D0
350
66
  3
D1
350
67
  3
D2
350
68
  0
DICTIONARY
  5
2A
102
{ACAD_REACTORS
330
C
102
}
330
C
100
AcDbDictionary
  3
2DWIREFRAME
350
2F
  3
BASIC
350
32
  3
BRIGHTEN
350
36
  3
COLORCHANGE
350
3A
  3
CONCEPTUAL
350
34
  3
DIM
350
35
  3
EDGECOLOROFF
350
3D
  3
FACEPATTERN
350
39
  3
FLAT
350
2B
  3
FLATWITHEDGES
350
2C
  3
GOURAUD
350
2D
  3
GOURAUDWITHEDGES
350
2E
  3
HIDDEN
350
31
  3
JITTEROFF
350
3B
  3
LINEPATTERN
350
38
  3
OVERHANGOFF
350
3C
  3
REALISTIC
350
33
  3
SHADED
350
42
  3
SHADED_WITH_EDGES
350
41
  3
SHADES_OF_GRAY
350
3E
  3
SKETCHY
350
3F
  3
THICKEN
350
37
  3
WIREFRAME
350
30
  3
X-RAY
350
40
  0
DICTIONARY
  5
384
102
{ACAD_REACTORS
330
C
102
}
330
C
100
AcDbDictionary
  3
CEPSNID
350
38E
  3
CEPSNTYPE
350
38D
  3
DIMSTYLEDATA
350
3A4
  3
FINGERPRINTGUID
350
38F
  3
HYPERLINKBASE
350
387
  3
INSUNITS
350
38C
  3
LAYOUTDICT
350
389
  3
LWETCUNION
350
38B
  3
PLOTSETDICT
350
38A
  3
PSVPSCALE
350
391
  3
PUCSBASE
350
394
  3
PUCSORGBACK
350
39A
  3
PUCSORGBOTTOM
350
396
  3
PUCSORGFRONT
350
399
  3
PUCSORGLEFT
350
397
  3
PUCSORGRIGHT
350
398
  3
PUCSORGTOP
350
395
  3
PUCSORTHOREF
350
392
  3
PUCSORTHOVIEW
350
393
  3
STYLESHEET
350
388
  3
TSTACKALIGN
350
385
  3
TSTACKSIZE
350
386
  3
UCSBASE
350
39D
  3
UCSORGBACK
350
3A3
  3
UCSORGBOTTOM
350
39F
  3
UCSORGFRONT
350
3A2
  3
UCSORGLEFT
350
3A0
  3
UCSORGRIGHT
350
3A1
  3
UCSORGTOP
350
39E
  3
UCSORTHOREF
350
39B
  3
UCSORTHOVIEW
350
39C
  3
VERSIONGUID
350
390
  0
DICTIONARY
  5
3A5
102
{ACAD_REACTORS
330
C
102
}
330
C
100
AcDbDictionary
  3
CANNOSCALE
350
3AE
  3
CMLEADERSTYLE
350
3A7
  3
CTABLESTYLE
350
3A6
  3
DIMASSOC
350
3AA
  3
HIDETEXT
350
3AB
  3
MSLTSCALE
350
3AF
  0
XRECORD
  5
3AD
102
{ACAD_REACTORS
330
3AC
102
}
330
3AC
100
AcDbXrecord
102
VTR_0.000_0.000_1.000_1.000_VISUALSTYLE
340
2F
102
VTR_0.000_0.000_1.000_1.000_GRIDDISPLAY
 70
     3
102
VTR_0.000_0.000_1.000_1.000_GRIDMAJOR
 70
     5
102
VTR_0.000_0.000_1.000_1.000_DEFAULTLIGHTING
280
     1
102
VTR_0.000_0.000_1.000_1.000_DEFAULTLIGHTINGTYPE
 70
     1
102
VTR_0.000_0.000_1.000_1.000_BRIGHTNESS
141
0.0
102
VTR_0.000_0.000_1.000_1.000_CONTRAST
142
0.0
  0
MATERIAL
  5
45
102
{ACAD_REACTORS
330
43
102
}
102
{ACAD_XDICTIONARY
360
3B2
102
}
330
43
100
AcDbMaterial
  1
BYBLOCK
  0
MATERIAL
  5
44
102
{ACAD_REACTORS
330
43
102
}
102
{ACAD_XDICTIONARY
360
3B0
102
}
330
43
100
AcDbMaterial
  1
BYLAYER
  0
MATERIAL
  5
46
102
{ACAD_REACTORS
330
43
102
}
102
{ACAD_XDICTIONARY
360
3B4
102
}
330
43
100
AcDbMaterial
  1
GLOBAL
  0
ACAD_PROXY_OBJECT
  5
6C
102
{ACAD_REACTORS
330
6B
102
}
330
6B
100
AcDbProxyObject
 90
      499
 91
      505
 93
      610
310
40901902A4063FBFFFFFE056BD1B81E855B9FC0AD7A3703D0AD73F4214DD185B99185C9900AD7A3703D0AC73F90141901A02B5E8DC0F42B1CFC02B5E8DC0F42B1CFE5764000000000000300FC0
340
14
340
0
340
11
340
0
 94
        0
1001
ACAD_MLEADERVER
1070
     2
  0
MLINESTYLE
  5
18
102
{ACAD_REACTORS
330
17
102
}
330
17
100
AcDbMlineStyle
  2
Standard
 70
     0
  3

 62
   256
 51
90.0
 52
90.0
 71
     2
 49
0.5
 62
   256
  6
BYLAYER
 49
-0.5
 62
   256
  6
BYLAYER
  0
ACAD_PROXY_OBJECT
  5
48
102
{ACAD_REACTORS
330
47
102
}
330
47
100
AcDbProxyObject
 90
      499
 91
      503
 93
       41
310
903313A31580
  0
ACAD_PROXY_OBJECT
  5
49
102
{ACAD_REACTORS
330
47
102
}
330
47
100
AcDbProxyObject
 90
      499
 91
      503
 93
      105
310
903313A324000000000000004000
  0
ACAD_PROXY_OBJECT
  5
4A
102
{ACAD_REACTORS
330
47
102
}
330
47
100
AcDbProxyObject
 90
      499
 91
      503
 93
      105
310
903313A344000000000000104000
  0
ACAD_PROXY_OBJECT
  5
4B
102
{ACAD_REACTORS
330
47
102
}
330
47
100
AcDbProxyObject
 90
      499
 91
      503
 93
      105
310
903313A354000000000000144000
  0
ACAD_PROXY_OBJECT
  5
4C
102
{ACAD_REACTORS
330
47
102
}
330
47
100
AcDbProxyObject
 90
      499
 91
      503
 93
      105
310
903313A384000000000000204000
  0
ACAD_PROXY_OBJECT
  5
4D
102
{ACAD_REACTORS
330
47
102
}
330
47
100
AcDbProxyObject
 90
      499
 91
      503
 93
      113
310
904313A31304000000000000244000
  0
ACAD_PROXY_OBJECT
  5
4E
102
{ACAD_REACTORS
330
47
102
}
330
47
100
AcDbProxyObject
 90
      499
 91
      503
 93
      113
310
904313A31364000000000000304000
  0
ACAD_PROXY_OBJECT
  5
4F
102
{ACAD_REACTORS
330
47
102
}
330
47
100
AcDbProxyObject
 90
      499
 91
      503
 93
      113
310
904313A32304000000000000344000
  0
ACAD_PROXY_OBJECT
  5
50
102
{ACAD_REACTORS
330
47
102
}
330
47
100
AcDbProxyObject
 90
      499
 91
      503
 93
      113
310
904313A333040000000000003E4000
  0
ACAD_PROXY_OBJECT
  5
51
102
{ACAD_REACTORS
330
47
102
}
330
47
100
AcDbProxyObject
 90
      499
 91
      503
 93
      113
310
904313A34304000000000000444000
  0
ACAD_PROXY_OBJECT
  5
52
102
{ACAD_REACTORS
330
47
102
}
330
47
100
AcDbProxyObject
 90
      499
 91
      503
 93
      113
310
904313A35304000000000000494000
  0
ACAD_PROXY_OBJECT
  5
53
102
{ACAD_REACTORS
330
47
102
}
330
47
100
AcDbProxyObject
 90
      499
 91
      503
 93
      121
310
905313A3130304000000000000594000
  0
ACAD_PROXY_OBJECT
  5
54
102
{ACAD_REACTORS
330
47
102
}
330
47
100
AcDbProxyObject
 90
      499
 91
      503
 93
      105
310
903323A310000000000000010100
  0
ACAD_PROXY_OBJECT
  5
55
102
{ACAD_REACTORS
330
47
102
}
330
47
100
AcDbProxyObject
 90
      499
 91
      503
 93
      105
310
903343A310000000000000410100
  0
ACAD_PROXY_OBJECT
  5
56
102
{ACAD_REACTORS
330
47
102
}
330
47
100
AcDbProxyObject
 90
      499
 91
      503
 93
      105
310
903383A310000000000000810100
  0
ACAD_PROXY_OBJECT
  5
57
102
{ACAD_REACTORS
330
47
102
}
330
47
100
AcDbProxyObject
 90
      499
 91
      503
 93
      113
310
90431303A310000000000000910100
  0
ACAD_PROXY_OBJECT
  5
58
102
{ACAD_REACTORS
330
47
102
}
330
47
100
AcDbProxyObject
 90
      499
 91
      503
 93
      121
310
9053130303A310000000000001650100
  0
ACAD_PROXY_OBJECT
  5
59
102
{ACAD_REACTORS
330
47
102
}
330
47
100
AcDbProxyObject
 90
      499
 91
      503
 93
      257
310
90E312F31323822203D2031272D3022000000000000200FC000000000000284000
  0
ACAD_PROXY_OBJECT
  5
5A
102
{ACAD_REACTORS
330
47
102
}
330
47
100
AcDbProxyObject
 90
      499
 91
      503
 93
      249
310
90D312F363422203D2031272D3022000000000000240FC000000000000284000
  0
ACAD_PROXY_OBJECT
  5
5B
102
{ACAD_REACTORS
330
47
102
}
330
47
100
AcDbProxyObject
 90
      499
 91
      503
 93
      249
310
90D312F333222203D2031272D3022000000000000280FC000000000000284000
  0
ACAD_PROXY_OBJECT
  5
5C
102
{ACAD_REACTORS
330
47
102
}
330
47
100
AcDbProxyObject
 90
      499
 91
      503
 93
      249
310
90D312F313622203D2031272D30220000000000002C0FC000000000000284000
  0
ACAD_PROXY_OBJECT
  5
5D
102
{ACAD_REACTORS
330
47
102
}
330
47
100
AcDbProxyObject
 90
      499
 91
      503
 93
      249
310
90D332F333222203D2031272D30220000000000002E0FC000000000000284000
  0
ACAD_PROXY_OBJECT
  5
5E
102
{ACAD_REACTORS
330
47
102
}
330
47
100
AcDbProxyObject
 90
      499
 91
      503
 93
      241
310
90C312F3822203D2031272D3022000000000000300FC000000000000284000
  0
ACAD_PROXY_OBJECT
  5
5F
102
{ACAD_REACTORS
330
47
102
}
330
47
100
AcDbProxyObject
 90
      499
 91
      503
 93
      249
310
90D332F313622203D2031272D3022000000000000320FC000000000000284000
  0
ACAD_PROXY_OBJECT
  5
60
102
{ACAD_REACTORS
330
47
102
}
330
47
100
AcDbProxyObject
 90
      499
 91
      503
 93
      241
310
90C312F3422203D2031272D3022000000000000340FC000000000000284000
  0
ACAD_PROXY_OBJECT
  5
61
102
{ACAD_REACTORS
330
47
102
}
330
47
100
AcDbProxyObject
 90
      499
 91
      503
 93
      241
310
90C332F3822203D2031272D3022000000000000360FC000000000000284000
  0
ACAD_PROXY_OBJECT
  5
62
102
{ACAD_REACTORS
330
47
102
}
330
47
100
AcDbProxyObject
 90
      499
 91
      503
 93
      241
310
90C312F3222203D2031272D3022000000000000380FC000000000000284000
  0
ACAD_PROXY_OBJECT
  5
63
102
{ACAD_REACTORS
330
47
102
}
330
47
100
AcDbProxyObject
 90
      499
 91
      503
 93
      241
310
90C332F3422203D2031272D30220000000000003A0FC000000000000284000
  0
ACAD_PROXY_OBJECT
  5
64
102
{ACAD_REACTORS
330
47
102
}
330
47
100
AcDbProxyObject
 90
      499
 91
      503
 93
      161
310
90A3122203D2031272D30224000000000000284000
  0
ACAD_PROXY_OBJECT
  5
65
102
{ACAD_REACTORS
330
47
102
}
330
47
100
AcDbProxyObject
 90
      499
 91
      503
 93
      257
310
90E312D312F3222203D2031272D30220000000000003E0FC000000000000284000
  0
ACAD_PROXY_OBJECT
  5
66
102
{ACAD_REACTORS
330
47
102
}
330
47
100
AcDbProxyObject
 90
      499
 91
      503
 93
      225
310
90A3322203D2031272D302200000000000002100000000000000284000
  0
ACAD_PROXY_OBJECT
  5
67
102
{ACAD_REACTORS
330
47
102
}
330
47
100
AcDbProxyObject
 90
      499
 91
      503
 93
      225
310
90A3622203D2031272D302200000000000006100000000000000284000
  0
ACAD_PROXY_OBJECT
  5
68
102
{ACAD_REACTORS
330
47
102
}
330
47
100
AcDbProxyObject
 90
      499
 91
      503
 93
      249
310
90D31272D3022203D2031272D30220000000000000A100000000000000284000
  0
ACAD_PROXY_OBJECT
  5
2F
102
{ACAD_REACTORS
330
2A
102
}
330
2A
100
AcDbProxyObject
 90
      499
 91
      501
 93
      436
310
42CC9915DA5C99599C985B595049028333333333333E33F0000000000000F90107901411070040501600405405064090741402480A0340
1001
ACAD
1000
AcDbSavedByObjectVersion
1070
     0
  0
ACAD_PROXY_OBJECT
  5
32
102
{ACAD_REACTORS
330
2A
102
}
330
2A
100
AcDbProxyObject
 90
      499
 91
      501
 93
      388
310
4150985CDA58D07406404333333333333E33F0000000000000F90107A41107004050150841D405064090741402480A0350
1001
ACAD
1000
AcDbSavedByObjectVersion
1070
     0
  0
ACAD_PROXY_OBJECT
  5
36
102
{ACAD_REACTORS
330
2A
102
}
330
2A
100
AcDbProxyObject
 90
      499
 91
      501
 93
      428
310
42109C9A59DA1D195B90C409028333333333333E33F0000000000000F9010790141107004050150841D405064090741402480A029950
1001
ACAD
1000
AcDbSavedByObjectVersion
1070
     0
  0
ACAD_PROXY_OBJECT
  5
3A
102
{ACAD_REACTORS
330
2A
102
}
330
2A
100
AcDbProxyObject
 90
      499
 91
      501
 93
      452
310
42D0DBDB1BDC90DA185B99D95104090240C333333333333E33F0000000000000F90108901411070040501508421405064090741402480A0350
1001
ACAD
1000
AcDbSavedByObjectVersion
1070
     0
  0
ACAD_PROXY_OBJECT
  5
34
102
{ACAD_REACTORS
330
2A
102
}
330
2A
100
AcDbProxyObject
 90
      499
 91
      501
 93
      500
310
4290DBDB98D95C1D1D585B10940D028333333333333E33F0000000000000F90107902409070040501000000000018199010841D405064090740C02480A0340
1001
ACAD
1000
AcDbSavedByObjectVersion
1070
     0
  0
ACAD_PROXY_OBJECT
  5
35
102
{ACAD_REACTORS
330
2A
102
}
330
2A
100
AcDbProxyObject
 90
      499
 91
      501
 93
      412
310
40D11A5B50B409028333333333333E33F0000000000000F9010790141107004050150841D405064090741402480A02677FFFFFD0
1001
ACAD
1000
AcDbSavedByObjectVersion
1070
     0
  0
ACAD_PROXY_OBJECT
  5
3D
102
{ACAD_REACTORS
330
2A
102
}
330
2A
100
AcDbProxyObject
 90
      499
 91
      501
 93
      452
310
43115919D950DBDB1BDC93D999916409028333333333333E33F0000000000000F9010790141107004050150841D405064090741402480A0350
1001
ACAD
1000
AcDbSavedByObjectVersion
1070
     0
  0
ACAD_PROXY_OBJECT
  5
39
102
{ACAD_REACTORS
330
2A
102
}
330
2A
100
AcDbProxyObject
 90
      499
 91
      501
 93
      444
310
42D19858D95C185D1D195C9B90F409028333333333333E33F0000000000000F9010790141107004050150841D405064090741402480A0350
1001
ACAD
1000
AcDbSavedByObjectVersion
1070
     0
  0
ACAD_PROXY_OBJECT
  5
2B
102
{ACAD_REACTORS
330
2A
102
}
330
2A
100
AcDbProxyObject
 90
      499
 91
      501
 93
      380
310
41119B185D240901404333333333333E33F0000000000000F9010740A907004050150841D405064090741402480A1B50
1001
ACAD
1000
AcDbSavedByObjectVersion
1070
     0
  0
ACAD_PROXY_OBJECT
  5
2C
102
{ACAD_REACTORS
330
2A
102
}
330
2A
100
AcDbProxyObject
 90
      499
 91
      501
 93
      468
310
43519B185D15DA5D1A115919D95CD0140901404333333333333E33F0000000000000F90107409019070040501600405405064090741402480A1B50
1001
ACAD
1000
AcDbSavedByObjectVersion
1070
     0
  0
ACAD_PROXY_OBJECT
  5
2D
102
{ACAD_REACTORS
330
2A
102
}
330
2A
100
AcDbProxyObject
 90
      499
 91
      501
 93
      404
310
41D1DBDD5C985D5910240902404333333333333E33F0000000000000F9010740A9070040501641D405064090741402480A1B50
1001
ACAD
1000
AcDbSavedByObjectVersion
1070
     0
  0
ACAD_PROXY_OBJECT
  5
2E
102
{ACAD_REACTORS
330
2A
102
}
330
2A
100
AcDbProxyObject
 90
      499
 91
      501
 93
      492
310
4411DBDD5C985D5915DA5D1A115919D95CD0340902404333333333333E33F0000000000000F90107409019070040501600405405064090741402480A1B50
1001
ACAD
1000
AcDbSavedByObjectVersion
1070
     0
  0
ACAD_PROXY_OBJECT
  5
31
102
{ACAD_REACTORS
330
2A
102
}
330
2A
100
AcDbProxyObject
 90
      499
 91
      501
 93
      476
310
41921A5919195B90640502408333333333333E33F0000000000000F901079024090700405020000000000001110200405405064090740C02480A0340
1001
ACAD
1000
AcDbSavedByObjectVersion
1070
     0
  0
ACAD_PROXY_OBJECT
  5
3B
102
{ACAD_REACTORS
330
2A
102
}
330
2A
100
AcDbProxyObject
 90
      499
 91
      501
 93
      428
310
42529A5D1D195C93D999914409028333333333333E33F0000000000000F9010790141107004050150A41D405064090741402480A0350
1001
ACAD
1000
AcDbSavedByObjectVersion
1070
     0
  0
ACAD_PROXY_OBJECT
  5
38
102
{ACAD_REACTORS
330
2A
102
}
330
2A
100
AcDbProxyObject
 90
      499
 91
      501
 93
      444
310
42D31A5B995C185D1D195C9B90E409028333333333333E33F0000000000000F9010790141107004050750841D405064090741402483A0350
1001
ACAD
1000
AcDbSavedByObjectVersion
1070
     0
  0
ACAD_PROXY_OBJECT
  5
3C
102
{ACAD_REACTORS
330
2A
102
}
330
2A
100
AcDbProxyObject
 90
      499
 91
      501
 93
      444
310
42D3DD995C9A185B99D3D999915409028333333333333E33F0000000000000F9010790141107004050150941D405064090741402480A0350
1001
ACAD
1000
AcDbSavedByObjectVersion
1070
     0
  0
ACAD_PROXY_OBJECT
  5
33
102
{ACAD_REACTORS
330
2A
102
}
330
2A
100
AcDbProxyObject
 90
      499
 91
      501
 93
      428
310
425499585B1A5CDD1A58D08409038333333333333E33F0000000000000F9010740A907004050150800405405064090740C02480A1B40
1001
ACAD
1000
AcDbSavedByObjectVersion
1070
     0
  0
ACAD_PROXY_OBJECT
  5
42
102
{ACAD_REACTORS
330
2A
102
}
330
2A
100
AcDbProxyObject
 90
      499
 91
      501
 93
      420
310
4194DA1859195911B40902404333333333333E33F0000000000000F9010740A41107004050150800405405064090840C02480A0B40
1001
ACAD
1000
AcDbSavedByObjectVersion
1070
     0
  0
ACAD_PROXY_OBJECT
  5
41
102
{ACAD_REACTORS
330
2A
102
}
330
2A
100
AcDbProxyObject
 90
      499
 91
      501
 93
      516
310
4454DA18591959081DDA5D1A08195919D95CD1A40902404333333333333E33F0000000000000F901074090142907004050250800405405064090740C02480A0B40
1001
ACAD
1000
AcDbSavedByObjectVersion
1070
     0
  0
ACAD_PROXY_OBJECT
  5
3E
102
{ACAD_REACTORS
330
2A
102
}
330
2A
100
AcDbProxyObject
 90
      499
 91
      501
 93
      532
310
4394DA1859195CC81BD98811DC985E5174090240C333333333333E33F0000000000000F901079024090741D01000000000000111010841D405064090740C02480A0340
1001
ACAD
1000
AcDbSavedByObjectVersion
1070
     0
  0
ACAD_PROXY_OBJECT
  5
3F
102
{ACAD_REACTORS
330
2A
102
}
330
2A
100
AcDbProxyObject
 90
      499
 91
      501
 93
      476
310
41D4DAD95D18DA1E51840502408333333333333E33F0000000000000F901079024090741D01000000000000111010B41D405064090741802480A0340
1001
ACAD
1000
AcDbSavedByObjectVersion
1070
     0
  0
ACAD_PROXY_OBJECT
  5
37
102
{ACAD_REACTORS
330
2A
102
}
330
2A
100
AcDbProxyObject
 90
      499
 91
      501
 93
      412
310
41D51A1A58DAD95B90D409028333333333333E33F0000000000000F9010790141107004050150C41D405064090741402480A0350
1001
ACAD
1000
AcDbSavedByObjectVersion
1070
     0
  0
ACAD_PROXY_OBJECT
  5
30
102
{ACAD_REACTORS
330
2A
102
}
330
2A
100
AcDbProxyObject
 90
      499
 91
      501
 93
      420
310
4255DA5C99599C985B595059028333333333333E33F0000000000000F90107901411070040501600405405064090740C02480A0340
1001
ACAD
1000
AcDbSavedByObjectVersion
1070
     0
  0
ACAD_PROXY_OBJECT
  5
40
102
{ACAD_REACTORS
330
2A
102
}
330
2A
100
AcDbProxyObject
 90
      499
 91
      501
 93
      404
310
41560B54985E51940902404000000000000E03F0000000000000F9010740501907004050150841D405064090740C02480A1B40
1001
ACAD
1000
AcDbSavedByObjectVersion
1070
     0
  0
XRECORD
  5
38E
102
{ACAD_REACTORS
330
384
102
}
330
384
100
AcDbXrecord
340
0
  0
XRECORD
  5
38D
102
{ACAD_REACTORS
330
384
102
}
330
384
100
AcDbXrecord
 90
        0
  0
XRECORD
  5
3A4
102
{ACAD_REACTORS
330
384
102
}
330
384
100
AcDbXrecord
1000
DSTYLE
1002
{
1070
   340
340
11
1002
}
  0
XRECORD
  5
38F
102
{ACAD_REACTORS
330
384
102
}
330
384
100
AcDbXrecord
  1
{DABD3C7C-62F7-4A46-AB10-F6BDBA04A23B}
  0
XRECORD
  5
387
102
{ACAD_REACTORS
330
384
102
}
330
384
100
AcDbXrecord
  1

  0
XRECORD
  5
38C
102
{ACAD_REACTORS
330
384
102
}
330
384
100
AcDbXrecord
 90
        1
  0
XRECORD
  5
389
102
{ACAD_REACTORS
330
384
102
}
330
384
100
AcDbXrecord
340
1A
  0
XRECORD
  5
38B
102
{ACAD_REACTORS
330
384
102
}
330
384
100
AcDbXrecord
 90
    10781
  0
XRECORD
  5
38A
102
{ACAD_REACTORS
330
384
102
}
330
384
100
AcDbXrecord
340
19
  0
XRECORD
  5
391
102
{ACAD_REACTORS
330
384
102
}
330
384
100
AcDbXrecord
 40
0.0
  0
XRECORD
  5
394
102
{ACAD_REACTORS
330
384
102
}
330
384
100
AcDbXrecord
340
0
  0
XRECORD
  5
39A
102
{ACAD_REACTORS
330
384
102
}
330
384
100
AcDbXrecord
 10
0.0
 20
0.0
 30
0.0
  0
XRECORD
  5
396
102
{ACAD_REACTORS
330
384
102
}
330
384
100
AcDbXrecord
 10
0.0
 20
0.0
 30
0.0
  0
XRECORD
  5
399
102
{ACAD_REACTORS
330
384
102
}
330
384
100
AcDbXrecord
 10
0.0
 20
0.0
 30
0.0
  0
XRECORD
  5
397
102
{ACAD_REACTORS
330
384
102
}
330
384
100
AcDbXrecord
 10
0.0
 20
0.0
 30
0.0
  0
XRECORD
  5
398
102
{ACAD_REACTORS
330
384
102
}
330
384
100
AcDbXrecord
 10
0.0
 20
0.0
 30
0.0
  0
XRECORD
  5
395
102
{ACAD_REACTORS
330
384
102
}
330
384
100
AcDbXrecord
 10
0.0
 20
0.0
 30
0.0
  0
XRECORD
  5
392
102
{ACAD_REACTORS
330
384
102
}
330
384
100
AcDbXrecord
340
0
  0
XRECORD
  5
393
102
{ACAD_REACTORS
330
384
102
}
330
384
100
AcDbXrecord
 70
     0
  0
XRECORD
  5
388
102
{ACAD_REACTORS
330
384
102
}
330
384
100
AcDbXrecord
  1

  0
XRECORD
  5
385
102
{ACAD_REACTORS
330
384
102
}
330
384
100
AcDbXrecord
 90
        1
  0
XRECORD
  5
386
102
{ACAD_REACTORS
330
384
102
}
330
384
100
AcDbXrecord
 90
       70
  0
XRECORD
  5
39D
102
{ACAD_REACTORS
330
384
102
}
330
384
100
AcDbXrecord
340
0
  0
XRECORD
  5
3A3
102
{ACAD_REACTORS
330
384
102
}
330
384
100
AcDbXrecord
 10
0.0
 20
0.0
 30
0.0
  0
XRECORD
  5
39F
102
{ACAD_REACTORS
330
384
102
}
330
384
100
AcDbXrecord
 10
0.0
 20
0.0
 30
0.0
  0
XRECORD
  5
3A2
102
{ACAD_REACTORS
330
384
102
}
330
384
100
AcDbXrecord
 10
0.0
 20
0.0
 30
0.0
  0
XRECORD
  5
3A0
102
{ACAD_REACTORS
330
384
102
}
330
384
100
AcDbXrecord
 10
0.0
 20
0.0
 30
0.0
  0
XRECORD
  5
3A1
102
{ACAD_REACTORS
330
384
102
}
330
384
100
AcDbXrecord
 10
0.0
 20
0.0
 30
0.0
  0
XRECORD
  5
39E
102
{ACAD_REACTORS
330
384
102
}
330
384
100
AcDbXrecord
 10
0.0
 20
0.0
 30
0.0
  0
XRECORD
  5
39B
102
{ACAD_REACTORS
330
384
102
}
330
384
100
AcDbXrecord
340
0
  0
XRECORD
  5
39C
102
{ACAD_REACTORS
330
384
102
}
330
384
100
AcDbXrecord
 70
     0
  0
XRECORD
  5
390
102
{ACAD_REACTORS
330
384
102
}
330
384
100
AcDbXrecord
  1
{FAEB1C32-E019-11D5-929B-00C0DF256EC4}
  0
DICTIONARYVAR
  5
3AE
102
{ACAD_REACTORS
330
3A5
102
}
330
3A5
100
DictionaryVariables
280
     0
  1
1:1
  0
DICTIONARYVAR
  5
3A7
102
{ACAD_REACTORS
330
3A5
102
}
330
3A5
100
DictionaryVariables
280
     0
  1
Standard
  0
DICTIONARYVAR
  5
3A6
102
{ACAD_REACTORS
330
3A5
102
}
330
3A5
100
DictionaryVariables
280
     0
  1
Standard
  0
DICTIONARYVAR
  5
3AA
102
{ACAD_REACTORS
330
3A5
102
}
330
3A5
100
DictionaryVariables
280
     0
  1
2
  0
DICTIONARYVAR
  5
3AB
102
{ACAD_REACTORS
330
3A5
102
}
330
3A5
100
DictionaryVariables
280
     0
  1
1
  0
DICTIONARYVAR
  5
3AF
102
{ACAD_REACTORS
330
3A5
102
}
330
3A5
100
DictionaryVariables
280
     0
  1
1
  0
DICTIONARY
  5
3B2
330
45
100
AcDbDictionary
280
     1
  3
ACAD_XREC_ROUNDTRIP
360
3B3
  0
DICTIONARY
  5
3B0
330
44
100
AcDbDictionary
280
     1
  3
ACAD_XREC_ROUNDTRIP
360
3B1
  0
DICTIONARY
  5
3B4
330
46
100
AcDbDictionary
280
     1
  3
ACAD_XREC_ROUNDTRIP
360
3B5
  0
XRECORD
  5
3B3
102
{ACAD_REACTORS
330
3B2
102
}
330
3B2
100
AcDbXrecord
102
MATERIAL
148
0.0
149
0.0
149
0.0
 93
        0
 94
      127
282
     0
 72
     1
 77
     1
171
     1
175
     1
179
     1
273
     0
  0
XRECORD
  5
3B1
102
{ACAD_REACTORS
330
3B0
102
}
330
3B0
100
AcDbXrecord
102
MATERIAL
148
0.0
149
0.0
149
0.0
 93
        0
 94
      127
282
     0
 72
     1
 77
     1
171
     1
175
     1
179
     1
273
     0
  0
XRECORD
  5
3B5
102
{ACAD_REACTORS
330
3B4
102
}
330
3B4
100
AcDbXrecord
102
MATERIAL
148
0.0
149
0.0
149
0.0
 93
        0
 94
      127
282
     0
 72
     1
 77
     1
171
     1
175
     1
179
     1
273
     0
  0
ENDSEC
  0
EOF
